memory_initialization_radix=16;
memory_initialization_vector=
4D546864,
00000006,
00000001,
01E04D54,
726B0000,
2F4600FF,
030A5061,
70657250,
6C616E65,
00FF5804,
04021808,
00FF5103,
07A12000,
FF590203,
0000FF21,
010000C0,
0000B079,
0000C000,
00B00764,
000A4000,
5B00005D,
0000FF59,
02030000,
FF210100,
00903931,
02B0407F,
816E9040,
31834780,
40401990,
40318347,
80404019,
90403183,
47804040,
19904031,
810F8039,
4061903D,
3101B040,
0001407F,
81558040,
40199044,
31834780,
44401990,
44318347,
80444019,
90443183,
47804440,
19904431,
810F803D,
4061903E,
3101B040,
0001407F,
81558044,
40199045,
31834780,
45401990,
45318347,
80454019,
90453183,
47804540,
19904531,
810F803E,
40619040,
3101B040,
0001407F,
81558045,
40199047,
31834780,
47401990,
4731884F,
80404024,
47403D90,
393101B0,
40000140,
7F816E90,
40318347,
80404019,
90403183,
47804040,
19904031,
83478040,
40199040,
31810F80,
39406190,
3D3101B0,
40000140,
7F815580,
40401990,
44318347,
80444019,
90443183,
47804440,
19904431,
83478044,
40199044,
31810F80,
3D406190,
3E3101B0,
40000140,
7F815580,
44401990,
45318347,
80454019,
90453183,
47804540,
19904531,
83478045,
40199045,
31810F80,
3E405445,
400D9040,
3101B040,
0001407F,
816E9047,
31816380,
47400D90,
4C318163,
804C400D,
90473100,
51318163,
80474000,
51400D90,
5031865F,
80404030,
50403190,
2D4001B0,
40000140,
7F816180,
2D400D90,
34408170,
45408157,
8034400C,
45400D90,
45400034,
40816380,
45400D90,
45408157,
8034400C,
45400D90,
40400034,
40816380,
40400D90,
44408157,
8034400C,
44400D90,
45400034,
40816380,
34400D90,
314001B0,
40000140,
7F816180,
31400D90,
3840814B,
80454025,
90454081,
57803840,
0C45400D,
90454000,
38408163,
8045400D,
90454081,
57803840,
0C45400D,
90404000,
38408163,
8040400D,
90474081,
57803840,
0C47400D,
90454000,
38408163,
8038400D,
90324001,
B0400001,
407F8161,
8032400D,
90394081,
4B804540,
25904540,
81578039,
400C4540,
0D904540,
00394081,
63804540,
0D904540,
81578039,
400C4540,
0D904040,
00394081,
63804040,
0D904540,
81578039,
400C4540,
0D904740,
00394081,
63803940,
0D903440,
01B04000,
01407F81,
61803440,
0D903B40,
814B8047,
4025904C,
40815780,
3B400C4C,
400D904A,
40003B40,
8347804A,
40003B40,
19904940,
003B4083,
47804940,
003B4019,
90454000,
3B408163,
803B400D,
902D4001,
B0400001,
407F8161,
802D400D,
90344081,
4B804540,
25904940,
81578034,
400C4940,
0D904940,
00344081,
63804940,
0D904940,
81578034,
400C4940,
0D904540,
00344081,
63804540,
0D904740,
81578034,
400C4740,
0D904C40,
00344081,
63803440,
0D903140,
01B04000,
01407F81,
61803140,
0D903840,
814B804C,
4025904C,
40815780,
38400C4C,
400D904C,
40003840,
8163804C,
400D904C,
40815780,
38400C4C,
400D9044,
40003840,
81638044,
400D9045,
40815780,
38400C45,
400D9047,
40003840,
81638038,
400D9032,
4001B040,
0001407F,
81618032,
400D9039,
40814B80,
47402590,
45408157,
8039400C,
45400D90,
45400039,
40816380,
45400D90,
45408157,
8039400C,
45400D90,
40400039,
40816380,
40400D90,
47408157,
8039400C,
47400D90,
49400039,
40816380,
49400039,
400D904A,
40003440,
01B04000,
01407F81,
61803440,
0D903B40,
8157804A,
40199049,
40815780,
3B400C49,
400D9047,
40003B40,
83478047,
40003B40,
19904C40,
00354081,
63804C40,
0035400D,
904A4000,
3D408163,
804A4000,
3D400D90,
4940003D,
40816380,
3D400D90,
364001B0,
40000140,
7F816180,
36400D90,
3D40814B,
80494018,
3D400D90,
49400051,
40004240,
81638049,
40005140,
0042400D,
90494000,
5140003D,
40816380,
49400051,
40003D40,
0D904940,
00514000,
44408163,
80494000,
51400044,
400D9050,
40003D40,
81638050,
40003D40,
0D904C40,
00424081,
63804C40,
0042400D,
904A4000,
3D408163,
803D400D,
90324001,
B0400001,
407F8155,
804A400C,
32400D90,
51400039,
40816380,
51400039,
400D904C,
40005140,
003E4081,
63804C40,
00514000,
3E400D90,
4C400051,
40003940,
8163804C,
40005140,
0039400D,
904C4000,
51400040,
40816380,
4C400051,
40004040,
0D905040,
00394081,
63805040,
0039400D,
904C4000,
3E408163,
804C4000,
3E400D90,
4C400039,
40816380,
39400D90,
2D4001B0,
40000140,
7F815580,
4C400C2D,
400D9051,
40003440,
81638051,
40003440,
0D905140,
00394081,
63805140,
0039400D,
90514000,
34408163,
80514000,
34400D90,
5140003B,
40816380,
5140003B,
400D9050,
40003440,
81638050,
40003440,
0D904C40,
00394081,
63804C40,
0039400D,
90514000,
34408163,
8034400D,
90344001,
B0400001,
407F8155,
8051400C,
34400D90,
5040003B,
40816380,
5040003B,
400D9051,
40004040,
81638051,
40004040,
0D905340,
003B4081,
63805340,
003B400D,
90564000,
35408163,
80564000,
35400D90,
5540003D,
40816380,
5540003D,
400D9053,
40004440,
81638053,
40004440,
0D905140,
003D4081,
63805140,
003D400D,
90364001,
B0400001,
407F8161,
8036400D,
90514000,
3D408163,
80514000,
3D400D90,
50400042,
40816380,
50400042,
400D9051,
40003D40,
81638051,
40003D40,
0D904C40,
00444081,
63804C40,
0044400D,
90514000,
3D408163,
80514000,
3D400D90,
50400042,
40718050,
40079051,
406B8042,
40065140,
07904C40,
003D4081,
63803D40,
0D903140,
01B04000,
01407F81,
55804C40,
0C31400D,
90514000,
38408163,
80514000,
38400D90,
5040003B,
40816380,
5040003B,
400D9051,
40003840,
81638051,
40003840,
0D904C40,
003D4081,
63804C40,
003D400D,
90514000,
38408163,
80514000,
38400D90,
5040003B,
40718050,
40079051,
406B803B,
40065140,
07905840,
00384081,
63803840,
0D903240,
01B04000,
01407F81,
61803240,
0D903940,
81638039,
400D903E,
40816380,
3E400D90,
39408163,
8039400D,
90404081,
63804040,
0D903940,
81638039,
400D903E,
40816380,
3E400D90,
39408103,
80584060,
39400D90,
344001B0,
40000140,
7F816180,
34400D90,
4742003B,
42816380,
4740003B,
400D904C,
44004044,
8163804C,
40004040,
0D905046,
003B4681,
63805040,
003B400D,
904D4800,
51480031,
48816380,
4D400051,
40003140,
0D90504A,
00534A00,
3D4A8163,
80504000,
5340003D,
400D904D,
4C00504C,
00554C00,
384C8163,
804D4000,
50400055,
40003840,
0D904D4E,
00504E00,
564E003B,
4E816380,
4D400050,
40005640,
003B400D,
90325001,
B0400001,
407F8161,
8032400D,
90515000,
39508163,
80514000,
39400D90,
5150003E,
50816380,
5140003E,
400D9051,
50003950,
71805140,
07905150,
6B803940,
0D903450,
815D8051,
40063440,
0D905050,
003B5081,
63805040,
003B400D,
904C5000,
40508163,
804C4000,
40400D90,
5150003B,
50816380,
3B400D90,
365001B0,
40000140,
7F815580,
51400C36,
400D9050,
50003D50,
81638050,
40003D40,
0D905050,
00425081,
63805040,
0042400D,
90515000,
3D507180,
51400790,
58506B80,
3D400D90,
3150815D,
80584006,
31400D90,
56500038,
50816380,
56400038,
400D9055,
50003B50,
81638055,
40003B40,
0D905350,
00385081,
63805340,
0038400D,
90325001,
B0400001,
407F8161,
8032400D,
90515000,
39508163,
80514000,
39400D90,
5050003E,
50816380,
5040003E,
400D9051,
50003950,
71805140,
07904C50,
6B803940,
0D903450,
815D804C,
40063440,
0D905050,
003B5081,
63805040,
003B400D,
90515000,
40508163,
80514000,
40400D90,
5350003B,
50816380,
5340003B,
400D9056,
50002D50,
01B04000,
01407F81,
61805640,
002D400D,
904C5000,
39508163,
804C4000,
39400D90,
5550002C,
50816380,
5540002C,
400D904C,
50003850,
8163804C,
40003840,
0D904C50,
00535000,
2A508163,
804C4000,
5340002A,
400D904C,
50003650,
8163804C,
40003640,
0D904C50,
00515000,
28508163,
804C4000,
51400028,
400D904C,
50003450,
8163804C,
40003440,
0D903250,
01B04000,
01407F81,
61803240,
0D905150,
00395081,
63805140,
0039400D,
90515000,
3E508163,
80514000,
3E400D90,
51500039,
50718051,
40079051,
506B8039,
400D9034,
50815D80,
51400634,
400D9050,
50003B50,
81638050,
40003B40,
0D904C50,
00405081,
63804C40,
0040400D,
90515000,
3B508163,
803B400D,
90365001,
B0400001,
407F8155,
8051400C,
36400D90,
5050003D,
50816380,
5040003D,
400D9050,
50004250,
81638050,
40004240,
0D905150,
003D5071,
80514007,
9058506B,
803D400D,
90315081,
5D805840,
0631400D,
90565000,
38508163,
80564000,
38400D90,
5550003B,
50816380,
5540003B,
400D9053,
50003850,
81638038,
400D9032,
5001B040,
0001407F,
81558053,
400C3240,
0D905150,
00395081,
63805140,
0039400D,
90505000,
3E508163,
80504000,
3E400D90,
51500039,
50718051,
40079053,
506B8039,
400D9034,
50815D80,
53400634,
400D9056,
50003B50,
81638056,
40003B40,
0D905550,
00405081,
63805540,
0040400D,
90515000,
3B508163,
803B400D,
90393101,
B0400001,
407F8155,
80514019,
90403183,
47804040,
19904031,
83478040,
40199040,
31834780,
40401990,
4031810F,
80394061,
903D3101,
B0400001,
407F8155,
80404019,
90443183,
47804440,
19904431,
83478044,
40199044,
31834780,
44401990,
4431810F,
803D4061,
903E3101,
B0400001,
407F8155,
80444019,
90453183,
47804540,
19904531,
83478045,
40199045,
31834780,
45401990,
4531810F,
803E4061,
90403101,
B0400001,
407F8155,
80454019,
90473183,
47804740,
19904731,
83478047,
40199047,
31834780,
47408128,
40406190,
393101B0,
40000140,
7F816E90,
40318347,
80404019,
90403183,
47804040,
19904031,
81638040,
400D9045,
31816380,
45400D90,
4031810F,
80394054,
40400D90,
3D3101B0,
40000140,
7F816E90,
44318347,
80444019,
90443183,
47804440,
19904431,
81638044,
400D904C,
31816380,
4C400D90,
4431810F,
803D4054,
44400D90,
3E3101B0,
40000140,
7F816E90,
45318347,
80454019,
90453183,
47804540,
19904531,
81638045,
400D904C,
31816380,
4C400D90,
4531810F,
803E4054,
45400D90,
403101B0,
40000140,
7F816E90,
47318163,
8047400D,
904C3181,
63804C40,
0D904731,
00513181,
63804740,
0051400D,
90503186,
5F804040,
30504031,
902D5001,
B0400001,
407F8161,
802D400D,
90345081,
70455081,
57803440,
0C45400D,
90455000,
34508163,
8045400D,
90455081,
57803440,
0C45400D,
90405000,
34508163,
8040400D,
90445081,
57803440,
0C44400D,
90455000,
34508163,
8034400D,
90315001,
B0400001,
407F8161,
8031400D,
90385081,
4B804540,
25904550,
81578038,
400C4540,
0D904550,
00385081,
63804540,
0D904550,
81578038,
400C4540,
0D904050,
00385081,
63804040,
0D904750,
81578038,
400C4740,
0D904550,
00385081,
63803840,
0D903250,
01B04000,
01407F81,
61803240,
0D903950,
814B8045,
40259045,
50815780,
39400C45,
400D9045,
50003950,
81638045,
400D9045,
50815780,
39400C45,
400D9040,
50003950,
81638040,
400D9045,
50815780,
39400C45,
400D9047,
50003950,
81638039,
400D9034,
5001B040,
0001407F,
81618034,
400D903B,
50814B80,
47402590,
4C508157,
803B400C,
4C400D90,
4A50003B,
50834780,
4A40003B,
40199049,
50003B50,
83478049,
40003B40,
19904550,
003B5081,
63803B40,
0D902D50,
01B04000,
01407F81,
61802D40,
0D903450,
814B8045,
40259049,
50815780,
34400C49,
400D9049,
50003450,
81638049,
400D9049,
50815780,
34400C49,
400D9045,
50003450,
81638045,
400D9047,
50815780,
34400C47,
400D904C,
50003450,
81638034,
400D9031,
5001B040,
0001407F,
81618031,
400D9038,
50814B80,
4C402590,
4C508157,
8038400C,
4C400D90,
4C500038,
50816380,
4C400D90,
4C508157,
8038400C,
4C400D90,
44500038,
50816380,
44400D90,
45508157,
8038400C,
45400D90,
47500038,
50816380,
38400D90,
325001B0,
40000140,
7F816180,
32400D90,
3950814B,
80474025,
90455081,
57803940,
0C45400D,
90455000,
39508163,
8045400D,
90455081,
57803940,
0C45400D,
90405000,
39508163,
8040400D,
90455081,
57803940,
0C45400D,
90475000,
39508163,
80474000,
39400D90,
4A500034,
5001B040,
0001407F,
81618034,
400D903B,
50815780,
4A401990,
49508157,
803B400C,
49400D90,
4750003B,
50816380,
3B400D90,
35508157,
8047400C,
35400D90,
4C50003D,
50816380,
4C400D90,
4A508157,
803D400C,
4A400D90,
4950003D,
50816380,
3D400D90,
36500044,
5001B040,
0001407F,
83398049,
40259049,
40005140,
81638049,
40005140,
0D904940,
00514081,
63804940,
0051400D,
90494C00,
514C816F,
80494000,
51400190,
47400050,
40816380,
47400050,
400D9044,
40004C40,
00804440,
81634C40,
0D904240,
004A4081,
0F804440,
00364061,
90324000,
404001B0,
40000140,
7F833980,
4240004A,
40259049,
40005140,
81638049,
40005140,
0D904940,
00514081,
63804940,
0051400D,
90494C00,
514C816F,
80494000,
51400190,
47400050,
40816380,
47400050,
400D9044,
40004C40,
81638044,
40004C40,
0D904440,
004C4081,
0F803240,
00404061,
90394000,
474001B0,
40000140,
7F833980,
4440004C,
40259049,
40005140,
81638049,
40005140,
0D904940,
00514081,
63804940,
0051400D,
90494000,
51408163,
80494000,
51400D90,
47400050,
40008047,
40816350,
400D9044,
40004C40,
81638044,
40004C40,
0D904940,
00514081,
0F804740,
00394061,
90344000,
404001B0,
40000140,
7F815580,
49400051,
40199047,
40005040,
81638047,
40005040,
0D904940,
00514081,
63804940,
0051400D,
904A4000,
5340813F,
80344000,
4040244A,
40005340,
0D905040,
00564000,
35400041,
40816380,
50400056,
400D904D,
40005540,
8163804D,
40005540,
0D904940,
00534081,
63804940,
0053400D,
904D4000,
5540813F,
80354000,
4140244D,
40005540,
0D904540,
004C4000,
3640003D,
40004040,
01B04000,
01407F6F,
80454000,
4C400036,
40003D40,
00404007,
90454100,
4C410036,
41003D41,
00404171,
80454000,
4C400036,
40003D40,
00404007,
90494200,
51420036,
42003D42,
00404281,
63804940,
00514000,
3640003D,
40004040,
0D904744,
00504400,
3644003D,
44004044,
81638047,
40005040,
00364000,
3D400040,
400D9049,
46004C46,
00514600,
3646003D,
46004046,
71804940,
004C4000,
51400036,
40003D40,
00404007,
90454700,
4947004C,
47003647,
003D4700,
40478163,
80454000,
4940004C,
40003640,
003D4000,
40400D90,
4549004C,
49003649,
003D4900,
40497180,
4540004C,
40003640,
003D4000,
40400790,
494A0051,
4A00364A,
003D4A00,
404A8163,
80494000,
51400036,
40003D40,
0040400D,
90474C00,
504C0036,
4C003D4C,
00404C81,
63804740,
00504000,
3640003D,
40004040,
0D90494E,
004C4E00,
514E0036,
4E003D4E,
00404E81,
63804940,
004C4000,
51400036,
40003D40,
0040400D,
90455000,
4C500032,
50003950,
003D5001,
B0400000,
40000140,
7F00407F,
6F804540,
004C4000,
32400039,
40003D40,
07904551,
004C5100,
32510039,
51003D51,
71804540,
004C4000,
32400039,
40003D40,
07904952,
00515200,
32520039,
52003D52,
81638049,
40005140,
00324000,
3940003D,
400D9047,
54005054,
00325400,
3954003D,
54816380,
47400050,
40003240,
00394000,
3D400D90,
49560051,
56003256,
00395600,
3D567180,
49400051,
40003240,
00394000,
3D400790,
50570058,
57003257,
00395700,
3D578163,
80504000,
58400032,
40003940,
003D400D,
90495900,
32590039,
59003D59,
71804940,
00324000,
3940003D,
40079049,
5A00515A,
00325A00,
395A003D,
5A816380,
49400051,
40003240,
00394000,
3D400D90,
475C0050,
5C00325C,
00395C00,
3D5C8163,
80474000,
50400032,
40003940,
003D400D,
90495E00,
4C5E0051,
5E00325E,
00395E00,
3D5E8163,
80494000,
4C400051,
40003240,
00394000,
3D400D90,
40600034,
60003B60,
01B04000,
01407F6F,
80404007,
90456071,
80454007,
90476071,
80474007,
904C6071,
804C4007,
90516071,
80514007,
90536071,
80534007,
90586071,
80584007,
90536071,
80534007,
90516071,
80514007,
904C6071,
804C4007,
90476071,
80474007,
90456071,
80454007,
90406071,
80404007,
90456071,
80454007,
90476071,
80474007,
904C6017,
80344000,
3B405A4C,
4007903C,
60002E60,
00356000,
386001B0,
40000140,
7F6F803C,
4007903D,
6071803D,
40079041,
60718041,
40079044,
60718044,
40079048,
60718048,
40079049,
60718049,
4007904D,
6071804D,
40079050,
6047802E,
40003540,
0038402A,
50400790,
3D600030,
60003760,
003A6071,
803D4007,
90406071,
80404007,
90436071,
80434007,
90466071,
80464007,
90496071,
80494007,
904C6071,
804C4007,
904F6071,
804F4007,
90526047,
80304000,
3740003A,
402A5240,
07FF5902,
FC0000FF,
5902FC00,
00903150,
01B04000,
01407F81,
61803140,
0D905050,
00385081,
63805040,
0038400D,
90505000,
3D508163,
80504000,
3D400D90,
50500038,
50718050,
40079050,
506B8038,
400D9033,
50815D80,
50400633,
400D904F,
50003A50,
8163804F,
40003A40,
0D904B50,
003F5081,
63804B40,
003F400D,
90505000,
3A508163,
80504000,
3A400D90,
355001B0,
40000140,
7F816180,
35400D90,
4F50003C,
50816380,
4F40003C,
400D904F,
50004150,
8163804F,
40004140,
0D905050,
003C5071,
80504007,
9057506B,
803C400D,
90305081,
5D805740,
0630400D,
90555000,
37508163,
80554000,
37400D90,
5450003C,
50816380,
5440003C,
400D9052,
50003750,
81638052,
40003740,
0D903150,
01B04000,
01407F81,
61803140,
0D905050,
00385081,
63805040,
0038400D,
904F5000,
3D508163,
804F4000,
3D400D90,
50500038,
50718050,
4007904B,
506B8038,
400D9033,
50815D80,
4B400633,
400D904F,
50003A50,
8163804F,
40003A40,
0D905050,
003F5081,
63805040,
003F400D,
90525000,
3A508163,
80524000,
3A400D90,
5550002C,
50003350,
00385001,
B0400001,
407F6F80,
55400790,
4B507180,
4B400790,
50507180,
50400790,
55505F80,
2C400033,
40003840,
12554007,
90545000,
2B500033,
50003750,
71805440,
07904B50,
71804B40,
07905050,
71805040,
07905450,
5F802B40,
00334000,
37401254,
40079052,
50002950,
00305000,
35507180,
52400790,
4B507180,
4B400790,
4F507180,
4F400790,
52505F80,
29400030,
40003540,
12524007,
90505000,
27500030,
50003350,
71805040,
07904850,
71804840,
07904B50,
71804B40,
07905050,
5F802740,
00304000,
33401250,
40079031,
5001B040,
0001407F,
81618031,
400D9050,
50003850,
81638050,
40003840,
0D905050,
003D5081,
63805040,
003D400D,
90505000,
38507180,
50400790,
50506B80,
38400D90,
3350815D,
80504006,
33400D90,
4F50003A,
50816380,
4F40003A,
400D904B,
50003F50,
8163804B,
40003F40,
0D905050,
003A5081,
63805040,
003A400D,
90355001,
B0400001,
407F8161,
8035400D,
90505000,
3C508163,
80504000,
3C400D90,
4F500041,
50816380,
4F400041,
400D9050,
50003C50,
71805040,
07905750,
6B803C40,
0D903050,
815D8057,
40063040,
0D905550,
00375081,
63805540,
0037400D,
90545000,
3C508163,
80544000,
3C400D90,
52500037,
50816380,
52400037,
400D9031,
5001B040,
0001407F,
81618031,
400D9050,
50003850,
81638050,
40003840,
0D904F50,
003D5081,
63804F40,
003D400D,
90505000,
38507180,
50400790,
52506B80,
38400D90,
3350815D,
80524006,
33400D90,
5550003A,
50816380,
5540003A,
400D9054,
50003F50,
81638054,
40003F40,
0D905050,
003A5081,
63805040,
003A400D,
90485000,
4E500051,
50003450,
01B04000,
01407F81,
61803440,
0D903B50,
81578048,
40004E40,
0051400C,
3B400D90,
4250003E,
50816380,
4240003E,
400D9045,
50003B50,
81638045,
40003B40,
0D904460,
00476000,
3460870F,
80444000,
47400034,
4031FF59,
02030000,
90453100,
493100FF,
59020300,
00902631,
00343101,
B0400001,
407F8161,
80454000,
49400D90,
51318163,
8051400D,
90503181,
63805040,
0D905131,
71805140,
07904C31,
8255804C,
40139051,
31816380,
51400D90,
50318163,
8050400D,
90513181,
63805140,
817D905D,
31816380,
5D400D90,
5C318163,
805C400D,
905D3171,
805D4007,
90583182,
55805840,
13905D31,
8163805D,
400D905C,
31816380,
5C400D90,
5D312F80,
26400034,
4081345D,
400D9045,
31002A31,
00363101,
B0400001,
407F8161,
8045400D,
90513181,
63805140,
0D905031,
81638050,
400D9051,
31718051,
4007904C,
31825580,
4C401390,
51318163,
8051400D,
90503181,
63805040,
0D905131,
81638051,
40817D90,
5D318163,
805D400D,
905C3181,
63805C40,
0D905D31,
71805D40,
07905831,
82558058,
40139061,
31816380,
61400D90,
5F318163,
805F400D,
9061312F,
802A4000,
36408134,
61400DFF,
5902FE00,
00FF5902,
FE000090,
2760002E,
60003360,
01B04000,
01407F81,
6E904A60,
00526081,
57802740,
002E4000,
33400C4A,
40005240,
0D905160,
00336000,
3760003A,
60003E60,
81638051,
400D9052,
60658033,
40003740,
003A4000,
3E400C52,
40079048,
60004D60,
00296000,
30600035,
60825580,
4840004D,
40139052,
60815180,
29400030,
40003540,
1252400D,
90516000,
35600039,
60003C60,
81638051,
400D9052,
60815780,
35400039,
40003C40,
0C52400D,
902B6000,
32600037,
6001B040,
0001407F,
816E904A,
60004F60,
00526081,
57802B40,
00324000,
37400C4A,
40004F40,
0052400D,
90516000,
3760003A,
60003E60,
81638051,
400D9052,
60658037,
40003A40,
003E400C,
52400790,
51600054,
60005960,
00266000,
2D600032,
60825580,
51400054,
40005940,
13905760,
81518026,
40002D40,
00324012,
57400D90,
56600032,
60003560,
00396081,
63805640,
00324000,
35400039,
400D9054,
60003260,
81638054,
40003240,
0D902760,
002E6000,
336001B0,
40000140,
7F816E90,
4A60004F,
60005260,
81578027,
40002E40,
0033400C,
4A40004F,
40005240,
0D905160,
00336000,
3760003A,
60003E60,
81638051,
400D9052,
60658033,
40003740,
003A4000,
3E400C52,
40079048,
60004D60,
00296000,
30600035,
60825580,
4840004D,
40139052,
60815180,
29400030,
40003540,
1252400D,
90546000,
35600039,
60003C60,
81638054,
400D9052,
60815780,
35400039,
40003C40,
0C52400D,
904D6000,
52600057,
60002E60,
00356000,
3A6001B0,
40000140,
7F834580,
4D400052,
40005740,
002E4000,
3540003A,
4019904D,
60005260,
00566000,
2D600035,
60003960,
8347804D,
40005240,
00564000,
2D400035,
40003940,
19904D60,
00516000,
5460002B,
60003260,
00376083,
47804D40,
00514000,
5440002B,
40003240,
00374019,
904A6000,
4F600052,
60002960,
00326000,
35608347,
804A4000,
4F400052,
40002940,
00324000,
35401990,
2760002E,
60003360,
01B04000,
01407F81,
6E904A60,
004F6000,
52608157,
80274000,
2E400033,
400C4A40,
004F4000,
52400D90,
51600033,
60003760,
003A6000,
3E608163,
8051400D,
90526065,
80334000,
3740003A,
40003E40,
0C524007,
90486000,
4D600029,
60003060,
00356082,
55804840,
004D4013,
90486000,
52608151,
80294000,
30400035,
40124840,
0052400D,
90516000,
35600039,
60003E60,
81638051,
400D9052,
60815780,
35400039,
40003E40,
0C52400D,
902B6000,
32600037,
6001B040,
0001407F,
816E904A,
60004F60,
00526081,
57802B40,
00324000,
37400C4A,
40004F40,
0052400D,
90516000,
3760003A,
60003E60,
81638051,
400D9052,
60658037,
40003A40,
003E400C,
52400790,
51600054,
60005960,
00266000,
2D600032,
60825580,
51400054,
40005940,
13905160,
00576081,
51802640,
002D4000,
32401251,
40005740,
0D905660,
00356000,
3960003E,
60816380,
56400035,
40003940,
003E400D,
90546000,
32608163,
80544000,
32400D90,
2760002E,
60003360,
01B04000,
01407F81,
6E904A60,
004F6000,
52608157,
80274000,
2E400033,
400C4A40,
004F4000,
52400D90,
51600033,
60003760,
003A6000,
3E608163,
8051400D,
90526065,
80334000,
3740003A,
40003E40,
0C524007,
904D6000,
51600054,
60002960,
00306000,
35608255,
804D4000,
51400054,
4013904D,
60005760,
81518029,
40003040,
00354012,
4D400057,
400D904D,
60005660,
00356000,
3960003C,
60816380,
4D400056,
400D904D,
60005260,
81578035,
40003940,
003C400C,
4D400052,
400D9037,
4001B040,
0001407F,
81618037,
400D903E,
40816380,
3E400D90,
433E8163,
8043400D,
90453C81,
63804540,
0D90463A,
81638046,
400D904A,
38816380,
4A400D90,
4D368163,
804D400D,
90513481,
63805140,
0D903F31,
01B04000,
01407F81,
6E905231,
71805240,
07904A31,
71804A40,
07905131,
71805140,
07904A31,
71804A40,
07905231,
71805240,
07904A31,
47803F40,
2A4A4007,
904D3100,
41317180,
4D400790,
48317180,
48400790,
52317180,
52400790,
48317180,
48400790,
51317180,
51400790,
48317180,
48400790,
52317180,
52400790,
48314780,
41402A48,
40079043,
3101B040,
0001407F,
76904A31,
71804A40,
07905231,
71805240,
07904A31,
71804A40,
07905131,
71805140,
07904A31,
71804A40,
07905231,
71805240,
07904A31,
47804340,
2A4A4007,
90593100,
3E317180,
59400790,
48317180,
48400790,
57317180,
57400790,
48317180,
48400790,
56317180,
56400790,
48317180,
48400790,
54317180,
54400790,
48314780,
3E402A48,
4007903F,
3101B040,
0001407F,
76904631,
71804640,
07905231,
71805240,
07904631,
71804640,
07905131,
71805140,
07904631,
71804640,
07905231,
71805240,
07904631,
47803F40,
2A464007,
904D3100,
41317180,
4D400790,
48317180,
48400790,
52317180,
52400790,
48317180,
48400790,
54317180,
54400790,
48317180,
48400790,
52317180,
52400790,
48314780,
41402A48,
40079057,
31004631,
01B04000,
01407F6F,
80574007,
904D3171,
804D4007,
90523171,
80524007,
9057315F,
80464012,
57400790,
56310045,
31718056,
4007904D,
3171804D,
40079052,
31718052,
40079056,
315F8045,
40125640,
07905431,
00433171,
80544007,
904D3171,
804D4007,
90513171,
80514007,
9054315F,
80434012,
54400790,
52370041,
37408052,
40059051,
3A408051,
4005904F,
3E40804F,
4005904D,
4140804D,
4005904B,
4540804B,
4005904A,
4940804A,
40059048,
4C298041,
40174840,
02903350,
01B04000,
01407F76,
903E5000,
46506B80,
33400D90,
3A507180,
3A400790,
3A506580,
3E400046,
4013903C,
50004550,
6B803A40,
0D903A50,
6B803C40,
0045400D,
903E5000,
46506B80,
3A400D90,
3A506B80,
3E400046,
40063A40,
07903C50,
00415000,
35507180,
3540073C,
4000903C,
506B8041,
400D903C,
50004650,
00803C40,
783C4000,
903C506B,
8046400D,
903C5000,
45500080,
3C40783C,
4000903C,
506B8045,
400D903E,
50004650,
6B803C40,
0D903C50,
6B803E40,
00464006,
3C400790,
375001B0,
40000140,
7F76903E,
50004650,
6B803740,
0D3E4000,
903E5078,
803E4000,
903E5065,
80464013,
903C5000,
45506B80,
3E400D90,
3E506B80,
3C400045,
400D903E,
50004650,
00803E40,
783E4000,
903E506B,
80464006,
3E400790,
4550004D,
50003250,
71803240,
07903950,
6B804540,
004D400D,
90455000,
4B506B80,
39400D90,
39506B80,
4540004B,
400D9041,
50004A50,
6B803940,
0D903950,
6B804140,
004A400D,
903F5000,
48506B80,
39400D90,
39506B80,
3F400048,
40063940,
07903350,
01B04000,
01407F76,
903E5000,
46506B80,
33400D90,
3A507180,
3A400790,
3A506580,
3E400046,
4013903C,
50004550,
6B803A40,
0D903A50,
6B803C40,
0045400D,
903E5000,
46506B80,
3A400D90,
3A506B80,
3E400046,
40063A40,
07904150,
00455000,
48500035,
50718035,
4007903C,
506B8041,
40004540,
0048400D,
90415000,
4B506B80,
3C400D90,
3C506B80,
4140004B,
400D9041,
50004A50,
6B803C40,
0D903C50,
6B804140,
004A400D,
903E5000,
46506B80,
3C400D90,
3C507180,
3C400790,
2E500035,
50003A50,
01B04000,
01407F63,
803E4000,
46401390,
3E507180,
3E400790,
41507180,
41400790,
46505F80,
2E400035,
40003A40,
12464007,
90485000,
2D500035,
50003950,
71804840,
07904150,
71804140,
07904650,
71804640,
07904850,
5F802D40,
00354000,
39401248,
4007904A,
50002B50,
00325000,
37507180,
4A400790,
41507180,
41400790,
46507180,
46400790,
4A505F80,
2B400032,
40003740,
124A4007,
904D5000,
29500030,
50003550,
71804D40,
07904650,
71804640,
07904A50,
71804A40,
07904D50,
5F802940,
00304000,
3540124D,
40079027,
5001B040,
0001407F,
76904A50,
0052506B,
8027400D,
902E5000,
33507180,
2E400033,
4007902E,
50003350,
65804A40,
00524013,
90485000,
51506B80,
2E400033,
400D902E,
50003350,
6B804840,
0051400D,
904A5000,
52506B80,
2E400033,
400D902E,
50003350,
6B804A40,
00524006,
2E400033,
40079048,
50004D50,
00295081,
63804840,
004D4000,
29400D90,
4A500052,
50003050,
00355071,
80304000,
35400790,
30500035,
506B804A,
40005240,
0D904850,
004D5000,
51506B80,
30400035,
400D9030,
50003550,
6B804840,
004D4000,
51400D90,
4A50004F,
50005250,
6B803040,
0035400D,
90305000,
35506B80,
4A40004F,
40005240,
06304000,
35400790,
2B5001B0,
40000140,
7F76904A,
50004F50,
0052506B,
802B400D,
90325000,
37507180,
32400037,
40079032,
50003750,
65804A40,
004F4000,
52401390,
4850004D,
50005150,
6B803240,
0037400D,
90325000,
37506B80,
4840004D,
40005140,
0D904D50,
0052506B,
80324000,
37400D90,
32500037,
506B804D,
40005240,
06324000,
37400790,
51500054,
50005950,
00265081,
63805140,
00544000,
59400026,
400D9051,
50005750,
002D5000,
32507180,
2D400032,
4007902D,
50003250,
6B805140,
0057400D,
904D5000,
52500056,
506B802D,
40003240,
0D902D50,
0032506B,
804D4000,
52400056,
400D904D,
50005150,
0054506B,
802D4000,
32400D90,
2D500032,
506B804D,
40005140,
00544006,
2D400032,
40079027,
5001B040,
0001407F,
76904A50,
004F5000,
52506B80,
27400D90,
2E500033,
5071802E,
40003340,
07902E50,
00335065,
804A4000,
4F400052,
40139048,
50004D50,
0051506B,
802E4000,
33400D90,
2E500033,
506B8048,
40004D40,
0051400D,
904A5000,
4F500052,
506B802E,
40003340,
0D902E50,
0033506B,
804A4000,
4F400052,
40062E40,
00334007,
90485000,
4D500029,
50816380,
4840004D,
40002940,
0D904D50,
00525000,
30500035,
50718030,
40003540,
07903050,
0035506B,
804D4000,
52400D90,
4D500054,
506B8030,
40003540,
0D903050,
0035506B,
804D4000,
54400D90,
4D500052,
506B8030,
40003540,
0D903050,
0035506B,
804D4000,
52400630,
40003540,
07905750,
002E5000,
3550003A,
5001B040,
0001407F,
6F805740,
07904D50,
71804D40,
07905250,
71805240,
07905750,
5F802E40,
00354000,
3A401257,
40079056,
50002D50,
00395071,
80564007,
904D5071,
804D4007,
90525071,
80524007,
9056505F,
802D4000,
39401256,
40079054,
50002B50,
00375071,
80544007,
904D5071,
804D4007,
90515071,
80514007,
9054505F,
802B4000,
37401254,
40079052,
50002950,
00355071,
80524007,
904A5071,
804A4007,
904F5071,
804F4007,
9052505F,
80294000,
35401252,
40079027,
5001B040,
0001407F,
76903E50,
00435000,
46506B80,
27400D90,
2E500033,
5071802E,
40003340,
07902E50,
00335065,
803E4000,
43400046,
4013903C,
50004150,
0045506B,
802E4000,
33400D90,
2E500033,
506B803C,
40004140,
0045400D,
903E5000,
43500046,
506B802E,
40003340,
0D902E50,
0033506B,
803E4000,
43400046,
40062E40,
00334007,
903C5000,
41500029,
50816380,
3C400041,
40002940,
0D903E50,
00465000,
30500035,
50718030,
40003540,
07903050,
0035506B,
803E4000,
46400D90,
3C500041,
50004550,
6B803040,
0035400D,
90305000,
35506B80,
3C400041,
40004540,
0D903E50,
00435000,
46506B80,
30400035,
400D9030,
50003550,
6B803E40,
00434000,
46400630,
40003540,
07902B50,
01B04000,
01407F76,
903E5000,
43500046,
506B802B,
400D9032,
50003750,
71803240,
00374007,
90325000,
37506580,
3E400043,
40004640,
13903C50,
00415000,
45506B80,
32400037,
400D9032,
50003750,
6B803C40,
00414000,
45400D90,
41500046,
506B8032,
40003740,
0D903250,
0037506B,
80414000,
46400632,
40003740,
07904550,
00485000,
4D500026,
50816380,
45400048,
40004D40,
0026400D,
90465000,
4B50002D,
50003250,
71802D40,
00324007,
902D5000,
32506B80,
4640004B,
400D9041,
50004650,
004A506B,
802D4000,
32400D90,
2D500032,
506B8041,
40004640,
004A400D,
90415000,
45500048,
506B802D,
40003240,
0D902D50,
0032506B,
80414000,
45400048,
40062D40,
00324007,
90275001,
B0400001,
407F7690,
3E500043,
50004650,
6B802740,
0D902E50,
00335071,
802E4000,
33400790,
2E500033,
5065803E,
40004340,
00464013,
FF510307,
F60B0090,
3C500041,
50004550,
6B802E40,
0033400D,
902E5000,
33506B80,
3C400041,
40004540,
0D903C50,
00415000,
46506B80,
2E400033,
400D902E,
50003350,
6B803C40,
00414000,
4640062E,
40003340,
07FF5103,
0852AF00,
90415000,
45500048,
50002950,
81638041,
40004540,
00484000,
29400DFF,
51030927,
C0009041,
60004B60,
00305000,
35507180,
30400035,
40079030,
50003550,
77804140,
004B4001,
FF51030A,
2C2B0090,
4160004A,
606B8030,
40003540,
0D903050,
00355077,
80414000,
4A4001FF,
51030B71,
B0009041,
60004860,
6B803040,
0035400D,
90305000,
35507180,
30400035,
40064140,
00484001,
903E6000,
41600046,
60002250,
002E5001,
B0400001,
407F8E1D,
80224000,
2E40603E,
40004140,
00464001,
90332101,
B0400001,
407F8161,
8033400D,
903C2100,
4121003A,
21834780,
3C400041,
40003A40,
19903C21,
00412100,
3A218347,
803C4000,
4140003A,
4019903C,
21004121,
003A2183,
47803C40,
00414000,
3A401990,
3C210041,
21003A21,
8163803C,
40004140,
003A400D,
90332101,
B0400001,
407F8161,
8033400D,
903C2100,
4121003A,
21834780,
3C400041,
40003A40,
19903C21,
00412100,
3A218347,
803C4000,
4140003A,
4019903C,
21004121,
003A2183,
47803C40,
00414000,
3A401990,
3C210041,
21003A21,
8163803C,
40004140,
003A400D,
90372101,
B0400001,
407F8161,
8037400D,
90462100,
3E218347,
80464000,
3E401990,
4621003E,
21834780,
4640003E,
40199046,
21003E21,
83478046,
40003E40,
19904621,
003E2181,
63804640,
003E400D,
90372101,
B0400001,
407F8161,
8037400D,
90452100,
4D21003E,
21834780,
4540004D,
40003E40,
19904521,
004D2100,
3E218347,
80454000,
4D40003E,
40199045,
21004D21,
003E2183,
47804540,
004D4000,
3E401990,
4521004D,
21003E21,
81638045,
40004D40,
003E400D,
90332101,
B0400001,
407F8161,
8033400D,
903C2100,
41210046,
21003A21,
8C3B803C,
40004140,
00464000,
3A405590,
332101B0,
40000140,
7F816180,
33400D90,
3C210041,
21004621,
003A218C,
3B803C40,
00414000,
4640003A,
40559037,
2101B040,
0001407F,
3D903E21,
3F432142,
45213F46,
213F4D21,
8C40803E,
40004340,
00464000,
4D400137,
40004540,
00FF2F00;