memory_initialization_radix=16;
memory_initialization_vector=
4D546864,
00000006,
00000001,
01E04D54,
726B0000,
3BBB00FF,
030E4772,
6965766F,
75735F4C,
61647930,
00FF5103,
045C1200,
FF580404,
02180800,
FF5902FE,
0000FF21,
010000C0,
0000B079,
0000C000,
00B0077F,
000A4000,
5B00005D,
0000904B,
3100FF59,
02FE0000,
FF210100,
00902431,
002B3100,
30318347,
804B4019,
904F3183,
47804F40,
19904D31,
00413181,
63804D40,
0D904F31,
8163804F,
400D9050,
31816380,
50400D90,
4D31810F,
80244000,
2B400030,
40304140,
244D400D,
904F3100,
3F318163,
804F400D,
904D3181,
63804D40,
0D904B31,
8163804B,
400D904A,
31813F80,
3F40244A,
400D904B,
31003E31,
8347804B,
40199048,
31832F80,
3E401848,
4019904B,
31003031,
003C3187,
0F804B40,
00304000,
3C403190,
4B31004F,
31003F31,
8163803F,
400D903E,
31815780,
4B40004F,
400C3E40,
0D905431,
00573100,
3C318163,
803C400D,
903F3181,
57805440,
0057400C,
3F400D90,
4A31004E,
31003E31,
8163803E,
400D903C,
31815780,
4A40004E,
400C3C40,
0D905231,
00563100,
3A318163,
803A400D,
903E3181,
57805240,
0056400C,
3E400D90,
4231004A,
31003C31,
8163803C,
400D903A,
31815780,
4240004A,
400C3A40,
0D905131,
00543100,
39318347,
80514000,
54400039,
40199052,
40005640,
005E4000,
1F40002B,
40816380,
52400056,
40005E40,
0D905140,
005D4081,
57801F40,
002B400C,
5140005D,
400D904F,
40005B40,
001F4081,
63804F40,
005B4000,
1F400D90,
4A400056,
40002B40,
8163804A,
40005640,
002B400D,
90464000,
5240002E,
40816380,
2E400D90,
2B408157,
80464000,
52400C2B,
400D9052,
40005E40,
00264081,
63802640,
0D902240,
81578052,
40005E40,
0C22400D,
90514000,
5640005D,
40001E40,
002A4083,
47801E40,
002A4019,
901E4081,
63801E40,
0D902A40,
813F8051,
40005640,
005D4024,
2A400D90,
5140005D,
40003240,
81638051,
40005D40,
0032400D,
904F4000,
5B400026,
40816380,
4F40005B,
40002640,
0D904E40,
005A4000,
2D408163,
802D400D,
90324081,
57804E40,
005A400C,
32400D90,
4A400056,
40002240,
002E4083,
47804A40,
00564000,
2240002E,
40199046,
42005242,
00224281,
63804640,
00524000,
22400D90,
4A430056,
43003243,
8163804A,
40005640,
0032400D,
904D4400,
59440035,
44816380,
35400D90,
32458157,
804D4000,
59400C32,
400D9050,
46005C46,
002E4681,
63802E40,
0D902947,
81578050,
40005C40,
0C29400D,
904F4800,
5348005B,
48002348,
002F4883,
47802340,
002F4019,
903B4A81,
63803B40,
0D90354B,
813F804F,
40005340,
005B4024,
35400D90,
4D4C0053,
4C00594C,
00324C81,
63803240,
0D902F4D,
8163802F,
400D9029,
4E816380,
29400D90,
264F813F,
804D4000,
53400059,
40242640,
0D904B50,
00575000,
24500030,
50816380,
4B400057,
400D904A,
50005650,
81578024,
40003040,
0C4A4000,
56400D90,
48500054,
50002450,
81638048,
40005440,
0024400D,
904B5000,
5750002B,
50816380,
4B400057,
40002B40,
0D904F50,
005B5000,
30508163,
8030400D,
902B5081,
57804F40,
005B400C,
2B400D90,
4B500057,
50003050,
81638030,
400D9033,
50815780,
4B400057,
400C3340,
0D904C50,
00555000,
58500025,
50003150,
8347804C,
40005540,
00584000,
25400031,
40199045,
54005154,
00255481,
63802540,
0D903156,
81578045,
40005140,
0C31400D,
90495800,
55580034,
58816380,
49400055,
40003440,
0D904C5A,
00585A00,
2C5A8163,
804C4000,
5840002C,
400D9051,
5C005D5C,
00315C81,
63803140,
0D90345E,
81578051,
40005D40,
0C34400D,
904F7F00,
567F005B,
7F002660,
002B6000,
32608163,
802B400D,
902D6081,
63802D40,
0D324000,
90326081,
70376081,
63803740,
0D903960,
81638039,
400D903E,
60816380,
3E400D90,
43608163,
8043400D,
90456081,
0F802640,
00324054,
45400C4F,
40005640,
01904F60,
00566000,
4A608163,
804A400D,
90456081,
63804540,
0D904360,
81638043,
400D903E,
60813F80,
5B40004F,
40005640,
243E400D,
904F7F00,
567F005B,
7F003960,
81638039,
400D9037,
60816380,
37400D90,
32608163,
8032400D,
902D6081,
63802D40,
0C4F4000,
5640005B,
4001904E,
7F00567F,
005A7F00,
2660002A,
60003260,
8163802A,
400D902D,
60816380,
2D400D32,
40009032,
60817036,
60816380,
36400D90,
39608163,
8039400D,
903E6081,
63803E40,
0D904260,
81638042,
400D9045,
60810F80,
26400032,
40544540,
0D904A60,
8163804A,
400D9045,
60816380,
45400D90,
42608163,
8042400D,
903E6081,
63803E40,
0D903960,
81638039,
400D9036,
60816380,
36400D90,
32608163,
8032400D,
902D6081,
0F804E40,
00564000,
5A40542D,
400D901A,
50001C50,
001D5000,
1F500021,
50002350,
00245000,
26509C3F,
801A4000,
1C40001D,
40001F40,
00214000,
23400024,
40002640,
8141FF59,
02FE0000,
902E4000,
32400037,
4000FF59,
02FE0000,
901F4000,
2640002B,
40816380,
2E400032,
40003740,
836D9032,
40003640,
00394081,
63803240,
00364000,
3940836D,
90324000,
3740003A,
40816380,
32400037,
40003A40,
836D9032,
40003640,
00394081,
63803240,
00364000,
3940825C,
1F400026,
40002B40,
81119032,
40003740,
003A4000,
1F40002B,
40816380,
32400037,
40003A40,
001F4000,
2B40817D,
90364000,
3940003C,
40816380,
36400039,
40003C40,
817D902E,
40003240,
00374000,
1F400026,
40002B40,
8163802E,
40003240,
00374083,
6D903240,
00364000,
39408163,
80324000,
36400039,
40836D90,
32400037,
40003A40,
81638032,
40003740,
003A4083,
6D903240,
00364000,
39408163,
80324000,
36400039,
40825C1F,
40002640,
002B4081,
11903240,
00374000,
3A40001F,
40002B40,
81638032,
40003740,
003A4000,
1F40002B,
400D901F,
40002B40,
8163801F,
40002B40,
0D902D40,
00324000,
3640001F,
40002B40,
8163802D,
40003240,
00364000,
1F40002B,
40817D90,
2E400032,
40003740,
001F4000,
2640002B,
40816380,
2E400032,
40003740,
836D9032,
40003640,
00394081,
63803240,
00364000,
3940836D,
90324000,
3740003A,
40816380,
32400037,
40003A40,
836D9032,
40003640,
00394081,
63803240,
00364000,
3940825C,
1F400026,
40002B40,
81119032,
40003740,
003A4000,
1F40002B,
40816380,
32400037,
40003A40,
001F4000,
2B40817D,
90364000,
3940003C,
40001F40,
002B4081,
63803640,
00394000,
3C40001F,
40002B40,
817D9037,
40003A40,
003E4000,
1F400026,
40002B40,
81638037,
40003A40,
003E4083,
6D903640,
00394000,
3C408163,
80364000,
3940003C,
40836D90,
3740003A,
40003E40,
81638037,
40003A40,
003E4083,
6D903640,
00394000,
3C408163,
80364000,
3940003C,
40825C1F,
40002640,
002B4081,
11903740,
003A4000,
3E40001F,
40002B40,
81638037,
40003A40,
003E4000,
1F40002B,
400D901F,
40002B40,
8163801F,
40002B40,
0D903740,
003A4000,
3E40001F,
40002B40,
81638037,
40003A40,
003E4000,
1F40002B,
40817D90,
3A50003E,
50004350,
001F5000,
2650002B,
50816380,
3A40003E,
40004340,
81641F40,
00264000,
2B401990,
1F508170,
3E500042,
50004550,
002B5081,
63803E40,
00424000,
45408158,
1F400C2B,
4019901F,
5081703E,
50004350,
00465000,
2B508163,
803E4000,
43400046,
4081581F,
400C2B40,
19901F50,
81703E50,
00425000,
4550002B,
50816380,
3E400042,
40004540,
81581F40,
0C2B4019,
901F5081,
703E5000,
43500046,
50002B50,
8163803E,
40004340,
00464081,
581F400C,
2B401990,
42500045,
50004850,
001F5000,
2B508163,
80424000,
45400048,
4081641F,
40002B40,
19903A50,
003E5000,
4350001F,
50002650,
002B5081,
63803A40,
003E4000,
43408164,
1F400026,
40002B40,
19901F50,
81703E50,
00425000,
4550002B,
50816380,
3E400042,
40004540,
81581F40,
0C2B4019,
901F5081,
703E5000,
43500046,
50002B50,
8163803E,
40004340,
00464081,
581F400C,
2B401990,
1F508170,
3E500042,
50004550,
002B5081,
63803E40,
00424000,
45408158,
1F400C2B,
4019901F,
5081703E,
50004350,
00465000,
2B508157,
801F400C,
3E400043,
40004640,
002B400D,
901F5000,
2B508163,
801F4000,
2B400D90,
3950003E,
50004250,
001F5000,
2B508163,
80394000,
3E400042,
4081641F,
40002B40,
19903A50,
003E5000,
4350001F,
50002650,
002B5081,
63803A40,
003E4000,
43408164,
1F400026,
40002B40,
19901F54,
81703E56,
00425600,
4556002B,
56816380,
3E400042,
40004540,
81581F40,
0C2B4019,
901F5A81,
703E5C00,
435C0046,
5C002B5C,
8163803E,
40004340,
00464081,
581F400C,
2B401990,
1F618170,
3E630042,
63004563,
002B6381,
63803E40,
00424000,
45408158,
1F400C2B,
4019901F,
6781703E,
69004369,
00466900,
2B698163,
803E4000,
43400046,
4081581F,
400C2B40,
1990426D,
00456D00,
486D001F,
6D002B6D,
81638042,
40004540,
00484081,
641F4000,
2B401990,
3E700043,
70004670,
004A7000,
1F700026,
70002B70,
8163803E,
40004340,
00464000,
4A408164,
1F400026,
40002B40,
19901F70,
81703C70,
00427000,
45700048,
70002B70,
8163803C,
40004240,
00454000,
48408158,
1F400C2B,
4019901F,
7081703E,
70004370,
00467000,
4A70002B,
70816380,
3E400043,
40004640,
004A4081,
581F400C,
2B401990,
42700045,
70004A70,
004E7000,
1A700026,
70834780,
42400045,
40004A40,
004E4083,
79904370,
00467000,
4A70004F,
70834780,
43400046,
40004A40,
004F4019,
90427000,
4570004A,
70004E70,
827F801A,
40002640,
48424000,
4540004A,
40004E40,
19FF5902,
FD000090,
43700046,
70004A70,
004F7000,
FF5902FD,
0000901F,
70002B70,
83478043,
40004640,
004A4000,
4F40001F,
40002B40,
1990605E,
001F5E00,
2B5E7180,
60400790,
5F5E7180,
5F400790,
5E5E8157,
801F4000,
2B400C5E,
400D905F,
5E001F5E,
002B5E71,
805F4007,
905E5E71,
805E4007,
905D5E81,
57801F40,
002B400C,
5D400D90,
5E5E001F,
5E002B5E,
71805E40,
07905D5E,
71805D40,
07905C5E,
8157801F,
40002B40,
0C5C400D,
905D5E00,
1F5E002B,
5E71805D,
4007905C,
5E71805C,
4007905B,
5E815780,
1F40002B,
400C5B40,
0D905C5E,
001F5E00,
2B5E7180,
5C400790,
5B5E7180,
5B400790,
5A5E8157,
801F4000,
2B400C5A,
400D905B,
5E001F5E,
002B5E71,
805B4007,
905A5E71,
805A4007,
90595E81,
57801F40,
002B400C,
59400D90,
5A5E001F,
5E002B5E,
71805A40,
0790595E,
6B801F40,
002B4006,
59400790,
585E001F,
5E002B5E,
81638058,
40001F40,
002B400D,
90437000,
4670004A,
70004F70,
001F7000,
2B708347,
80434000,
4640004A,
40004F40,
001F4000,
2B401990,
3A5E001F,
5E002B5E,
71803A40,
07903E5E,
71803E40,
0790435E,
71804340,
0790465E,
5F801F40,
002B4012,
46400790,
465E001F,
5E002B5E,
71804640,
07904A5E,
71804A40,
07904F5E,
71804F40,
0790525E,
5F801F40,
002B4012,
52400790,
525E001F,
5E002B5E,
71805240,
0790565E,
71805640,
07905B5E,
71805B40,
07905E5E,
5F801F40,
002B4012,
5E400790,
4F5E001F,
5E002B5E,
71804F40,
0790435E,
71804340,
0790435E,
71804340,
0790435E,
5F801F40,
002B4012,
43400790,
435E001F,
5E002B5E,
71804340,
0790435E,
71804340,
0790435E,
71804340,
0790435E,
5F801F40,
002B4012,
43400790,
44700047,
70004B70,
00507000,
1F70002B,
70816380,
44400047,
40004B40,
00504000,
1F40002B,
400D9043,
5E001F5E,
002B5E71,
80434007,
90435E71,
80434007,
90435E71,
80434007,
90435E5F,
801F4000,
2B401243,
40079043,
5E001F5E,
002B5E71,
80434007,
90435E6B,
801F4000,
2B400643,
40079043,
70004670,
004A7000,
4F70001F,
70002B70,
83478043,
40004640,
004A4000,
4F40001F,
40002B40,
1990605E,
001F5E00,
2B5E7180,
60400790,
5F5E7180,
5F400790,
5E5E8157,
801F4000,
2B400C5E,
400D905F,
5E001F5E,
002B5E71,
805F4007,
905E5E71,
805E4007,
905D5E81,
57801F40,
002B400C,
5D400D90,
5E5E001F,
5E002B5E,
71805E40,
07905D5E,
71805D40,
07905C5E,
8157801F,
40002B40,
0C5C400D,
905D5E00,
1F5E002B,
5E71805D,
4007905C,
5E71805C,
4007905B,
5E815780,
1F40002B,
400C5B40,
0D905C5E,
001F5E00,
2B5E7180,
5C400790,
5B5E6B80,
1F40002B,
40065B40,
07905A5E,
001F5E00,
2B5E8163,
805A4000,
1F40002B,
400D905B,
5E001F5E,
002B5E71,
805B4007,
905A5E6B,
801F4000,
2B40065A,
40079059,
5E002B5E,
71802B40,
07901F5E,
6B805940,
061F4007,
905A5E00,
2B5E7180,
5A40002B,
40079059,
5E001F5E,
71805940,
001F4007,
90585E00,
1F5E002B,
5E816380,
5840001F,
40002B40,
0D904370,
00467000,
4A70004F,
70001F70,
002B7083,
47804340,
00464000,
4A40004F,
40001F40,
002B4019,
90375E00,
1F5E002B,
5E718037,
4007903E,
5E71803E,
40079043,
5E718043,
4007903E,
5E5F801F,
40002B40,
123E4007,
90375E00,
1F5E002B,
5E718037,
4007903E,
5E71803E,
40079043,
5E718043,
4007903E,
5E5F801F,
40002B40,
123E4007,
90375E00,
1F5E002B,
5E718037,
4007903E,
5E71803E,
40079043,
5E718043,
4007903E,
5E5F801F,
40002B40,
123E4007,
90565E00,
1F5E002B,
5E1C8056,
40039054,
5E1C8054,
40049053,
5E1C8053,
40059051,
5E1C8051,
4003904F,
5E1C804F,
4004904D,
5E1C804D,
4005904C,
5E1C804C,
4003904A,
5E1C804A,
40049048,
5E1C8048,
40059047,
5E1C8047,
40039045,
5E1C8045,
40049043,
5E1C8043,
40059041,
5E1C8041,
40039040,
5E1C8040,
4004903E,
5E08801F,
40002B40,
143E4005,
903C5E00,
1F5E002B,
5E816380,
3C400D90,
545E0E80,
54400290,
535E0E80,
53400390,
515E0E80,
51400490,
4F5E0E80,
4F400290,
4D5E0E80,
4D400390,
4C5E0E80,
4C400490,
4A5E1080,
4A400290,
485E5F80,
1F40002B,
40124840,
07904470,
00477000,
4B700050,
70001F70,
002B7081,
63801F40,
002B400D,
901F5E00,
2B5E8157,
80444000,
4740004B,
40005040,
0C1F4000,
2B400D90,
565E001F,
5E002B5E,
12805640,
0290545E,
12805440,
0490535E,
12805340,
0290515E,
12805140,
04904F5E,
12804F40,
02904D5E,
12804D40,
04904C5E,
12804C40,
02904A5E,
12804A40,
0490485E,
12804840,
0290475E,
12804740,
0490455E,
11801F40,
002B400A,
45400390,
435E001F,
5E002B5E,
81638043,
40001F40,
002B400D,
90437000,
4670004A,
70004F70,
81701F5E,
002B5E81,
57804340,
00464000,
4A40004F,
400C1F40,
002B400D,
90635E00,
1F5E002B,
5E718063,
40079062,
5E718062,
40079061,
5E815780,
1F40002B,
400C6140,
0D90625E,
001F5E00,
2B5E7180,
62400790,
615E7180,
61400790,
605E8157,
801F4000,
2B400C60,
400D9061,
5E001F5E,
002B5E71,
80614007,
90605E71,
80604007,
905F5E81,
57801F40,
002B400C,
5F400D90,
605E001F,
5E002B5E,
71806040,
07905F5E,
71805F40,
07905E5E,
8157801F,
40002B40,
0C5E400D,
905F5E00,
1F5E002B,
5E71805F,
4007905E,
5E71805E,
4007905D,
5E815780,
1F40002B,
400C5D40,
0D905E5E,
001F5E00,
2B5E7180,
5E400790,
5D5E6B80,
1F40002B,
40065D40,
07905C5E,
001F5E00,
2B5E7180,
1F40002B,
4007901F,
5E002B5E,
6B805C40,
0D905D5E,
71805D40,
07905C5E,
65801F40,
002B400C,
5C400790,
5B5E001F,
5E002B5E,
8163805B,
40001F40,
002B400D,
90437000,
4670004A,
70004F70,
001F7000,
2B708347,
80434000,
4640004A,
40004F40,
001F4000,
2B401990,
375E001F,
5E002B5E,
71803740,
07903A5E,
71803A40,
07903E5E,
71803E40,
0790435E,
5F801F40,
002B4012,
43400790,
435E001F,
5E002B5E,
71804340,
0790465E,
6B801F40,
002B4006,
46400790,
4A5E001F,
5E002B5E,
71804A40,
07904F5E,
6B801F40,
002B4006,
4F400790,
4F5E001F,
5E002B5E,
71804F40,
0790525E,
6B801F40,
002B4006,
52400790,
565E001F,
5E002B5E,
71805640,
07905B5E,
6B801F40,
002B4006,
5B400790,
4F5E001F,
5E002B5E,
71804F40,
0790435E,
71804340,
0790435E,
71804340,
0790435E,
5F801F40,
002B4012,
43400790,
435E001F,
5E002B5E,
71804340,
0790435E,
71804340,
0790435E,
71804340,
0790435E,
5F801F40,
002B4012,
43400790,
4A5E001F,
5E002B5E,
71804A40,
0790435E,
6B801F40,
002B4006,
43400790,
435E001F,
5E002B5E,
71804340,
0790435E,
6B801F40,
002B4006,
43400790,
44700047,
70004B70,
00507000,
1F70002B,
70816380,
1F40002B,
400D901F,
5E002B5E,
81578044,
40004740,
004B4000,
50400C1F,
40002B40,
0D904370,
00467000,
4A70004F,
7081701F,
5E002B5E,
81578043,
40004640,
004A4000,
4F400C1F,
40002B40,
0D90435E,
001F5E00,
2B5E8347,
80434000,
1F40002B,
40199044,
5E001F5E,
002B5E83,
47804440,
001F4000,
2B401990,
415E001F,
5E002B5E,
83478041,
40001F40,
002B4019,
90435E00,
1F5E002B,
5E834780,
4340001F,
40002B40,
19904362,
001F6200,
2B628347,
80434000,
1F40002B,
40199043,
67001F67,
002B6781,
63804340,
001F4000,
2B400D90,
4669001F,
69002B69,
81638046,
40001F40,
002B400D,
90446B00,
1F6B002B,
6B816380,
4440001F,
40002B40,
0D90416D,
001F6D00,
2B6D8163,
80414000,
1F40002B,
400D9043,
70004F70,
001F7000,
2B708347,
80434000,
4F40001F,
40002B40,
19904470,
00507083,
47804440,
00504019,
90457000,
5170001F,
70002B70,
83478045,
40005140,
001F4000,
2B401990,
46700052,
70834780,
46400052,
4019904B,
70005770,
001F7000,
2B708347,
804B4000,
5740001F,
40002B40,
19904A70,
00567083,
47804A40,
00564019,
904A7000,
56708163,
804A4000,
56400D90,
4B700057,
70816380,
4B400057,
400D904C,
70005870,
8163804C,
40005840,
0D904E70,
005A7081,
63804E40,
005A400D,
904F7000,
5670005B,
70001F70,
002B7083,
47804F40,
00564000,
5B40001F,
40002B40,
19904F70,
00567000,
5B70001F,
70002B70,
8347804F,
40005640,
005B4000,
1F40002B,
40199050,
70005670,
005C7000,
1F70002B,
70834780,
50400056,
40005C40,
001F4000,
2B401990,
4D700056,
70005970,
001F7000,
2B708347,
804D4000,
56400059,
40001F40,
002B4019,
904F7000,
5670005B,
70001F70,
002B7083,
47804F40,
00564000,
5B40001F,
40002B40,
19904F70,
00567000,
5B70001F,
70002B70,
8347804F,
40005640,
005B4000,
1F40002B,
4019904F,
70005670,
005B7000,
1F70002B,
70816380,
4F400056,
40005B40,
0D905270,
005E7081,
57801F40,
002B400C,
5240005E,
400D9050,
70005C70,
001F7000,
2B708163,
80504000,
5C40001F,
40002B40,
0D904D70,
00597000,
1F70002B,
70816380,
4D400059,
40001F40,
002B400D,
904F7000,
5670005B,
70001F70,
002B7083,
47804F40,
00564000,
5B40001F,
40002B40,
19904F70,
00567000,
5B70001F,
70002B70,
8347804F,
40005640,
005B4000,
1F40002B,
40199050,
70005670,
005C7000,
1F70002B,
70834780,
50400056,
40005C40,
001F4000,
2B401990,
4D700056,
70005970,
002B7071,
802B4007,
901F7071,
801F4007,
902B7071,
802B4007,
901F705F,
804D4000,
56400059,
40121F40,
07904F70,
00567000,
5B70001F,
70002B70,
8347804F,
40005640,
005B4000,
1F40002B,
4019904A,
70004F70,
00567000,
1F70002B,
70816380,
4A40004F,
40005640,
001F4000,
2B400D90,
4F70005B,
70001F70,
002B7081,
63804F40,
005B4000,
1F40002B,
400D904E,
70005670,
005A7000,
1F70002B,
70834780,
4E400056,
40005A40,
001F4000,
2B401990,
4A70004F,
70005670,
001F7000,
2B708163,
801F4000,
2B400D90,
1F70002B,
70815780,
4A40004F,
40005640,
0C1F4000,
2B400D90,
4F700056,
70005B70,
001F7000,
2B708347,
804F4000,
5640005B,
40001F40,
002B4019,
904F7000,
5670005B,
70001F70,
002B7083,
47804F40,
00564000,
5B40001F,
40002B40,
19905070,
00567000,
5C70001F,
70002B70,
83478050,
40005640,
005C4000,
1F40002B,
4019904D,
70005670,
00597000,
1F70002B,
70834780,
4D400056,
40005940,
001F4000,
2B401990,
4F700056,
70005B70,
001F7000,
2B708347,
804F4000,
5640005B,
40001F40,
002B4019,
904F7000,
5670005B,
70001F70,
002B7083,
47804F40,
00564000,
5B40001F,
40002B40,
19904F70,
00567000,
5B70001F,
70002B70,
8163804F,
40005640,
005B4000,
1F40002B,
400D9052,
70005E70,
001F7000,
2B708163,
80524000,
5E40001F,
40002B40,
0D905070,
005C7000,
1F70002B,
70816380,
5040005C,
40001F40,
002B400D,
904D7000,
5970001F,
70002B70,
8163804D,
40005940,
001F4000,
2B400D90,
4F700056,
70005B70,
001F7000,
2B708163,
801F4000,
2B400D90,
1F70002B,
70815780,
4F400056,
40005B40,
0C1F4000,
2B400D90,
50700056,
70005C70,
001F7000,
2B708347,
80504000,
5640005C,
40001F40,
002B4019,
90517000,
5670005D,
70001F70,
002B7083,
47805140,
00564000,
5D40001F,
40002B40,
19905270,
00567000,
5E70001F,
70002B70,
8163801F,
40002B40,
0D901F70,
002B7081,
57805240,
00564000,
5E400C1F,
40002B40,
0D905770,
005B7000,
6370001F,
70002B70,
8163801F,
40002B40,
0D902B70,
71802B40,
07901F70,
5F805740,
005B4000,
6340121F,
40079056,
70005B70,
00627000,
1F70002B,
70834780,
5640005B,
40006240,
001F4000,
2B401990,
56700062,
70002B70,
71802B40,
07901F70,
6B805640,
00624006,
1F400790,
57700063,
70002B70,
71802B40,
07901F70,
6B805740,
00634006,
1F400790,
58700064,
70002B70,
71802B40,
07901F70,
6B805840,
00644006,
1F400790,
5A700066,
70002B70,
71802B40,
07901F70,
6B805A40,
00664006,
1F400790,
5B70005E,
70006270,
00677000,
1F70002B,
70834780,
1F40002B,
4019901F,
5E002B5E,
8347801F,
40002B40,
19901F54,
002B5483,
47801F40,
002B4019,
901F4300,
2B438347,
801F4000,
2B401990,
1F32002B,
32834780,
1F40002B,
4019901F,
21002B21,
8347801F,
40002B40,
19901F21,
002B2183,
47801F40,
002B4019,
901F2100,
2B21821F,
805B4000,
5E400062,
40006740,
81281F40,
002B4019,
FF5902FE,
0000903E,
40004340,
00464000,
FF5902FE,
00009037,
40834780,
37401990,
3A40832F,
803E4000,
43400046,
40183A40,
19903940,
81704540,
81578039,
400C4540,
0D904640,
003A4083,
47804640,
003A4019,
90414000,
45400048,
40002D40,
8163802D,
400D9035,
40816380,
35400D90,
3C408163,
803C400D,
90354081,
3F804140,
00454000,
48402435,
400D9041,
40003940,
81638039,
400D9035,
40815780,
41400C35,
400D904D,
40003540,
8347804D,
40003540,
19904140,
00464000,
4840004B,
40002E40,
8347802E,
4019903E,
40814B80,
41400046,
40004840,
004B4018,
3E400D90,
4A40003A,
40834780,
3A401990,
3540814B,
804A4018,
35400D90,
4840003E,
40816380,
3E400D90,
3A408157,
8048400C,
3A400D90,
41400043,
40004740,
002F4081,
63802F40,
0D903540,
81638035,
400D903B,
40816380,
3B400D90,
3540813F,
80414000,
43400047,
40243540,
0D904740,
003E4081,
63804740,
0D904840,
81638048,
400D904A,
40832F80,
3E40184A,
40199043,
40004840,
004B4000,
30408163,
8030400D,
90374081,
63803740,
0D903C40,
8163803C,
400D9037,
40813F80,
43400048,
40004B40,
2437400D,
90484000,
3F408163,
80484000,
3F400D90,
4B400037,
40816380,
4B400037,
400D904F,
40003C40,
8347804F,
40003C40,
19904140,
00464000,
4A40002E,
40816380,
2E400D90,
35408163,
8035400D,
903A4081,
4B804140,
00464000,
4A40183A,
400D9046,
40003540,
81638035,
400D903E,
40816380,
3E400D90,
3540814B,
80464018,
35400D90,
4A40003A,
40816380,
3A400D90,
35408157,
804A400C,
35400D90,
40400045,
40004940,
002D4081,
63802D40,
0D903140,
81638031,
400D9034,
40814B80,
40400045,
40004940,
1834400D,
90454000,
37408163,
8037400D,
90394081,
63803940,
0D903D40,
814B8045,
40259043,
40833B80,
3D400C43,
4019903E,
40004340,
00264000,
32408163,
80264000,
32400D90,
2D408157,
803E4000,
43400C2D,
400D9045,
40003240,
81638032,
400D902D,
40815780,
45400C2D,
400D9042,
40003940,
81638039,
400D9036,
40816380,
36400D90,
3240832F,
80424018,
32401990,
4660004A,
60004F60,
00526000,
2B400037,
40834780,
2B400037,
4019903A,
40834780,
3A401846,
40004A40,
004F4000,
52400190,
4340004F,
40003940,
81638043,
40004F40,
0D904540,
00514081,
57803940,
0C454000,
51400D90,
46400052,
40003A40,
83478046,
40005240,
003A4019,
90484000,
4D400051,
40005440,
002D4000,
39408163,
802D4000,
39400D90,
35408163,
8035400D,
903C4081,
63803C40,
0D903540,
813F8048,
40004D40,
00514000,
54402435,
400D9048,
40004D40,
00514000,
39408163,
8039400D,
90354081,
57804840,
004D4000,
51400C35,
400D904D,
40005440,
00594000,
3C408163,
803C400D,
90354081,
57804D40,
00544000,
59400C35,
400D904B,
40005240,
00544000,
5740002E,
40003A40,
8347802E,
40003A40,
19903E40,
814B804B,
40005240,
00544000,
5740183E,
400D904A,
40004D40,
00564000,
3A408347,
803A4019,
90354081,
4B804A40,
004D4000,
56401835,
400D9048,
40004D40,
00544000,
3E408163,
803E400D,
903A4081,
57804840,
004D4000,
54400C3A,
400D9047,
40004D40,
004F4000,
5340002F,
40003B40,
8163802F,
40003B40,
0D903544,
81638035,
400D903B,
48816380,
3B400D90,
354C813F,
80474000,
4D40004F,
40005340,
2435400D,
90475000,
5350003E,
50816380,
47400053,
400D9048,
54005454,
81638048,
40005440,
0D904A58,
00565883,
2F803E40,
184A4000,
56401990,
4B60004F,
60005460,
00576000,
24600030,
60816380,
30400D90,
37608163,
8037400D,
903C6081,
63803C40,
0D903760,
813F804B,
40004F40,
00544000,
57402437,
400D9048,
60005460,
003F6081,
63804840,
00544000,
3F400D90,
4A600056,
60003760,
8163804A,
40005640,
0037400D,
904B6000,
57600037,
60827F80,
2440484B,
40005740,
00374019,
904F6000,
55600058,
60005B60,
00256000,
31608163,
8031400D,
90376281,
63803740,
0D903D64,
8163803D,
400D9037,
66813F80,
4F400055,
40005840,
005B4024,
37400D90,
49680055,
68004068,
81638049,
40005540,
0040400D,
904C6A00,
586A003D,
6A816380,
4C400058,
40003D40,
0D904F6C,
005B6C00,
376C827F,
80254048,
4F40005B,
40003740,
19904F7F,
00517F00,
567F005B,
7F002670,
81702D70,
8163802D,
400D9032,
70816380,
32400D90,
37708163,
8037400D,
90397081,
63803940,
0D903770,
81638037,
400D903E,
70827F80,
2640483E,
40184F40,
00514000,
5640005B,
40019051,
7F00567F,
005A7F00,
5D7F0026,
7081702D,
70816380,
2D400D90,
32708163,
8032400D,
90367081,
63803640,
0D903970,
81638039,
400D903E,
70816380,
3E400D90,
39708163,
8039400D,
90327081,
0F802640,
5432400C,
51400056,
40005A40,
005D4001,
90547F00,
567F005B,
7F00607F,
00267081,
702D7081,
63802D40,
0D903270,
81638032,
400D9037,
70816380,
37400D90,
39708163,
8039400D,
90377081,
63803740,
0D903E70,
827F8026,
40483E40,
18544000,
5640005B,
40006040,
0190567F,
005A7F00,
5D7F0062,
7F002670,
81702D70,
8163802D,
400D9032,
70816380,
32400D90,
36708163,
8036400D,
90397081,
63803940,
0D903E70,
8163803E,
400D9039,
70816380,
39400D90,
3270810F,
80264054,
32400C56,
40005A40,
005D4000,
62400190,
3E500043,
50004650,
001F7800,
2678002B,
78816380,
3E400043,
40004640,
836D903E,
50004250,
00455081,
63803E40,
00424000,
4540836D,
903E5000,
43500046,
50816380,
3E400043,
40004640,
836D903E,
50004250,
00455081,
63803E40,
00424000,
4540833C,
1F400026,
40002B40,
31903E50,
00435000,
4650001F,
50002B50,
8163803E,
40004340,
00464000,
1F40002B,
40817D90,
3E500045,
50004850,
001F5000,
2B508163,
803E4000,
45400048,
40001F40,
002B4081,
7D903E50,
00435000,
4650001F,
78002678,
002B7881,
63803E40,
00434000,
4640836D,
903E5000,
42500045,
50816380,
3E400042,
40004540,
836D903E,
50004350,
00465081,
63803E40,
00434000,
4640836D,
903E5000,
42500045,
50816380,
3E400042,
40004540,
833C1F40,
00264000,
2B403190,
3E500043,
50004650,
001F5000,
2B508163,
803E4000,
43400046,
40001F40,
002B4081,
7D903E50,
00455000,
4850001F,
50002B50,
8163803E,
40004540,
00484000,
1F40002B,
40817D90,
3A60003E,
60004360,
00466000,
1F60002B,
60816380,
3A40003E,
40004340,
00464081,
641F4000,
2B401990,
3B60003F,
60004460,
00476000,
1F60002B,
60816380,
3B40003F,
40004440,
00474081,
641F4000,
2B401990,
3C600040,
60004560,
00486000,
1F60002B,
60816380,
3C400040,
40004540,
00484081,
641F4000,
2B401990,
3D600041,
60004660,
00496000,
1F60002B,
60816380,
3D400041,
40004640,
00494081,
641F4000,
2B401990,
3E600041,
60004760,
004A6000,
1F60002B,
60816380,
3E400041,
40004740,
004A4000,
1F40002B,
400D903F,
62004262,
00486200,
4B62001F,
62002B62,
8163803F,
40004240,
00484000,
4B40001F,
40002B40,
0D904064,
00436400,
4964004C,
64001F64,
002B6481,
63804040,
00434000,
4940004C,
40001F40,
002B400D,
90416600,
4466004A,
66004D66,
001F6600,
2B668163,
80414000,
4440004A,
40004D40,
001F4000,
2B400D90,
42680045,
68004B68,
004E6800,
1F7F7780,
1F400190,
2B7F6B80,
42400045,
40004B40,
004E400C,
2B400190,
436A0046,
6A004C6A,
004F6A00,
1F7F7780,
1F400190,
2B7F6B80,
43400046,
40004C40,
004F400C,
2B400190,
446C0047,
6C004D6C,
00506C00,
1F7F7780,
1F400190,
2B7F6B80,
44400047,
40004D40,
0050400C,
2B400190,
456E0048,
6E004E6E,
00516E00,
1F7F7780,
1F400190,
2B7F6B80,
45400048,
40004E40,
0051400C,
2B408361,
90267000,
2B708347,
80264000,
2B401990,
2670002B,
70816380,
2640002B,
400D9026,
70002B70,
81638026,
40002B40,
0D902670,
002B7083,
47802640,
002B4019,
901A7000,
26708268,
4A707180,
4A400790,
4F707180,
4F400790,
52707180,
52400790,
56705A80,
56400690,
5B705A80,
5B400690,
5E705A80,
5E400690,
62705A80,
62400690,
67705A80,
67400690,
6A70846F,
801A4000,
26403C6A,
40259046,
70004F70,
00527000,
1F7F002B,
7F816380,
4640004F,
40005240,
817C1F40,
002B4001,
901F7081,
63801F40,
0D904A70,
00527000,
5670002E,
70816380,
4A400052,
40005640,
002E400D,
901F7081,
63801F40,
0D902E70,
8163802E,
400D9046,
70004F70,
00527000,
1F708163,
80464000,
4F400052,
40001F40,
0D902E70,
8163802E,
400D9048,
70005170,
00547000,
21708163,
80484000,
51400054,
40002140,
0D903070,
81638030,
400D9021,
70816380,
21400D90,
4570004E,
70005170,
00307081,
63804540,
004E4000,
51400030,
400D9021,
70816380,
21400D90,
30708163,
8030400D,
90487000,
51700054,
70002170,
81638048,
40005140,
00544000,
21400D90,
30708163,
8030400D,
90477000,
4F700053,
70002370,
81638047,
40004F40,
00534000,
23400D90,
32708163,
8032400D,
90237081,
63802340,
0D904A70,
00537000,
56700032,
70816380,
4A400053,
40005640,
0032400D,
90237081,
63802340,
0D903270,
81638032,
400D904D,
70005670,
00597000,
2370002F,
70816380,
4D400056,
40005940,
00234000,
2F400D90,
2F707180,
2F400790,
23707180,
23400790,
4B700054,
70005770,
00247000,
30708163,
804B4000,
54400057,
40816424,
40003040,
19903070,
00337081,
63803040,
0033400D,
90487000,
4F700054,
70002470,
00307081,
63804840,
004F4000,
54408164,
24400030,
40199030,
70003370,
81638030,
40003340,
0D904B70,
00547000,
57700024,
70816380,
4B400054,
40005740,
0024400D,
90337081,
63803340,
0D904F70,
00577000,
5B700024,
70816380,
4F400057,
40005B40,
0024400D,
90337081,
63803340,
0D902470,
81638024,
400D9048,
70004F70,
00547000,
33708163,
80484000,
4F400054,
40003340,
0D902470,
81638024,
400D9033,
70816380,
33400D90,
4F700057,
70005B70,
00247081,
63804F40,
00574000,
5B400024,
400D9033,
70816380,
33400D90,
4A700052,
70005670,
00227000,
2E708163,
804A4000,
52400056,
40816422,
40002E40,
19902E70,
00327081,
63802E40,
0032400D,
90467000,
4F700052,
70002270,
002E7081,
63804640,
004F4000,
52408164,
2240002E,
40199022,
70002E70,
81704A70,
00527000,
56708157,
80224000,
2E400C4A,
40005240,
0056400D,
902E7000,
32708163,
802E4000,
32400D90,
49700051,
70005570,
00217081,
63804940,
00514000,
55400021,
400D9031,
70816380,
31400D90,
21708163,
8021400D,
90457000,
4C700051,
70003170,
81638045,
40004C40,
00514000,
31400D90,
21708163,
8021400D,
90317081,
63803140,
0D904970,
00517000,
55700021,
70816380,
49400051,
40005540,
0021400D,
90317081,
63803140,
0D904A70,
00517000,
5670001E,
7F002A7F,
8163804A,
40005140,
0056400C,
1E40002A,
4001901E,
70816380,
1E400D90,
1E708163,
801E400D,
904A7000,
51700056,
70001E7F,
002A7F81,
63804A40,
00514000,
56400C1E,
40002A40,
01902A70,
71802A40,
07901E70,
71801E40,
07902A70,
71802A40,
07901E70,
71801E40,
07904E70,
00567000,
5A70002A,
7071802A,
4007901E,
706B804E,
40005640,
005A4006,
1E400790,
2A707180,
2A400790,
1E707180,
1E400790,
4670004F,
70005270,
81638046,
40004F40,
0052400D,
901F7000,
2B708163,
801F4000,
2B400D90,
1F70002B,
7081704A,
70005270,
00567081,
57801F40,
002B400C,
4A400052,
40005640,
0D901F70,
8163801F,
400D902E,
70816380,
2E400D90,
4670004F,
70005270,
001F7081,
63804640,
004F4000,
5240001F,
400D902E,
70816380,
2E400D90,
48700051,
70005470,
00217081,
63804840,
00514000,
54400021,
400D9030,
70816380,
30400D90,
21708163,
8021400D,
90457000,
4E700051,
70003070,
81638045,
40004E40,
00514000,
30400D90,
21708163,
8021400D,
90307081,
63803040,
0D904870,
00517000,
54700021,
70816380,
48400051,
40005440,
0021400D,
90307081,
63803040,
0D904770,
004F7000,
53700023,
70816380,
4740004F,
40005340,
0023400D,
90327081,
63803240,
0D902370,
81638023,
400D904A,
70005370,
00567000,
32708163,
804A4000,
53400056,
40003240,
0D902370,
81638023,
400D9032,
70816380,
32400D90,
4D700056,
70005970,
002F7071,
802F4007,
9023706B,
804D4000,
56400059,
40062340,
07902F70,
71802F40,
07902370,
71802340,
07904B70,
00547000,
57700024,
70816380,
4B400054,
40005740,
0024400D,
90337081,
63803340,
0D902470,
81638024,
400D9048,
70004F70,
00547000,
33708163,
80484000,
4F400054,
40003340,
0D902470,
81638024,
400D9033,
70816380,
33400D90,
4B700054,
70005770,
00247081,
63804B40,
00544000,
57400024,
400D9033,
70816380,
33400D90,
4F700057,
70005B70,
00247081,
63804F40,
00574000,
5B400024,
400D9033,
70816380,
33400D90,
24708163,
8024400D,
90487000,
4F700054,
70003370,
81638048,
40004F40,
00544000,
33400D90,
24708163,
8024400D,
90337081,
63803340,
0D904F70,
00577000,
5B700024,
70816380,
4F400057,
40005B40,
0024400D,
90337081,
63803340,
0D905270,
005B7000,
5E700022,
70816380,
5240005B,
40005E40,
0022400D,
90327081,
63803240,
0D902270,
81638022,
400D9051,
70005A70,
005D7000,
32708163,
80514000,
5A40005D,
40003240,
0D902270,
81638022,
400D9032,
70816380,
32400D90,
4F700056,
70005B70,
00227081,
63804F40,
00564000,
5B400022,
400D9032,
70816380,
32400D90,
5170005A,
70005D70,
001E7081,
63805140,
005A4000,
5D40001E,
400D902D,
70816380,
2D400D90,
1E708163,
801E400D,
90567000,
5D700062,
70002D70,
81638056,
40005D40,
00624000,
2D400D90,
1E708163,
801E400D,
902D7081,
63802D40,
0D905170,
005A7000,
5D70001E,
70816380,
5140005A,
40005D40,
001E400D,
904F7000,
5B70002D,
70816380,
4F40005B,
40002D40,
0D904E70,
00567000,
5A70001A,
7F00267F,
8163804E,
40005640,
005A400C,
1A400026,
4079904E,
70005670,
005A7000,
1A7F0026,
7F816380,
4E400056,
40005A40,
0C1A4000,
26407990,
4E700056,
70005A70,
001A7F00,
267F8163,
804E4000,
5640005A,
400C1A40,
00264081,
71905170,
005A7000,
5D70001A,
70002670,
81638051,
40005A40,
005D4000,
1A400026,
400D9051,
70005A70,
005D7000,
1A700026,
70816380,
5140005A,
40005D40,
001A4000,
26400D90,
5170005A,
70005D70,
00267071,
80264007,
901A706B,
80514000,
5A40005D,
40061A40,
07904670,
004A7000,
4F700052,
70816380,
4640004A,
40004F40,
0052400D,
901F7000,
2B708163,
801F4000,
2B400D90,
1F70002B,
7081704A,
70004F70,
00527000,
56708157,
801F4000,
2B400C4A,
40004F40,
00524000,
56400D90,
1F708163,
801F400D,
902B7000,
2E708163,
802B4000,
2E400D90,
4670004A,
70004F70,
00527000,
1F708163,
80464000,
4A40004F,
40005240,
001F400D,
902B7000,
2E708163,
802B4000,
2E400D90,
4870004E,
70005170,
00547000,
2170002D,
70816380,
4840004E,
40005140,
00544081,
64214000,
2D401990,
21708163,
8021400D,
90457000,
4870004E,
70005170,
002D7000,
30708163,
80454000,
4840004E,
40005140,
002D4000,
30400D90,
21708163,
8021400D,
902D7000,
30708163,
802D4000,
30400D90,
4870004E,
70005170,
00547000,
21708163,
80484000,
4E400051,
40005440,
0021400D,
902D7000,
30708163,
802D4000,
30400D90,
4770004A,
70004F70,
00537000,
2370002F,
70816380,
4740004A,
40004F40,
00534081,
64234000,
2F401990,
23708163,
8023400D,
904A7000,
4F700053,
70005670,
002F7000,
32708163,
804A4000,
4F400053,
40005640,
002F4000,
32400D90,
23708163,
8023400D,
902F7000,
32708163,
802F4000,
32400D90,
4D700053,
70005670,
00597000,
23708163,
804D4000,
53400056,
40005940,
0023400D,
902F7000,
32708163,
802F4000,
32400D90,
4B70004F,
70005470,
00577000,
24700030,
70816380,
4B40004F,
40005440,
00574081,
64244000,
30401990,
24708163,
8024400D,
90487000,
4B70004F,
70005470,
00307000,
33708163,
80484000,
4B40004F,
40005440,
00304000,
33400D90,
30707180,
30400790,
24707180,
24400790,
30707180,
30400790,
24707180,
24400790,
4B70004F,
70005470,
00577000,
30707180,
30400790,
24706B80,
4B40004F,
40005440,
00574006,
24400790,
30707180,
30400790,
24707180,
24400790,
4F700054,
70005770,
005B7000,
24700030,
70816380,
4F400054,
40005740,
005B4081,
64244000,
30401990,
24708163,
8024400D,
90487000,
4B70004F,
70005470,
00307000,
33708163,
80484000,
4B40004F,
40005440,
00304000,
33400D90,
24708163,
8024400D,
90307000,
33708163,
80304000,
33400D90,
4F700054,
70005770,
005B7000,
24708163,
804F4000,
54400057,
40005B40,
0024400D,
90307000,
33708163,
80304000,
33400D90,
4A70004F,
70005270,
00567000,
2270002E,
70816380,
4A40004F,
40005240,
00564081,
64224000,
2E401990,
22708163,
8022400D,
90467000,
4A70004F,
70005270,
002E7000,
32708163,
80464000,
4A40004F,
40005240,
002E4000,
32400D90,
22708163,
8022400D,
902E7000,
32708163,
802E4000,
32400D90,
4A70004F,
70005270,
00567000,
22708163,
804A4000,
4F400052,
40005640,
0022400D,
902E7000,
32708163,
802E4000,
32400D90,
4970004C,
70005170,
00557000,
2170002D,
70816380,
4940004C,
40005140,
00554081,
64214000,
2D401990,
21708163,
8021400D,
90457000,
4970004C,
70005170,
002D7000,
31708163,
80454000,
4940004C,
40005140,
002D4000,
31400D90,
21708163,
8021400D,
902D7000,
31708163,
802D4000,
31400D90,
4970004C,
70005170,
00557000,
2D707180,
2D400790,
21706B80,
4940004C,
40005140,
00554006,
21400790,
2D707180,
2D400790,
21707180,
21400790,
4A70004E,
70005170,
00567000,
1E70002A,
70816380,
4A40004E,
40005140,
00564081,
641E4000,
2A401990,
1E708163,
801E400D,
904A7000,
4E700051,
70005670,
002A7000,
2D708163,
804A4000,
4E400051,
40005640,
002A4000,
2D400D90,
1E708163,
801E400D,
902A7000,
2D708163,
802A4000,
2D400D90,
4E700051,
70005670,
005A7000,
1E70002A,
70816380,
4E400051,
40005640,
005A4000,
1E40002A,
400D902A,
7071802A,
4007901E,
7071801E,
40079046,
70004A70,
004F7000,
5270001F,
70002B70,
81638046,
40004A40,
004F4000,
52408164,
1F40002B,
4019901F,
70816380,
1F400D90,
4A70004F,
70005270,
00567000,
2B70002E,
70816380,
4A40004F,
40005240,
00564000,
2B40002E,
400D901F,
70816380,
1F400D90,
2B70002E,
70816380,
2B40002E,
400D9046,
70004A70,
004F7000,
5270001F,
70816380,
4640004A,
40004F40,
00524000,
1F400D90,
2B70002E,
70816380,
2B40002E,
400D9048,
70004E70,
00517000,
54700021,
70002D70,
81638048,
40004E40,
00514000,
54408164,
2140002D,
40199021,
70816380,
21400D90,
45700048,
70004E70,
00517000,
2D700030,
70816380,
45400048,
40004E40,
00514000,
2D400030,
400D9021,
70002D70,
81638021,
40002D40,
0D902D70,
71802D40,
07902170,
71802140,
07904870,
004E7000,
51700054,
70002170,
81638048,
40004E40,
00514000,
54400021,
400D902D,
70003070,
8163802D,
40003040,
0D904770,
004A7000,
4F700053,
70002370,
002F7081,
63804740,
004A4000,
4F400053,
40816423,
40002F40,
19902370,
81638023,
400D904A,
70004F70,
00537000,
5670002F,
70003270,
8163804A,
40004F40,
00534000,
5640002F,
40003240,
0D902370,
81638023,
400D902F,
70003270,
8163802F,
40003240,
0D904D70,
00537000,
56700059,
70002F70,
71802F40,
07902370,
6B804D40,
00534000,
56400059,
40062340,
07902F70,
71802F40,
07902370,
71802340,
07904B70,
004F7000,
54700057,
70002470,
00307081,
63804B40,
004F4000,
54400057,
40816424,
40003040,
19902470,
81638024,
400D9048,
70004B70,
004F7000,
54700030,
70003370,
81638048,
40004B40,
004F4000,
54400030,
40003340,
0D902470,
81638024,
400D9030,
70003370,
81638030,
40003340,
0D904B70,
004F7000,
54700057,
70002470,
00307081,
63804B40,
004F4000,
54400057,
40002440,
0030400D,
90307071,
80304007,
90247071,
80244007,
904F7000,
54700057,
70005B70,
00247000,
30708163,
804F4000,
54400057,
40005B40,
81642440,
00304019,
90247081,
63802440,
0D904870,
004B7000,
4F700054,
70003070,
00337081,
63804840,
004B4000,
4F400054,
40003040,
0033400D,
90247081,
63802440,
0D903070,
00337081,
63803040,
0033400D,
904F7000,
54700057,
70005B70,
00247081,
63804F40,
00544000,
5740005B,
40002440,
0D903070,
00337081,
63803040,
0033400D,
90527000,
5670005B,
70005E70,
00227000,
2E708163,
80524000,
5640005B,
40005E40,
81642240,
002E4019,
90227081,
63802240,
0D905170,
00567000,
5A70005D,
70002E70,
00327081,
63805140,
00564000,
5A40005D,
40002E40,
0032400D,
90227081,
63802240,
0D902E70,
00327081,
63802E40,
0032400D,
904F7000,
52700056,
70005B70,
00227081,
63804F40,
00524000,
5640005B,
40002240,
0D902E70,
00327081,
63802E40,
0032400D,
90517E00,
567E005A,
7E005D7E,
001E7E00,
2A7E8163,
80514000,
5640005A,
40005D40,
001E4000,
2A400D90,
267E7180,
26400790,
1E7E7180,
1E400790,
267E8163,
8026400D,
90517E00,
567E005A,
7E005D7E,
001E7E00,
2A7E8163,
80514000,
5640005A,
40005D40,
001E4000,
2A400D90,
267E7180,
26400790,
1E7E7180,
1E400790,
267E8163,
8026400D,
90517E00,
567E005D,
7E002A7E,
71802A40,
07901E7E,
6B805140,
00564000,
5D40061E,
4007904F,
7E00567E,
005B7E00,
2A7E7180,
2A400790,
1E7E6B80,
4F400056,
40005B40,
061E4007,
904E7E00,
517E0056,
7E005A7E,
001A7E00,
217E0026,
7E816380,
4E400051,
40005640,
005A4000,
1A400021,
40002640,
836D904F,
7E00527E,
00567E00,
5B7E001A,
7E00217E,
00267E81,
63804F40,
00524000,
5640005B,
40001A40,
00214000,
2640836D,
90517E00,
567E005A,
7E005D7E,
00267E71,
80264007,
901A7E6B,
80514000,
5640005A,
40005D40,
061A4007,
90267E71,
80264007,
901A7E71,
801A4007,
904F7E00,
527E0056,
7E005B7E,
001F7E00,
267E002B,
7E834780,
1F400026,
40002B40,
19901F76,
002B7683,
47801F40,
002B4019,
901F6E00,
2B6E8347,
801F4000,
2B401990,
1F65002B,
65834780,
1F40002B,
4019901F,
5D002B5D,
8347801F,
40002B40,
19901F54,
002B5483,
47801F40,
002B4019,
901F4C00,
2B4C8347,
801F4000,
2B401990,
1F43002B,
43834780,
1F40002B,
4019901F,
3B002B3B,
8347801F,
40002B40,
19901F32,
002B3283,
47801F40,
002B4019,
901F2A00,
2B2A8347,
801F4000,
2B401990,
1F21002B,
21834780,
1F40002B,
4019901F,
21002B21,
8347801F,
40002B40,
19901F21,
002B2183,
47801F40,
002B4019,
901F2100,
2B218347,
801F4000,
2B401990,
1F21002B,
21834780,
1F40002B,
4019901F,
21002B21,
993F804F,
40005240,
00564000,
5B408300,
1F40002B,
4000FF2F,
00000000;