memory_initialization_radix=16;
memory_initialization_vector=
4D546864,
00000006,
00000001,
01E04D54,
726B0000,
3BD700FF,
030E5465,
6D706573,
74697373,
696D6F30,
00FF5103,
03F69B00,
FF580404,
02180800,
FF5902FB,
0000FF21,
010000C0,
0100B079,
0000C001,
00B00764,
000A4000,
5B00005D,
0000904D,
3100FF59,
02FB0000,
FF210100,
00903528,
00382800,
3A28003D,
28870F80,
4D408411,
904D3181,
63804D40,
0D904C31,
8163804C,
400D904D,
31834780,
4D401990,
4E318347,
804E4019,
904D3183,
47804D40,
19904C31,
821F8035,
40003840,
003A4000,
3D408128,
4C401990,
4D310035,
28003928,
003C2800,
3F28870F,
804D4031,
90523187,
0F805240,
31905131,
870F8051,
4031904E,
31857F80,
35400039,
40003C40,
003F4081,
104E4031,
904D3100,
35280038,
28003C28,
003D2887,
0F804D40,
8411904D,
31816380,
4D400D90,
4C318163,
804C400D,
904D3183,
47804D40,
19904E31,
8347804E,
4019904D,
31834780,
4D401990,
4A31821F,
80354000,
3840003C,
40003D40,
81284A40,
19904B31,
00372800,
3A28003D,
28003F28,
71804B40,
07904D31,
71804D40,
07904B31,
71804B40,
07904D31,
71804D40,
07904B31,
71804B40,
07904D31,
71804D40,
07904B31,
71804B40,
07904D31,
71804D40,
07904B31,
71804B40,
07904D31,
71804D40,
07904B31,
71804B40,
07904D31,
71804D40,
07904B31,
71804B40,
07904D31,
71804D40,
07904B31,
71804B40,
07904D31,
71804D40,
07904B31,
816F804B,
40893190,
4631821F,
80374000,
3A40003D,
40003F40,
81284640,
19904B31,
00362800,
3A28003C,
28003F28,
870F804B,
40841190,
4B318163,
804B400D,
904D3181,
63804D40,
0D904E31,
8347804E,
4019904B,
31834780,
4B401990,
49318347,
80494019,
90483182,
1F803640,
003A4000,
3C40003F,
40812848,
40199049,
31003528,
00382800,
3C28003D,
28870F80,
49403190,
4E31870F,
804E4031,
904D3187,
0F804D40,
31904931,
857F8035,
40003840,
003C4000,
3D408110,
49403190,
48310037,
28003A28,
003D2800,
4028870F,
80484084,
11904831,
81638048,
400D9046,
31816380,
46400D90,
48318347,
80484019,
90493183,
47804940,
19904B31,
8347804B,
4019904D,
31821F80,
3740003A,
40003D40,
00404081,
284D4019,
90561900,
3A358163,
803A400D,
903A3A81,
57805640,
0C3A400D,
90464083,
47804640,
19904548,
82558045,
40139042,
4E825580,
42401390,
41528163,
80414081,
7D90495A,
71804940,
0790485B,
71804840,
0790465D,
81638046,
400D9048,
61816380,
48400D90,
46648163,
8046400D,
90486881,
63804840,
0D904D6C,
8347804D,
40199046,
60002269,
00296981,
63802240,
0029400D,
90226900,
29698157,
8046400C,
22400029,
400D9052,
60834780,
52401990,
51608255,
80514013,
904E6082,
55804E40,
13904D60,
8163804D,
40817D90,
4D607180,
4D400790,
4B607180,
4B400790,
4D608163,
804D400D,
904E6081,
63804E40,
0D904D60,
8163804D,
400D9049,
60816380,
49400D90,
48608163,
8048400D,
90456081,
63804540,
0D904660,
00226900,
29698163,
80224000,
29400D90,
22690029,
69815780,
46400C22,
40002940,
0D905260,
83478052,
40199051,
60825580,
51401390,
4E608255,
804E4013,
904D6081,
63804D40,
0D902560,
81704D60,
71804D40,
07904B60,
5F802540,
124B4007,
904D6000,
22608163,
804D4000,
22400D90,
4E600025,
60816380,
4E400025,
400D904D,
60002460,
8163804D,
400D9052,
60718052,
40079052,
605F8024,
40125240,
07905160,
00216081,
63805140,
0D904D60,
81578021,
400C4D40,
0D904660,
00226000,
2960002E,
60834780,
46401990,
52608347,
80524019,
90516082,
55805140,
13904E60,
8255804E,
4013904D,
60816380,
4D40817D,
904D6071,
804D4007,
904B6071,
804B4007,
904D6081,
63804D40,
0D904E60,
5F802240,
00294000,
2E408104,
4E400D90,
4D600021,
60002D60,
8163804D,
400D9049,
60816380,
49400D90,
48608163,
8048400D,
90456081,
3F802140,
002D4024,
45400D90,
46600022,
60002960,
002E6083,
47804640,
19905260,
83478052,
40199051,
60825580,
51401390,
4E608255,
804E4013,
904D6081,
0F802240,
00294000,
2E40544D,
400D901E,
60002A60,
81705560,
71805540,
07905460,
71805440,
07905260,
81638052,
400D9054,
60813F80,
1E40002A,
40245440,
0D905260,
001D6000,
29608163,
8052400D,
90546081,
57801D40,
0029400C,
54400D90,
4D600059,
60834780,
4D400059,
40199046,
60002260,
002E6081,
63802240,
002E400D,
90226000,
2E608157,
8046400C,
2240002E,
400D9052,
60002260,
002E6081,
63802240,
002E400D,
90226000,
2E608157,
8052400C,
2240002E,
400D9051,
60002260,
002E6081,
63802240,
002E400D,
90226000,
2E606580,
51401390,
4E606B80,
2240002E,
400D9022,
60002E60,
815D804E,
40062240,
002E400D,
904D6000,
2260002E,
60816380,
4D400022,
40002E40,
0D902260,
002E6081,
63802240,
002E400D,
904D6000,
2260002E,
6071804D,
4007904B,
606B8022,
40002E40,
064B4007,
904D6000,
2260002E,
60816380,
4D400022,
40002E40,
0D904E60,
00226000,
2E608163,
804E4000,
2240002E,
400D904D,
60002260,
002E6081,
63804D40,
00224000,
2E400D90,
49600022,
60002E60,
81638049,
40002240,
002E400D,
90486000,
2260002E,
60816380,
48400D90,
45608157,
80224000,
2E400C45,
400D9046,
60002260,
002E6081,
63802240,
002E400D,
90226000,
2E608157,
8046400C,
2240002E,
400D9052,
60002260,
002E6081,
63802240,
002E400D,
90226000,
2E608157,
8052400C,
2240002E,
400D9051,
60002260,
002E6081,
63802240,
002E400D,
90226000,
2E606580,
51401390,
4E606B80,
2240002E,
400D9022,
60002E60,
815D804E,
40062240,
002E400D,
904D6000,
2260002E,
60816380,
4D400022,
40002E40,
0D902260,
002E6081,
63802240,
002E400D,
904D6000,
22607180,
4D400022,
4007904B,
60002E60,
71804B40,
002E4007,
904D6000,
2260002E,
60816380,
4D400022,
40002E40,
0D904E60,
00226000,
2E608163,
804E4000,
2240002E,
400D904D,
60002260,
002E6081,
63804D40,
00224000,
2E400D90,
52600022,
60718052,
40002240,
07905260,
002E6071,
80524000,
2E400790,
51600022,
60002E60,
81638051,
400D904D,
60815780,
2240002E,
400C4D40,
0D904660,
00226000,
2E608163,
80224000,
2E400D90,
2260002E,
60815780,
46400C22,
40002E40,
0D905260,
00226000,
2E608163,
80224000,
2E400D90,
2260002E,
60815780,
52400C22,
40002E40,
0D905160,
00226000,
2E608163,
80224000,
2E400D90,
2260002E,
60658051,
4013904E,
606B8022,
40002E40,
0D902260,
002E6081,
5D804E40,
06224000,
2E400D90,
4D600022,
60718022,
4007902E,
606B804D,
40062E40,
07902260,
002E6081,
63802240,
002E400D,
904D6000,
2260002E,
6071804D,
4007904B,
606B8022,
40002E40,
064B4007,
904D6000,
2260002E,
60816380,
4D400022,
40002E40,
0D904E60,
00226000,
2E608163,
804E4000,
2240002E,
400D904D,
60002260,
002E6081,
63804D40,
0D904960,
81578022,
40002E40,
0C49400D,
90486000,
2260002E,
60816380,
48400022,
40002E40,
0D904560,
00226000,
2E608163,
80454000,
2240002E,
400D9046,
60002260,
002E6081,
63802240,
002E400D,
90226000,
2E608157,
8046400C,
2240002E,
400D9052,
60002260,
002E6081,
63802240,
002E400D,
90226071,
80224007,
902E605F,
80524012,
2E400790,
51600022,
60002E60,
81638022,
40002E40,
0D902260,
002E6065,
80514013,
904E606B,
80224000,
2E400D90,
2260002E,
60815D80,
4E400622,
40002E40,
0D904D60,
00226000,
2E608163,
804D4081,
64224000,
2E401990,
55600022,
60718055,
40002240,
07905460,
002E6071,
80544000,
2E400790,
52600022,
60002E60,
81638052,
40002240,
002E400D,
90546000,
2260002E,
60816380,
54400022,
40002E40,
0D905260,
00226000,
2E608163,
8052400D,
904D6071,
804D4007,
904E605F,
80224000,
2E40124E,
40079051,
60003560,
71805140,
07904D60,
71804D40,
07905160,
71805140,
07905460,
5F803540,
12544007,
90466000,
2260002E,
60834780,
46400022,
40002E40,
19905260,
002E6000,
31608347,
80524000,
2E400031,
40199051,
60002260,
002E6082,
55805140,
00224000,
2E401390,
4E600022,
60002E60,
8255804E,
40002240,
002E4013,
904D6000,
2260002E,
60816380,
4D400022,
40002E40,
817D904D,
60002E60,
71804D40,
002E4007,
904B6000,
29607180,
4B400029,
4007904D,
60003160,
8163804D,
40003140,
0D904E60,
00226081,
63804E40,
0022400D,
904D6000,
31600035,
60816380,
4D400031,
40003540,
0D904960,
00356071,
80354007,
9034606B,
80494006,
34400790,
48600035,
60816380,
48400035,
400D9045,
60002960,
81638045,
40002940,
0D904660,
00226000,
2E608347,
80464000,
2240002E,
40199052,
60002E60,
00316083,
47805240,
002E4000,
31401990,
51600022,
60002E60,
82558051,
40002240,
002E4013,
904E6000,
2260002E,
60825580,
4E400022,
40002E40,
13904D60,
00226000,
2E608163,
804D4000,
2240002E,
40817D90,
4D60002E,
6071804D,
40002E40,
07904B60,
00296071,
804B4000,
29400790,
4D600031,
60816380,
4D400031,
400D904E,
60002260,
8163804E,
400C2240,
01904D60,
00256077,
80254001,
9029606B,
804D400C,
29400190,
5260002E,
60718052,
40062E40,
01905260,
00316071,
80524006,
31400190,
51600035,
60816380,
51400D90,
4D608157,
8035400C,
4D400D90,
46600022,
60002E60,
81638022,
40002E40,
0D902260,
002E6081,
57804640,
0C224000,
2E400D90,
52600022,
60002E60,
81638022,
40002E40,
0D902260,
002E6081,
57805240,
0C224000,
2E400D90,
51600022,
60002E60,
81638022,
40002E40,
0D902260,
002E6065,
80514013,
904E606B,
80224000,
2E400D90,
2260002E,
60815D80,
4E400622,
40002E40,
0D904D60,
00226071,
80224007,
902E606B,
804D4006,
2E400790,
2260002E,
60816380,
2240002E,
400D904D,
60002260,
002E6071,
804D4007,
904B606B,
80224000,
2E40064B,
4007904D,
60002260,
002E6081,
63804D40,
00224000,
2E400D90,
4E600022,
60002E60,
8163804E,
40002240,
002E400D,
904D6000,
2260002E,
60816380,
4D400D90,
49608157,
80224000,
2E400C49,
400D9048,
60002260,
002E6081,
63804840,
00224000,
2E400D90,
45600022,
60718022,
4007902E,
606B8045,
40062E40,
07904660,
00226000,
2E608163,
80224000,
2E400D90,
2260002E,
60815780,
46400C22,
40002E40,
0D905260,
00226000,
2E608163,
80224000,
2E400D90,
22607180,
22400790,
2E605F80,
5240122E,
40079051,
60002260,
002E6081,
63802240,
002E400D,
90226065,
8051400C,
22400790,
4E60002E,
6071802E,
40079022,
60002E60,
815D804E,
40062240,
002E400D,
904D6000,
22607180,
22400790,
2E606B80,
4D40062E,
40079022,
60002E60,
81638022,
40002E40,
0D905560,
00226000,
2E607180,
55400790,
54606B80,
2240002E,
40065440,
07905260,
00226000,
2E608163,
80524000,
2240002E,
400D9054,
60002260,
002E6081,
63805440,
00224000,
2E400D90,
51600022,
60002E60,
71805140,
07905A60,
6B802240,
002E4006,
5A400790,
59600022,
60002E60,
71805940,
07905760,
6B802240,
002E4006,
57400790,
54600022,
60002E60,
71805440,
07905160,
6B802240,
002E4006,
51400790,
54600022,
60002E60,
71805440,
07905560,
6B802240,
002E4006,
55400790,
52600022,
60816380,
22400D90,
3550003A,
50002268,
81638035,
40003A40,
00224081,
7D903550,
003A5000,
22688163,
80354000,
3A400022,
40817D90,
3550003A,
50002268,
81638035,
40003A40,
00224081,
7D903550,
003A5000,
2268810F,
80524082,
38354000,
3A400022,
40199035,
50003A50,
00226881,
63803540,
003A4000,
22400D90,
3550003A,
50002268,
81638035,
40003A40,
00224081,
7D903650,
003B5000,
23688347,
80364000,
3B400023,
40199036,
50003B50,
00236883,
47803640,
003B4000,
23401990,
3550003A,
50002268,
81638035,
40003A40,
0022400D,
90355000,
3A500022,
68816380,
3540003A,
40002240,
817D9035,
50003A50,
00226881,
63803540,
003A4000,
2240817D,
90355000,
3A500022,
68816380,
3540003A,
40002240,
817D9035,
50003A50,
00226883,
47803540,
003A4000,
22401990,
3550003A,
50002268,
81638035,
40003A40,
0022400D,
90355000,
3A500022,
68816380,
3540003A,
40002240,
817D9035,
50003950,
00216883,
47803540,
00394000,
21401990,
35500039,
50002168,
83478035,
40003940,
00214019,
90355000,
3A500022,
68816380,
3540003A,
40002240,
0D903550,
003A5000,
22688163,
80354000,
3A400022,
400D9031,
50816380,
31400D90,
3550003A,
50002268,
81638035,
40003A40,
0022400D,
90315081,
63803140,
0D903550,
003A5000,
22688163,
80354000,
3A400022,
400D9031,
50816380,
31400D90,
3550003A,
50002268,
83478035,
40003A40,
00224019,
90355000,
3A500022,
68816380,
3540003A,
40002240,
0D903550,
003A5000,
22688163,
80354000,
3A400022,
400D9031,
50816380,
31400D90,
3650003B,
50002368,
81638023,
400D9032,
50815780,
3640003B,
400C3240,
0D903650,
003B5000,
23688163,
8023400D,
90325081,
57803640,
003B400C,
32400D90,
3550003A,
50002268,
81638035,
40003A40,
0022400D,
90355000,
3A500022,
68816380,
3540003A,
40002240,
0D903150,
81638031,
400D9035,
50003A50,
00226881,
63803540,
003A4000,
22400D90,
31508163,
8031400D,
90355000,
3A500022,
68816380,
3540003A,
40002240,
0D903150,
81638031,
400D9035,
50003A50,
00226883,
47803540,
003A4000,
22401990,
354D003A,
4D002264,
81638035,
40003A40,
0022400D,
90354B00,
3A4B0022,
61816380,
3540003A,
40002240,
0D903149,
81638031,
400D9035,
48003948,
00215D81,
63802140,
0D903046,
81578035,
40003940,
0C30400D,
90354400,
39440021,
58816380,
21400D90,
30428157,
80354000,
39400C30,
400D9046,
40002240,
00294083,
47804640,
19904D40,
8347804D,
4019904B,
40834780,
4B401990,
4D408347,
804D4019,
904E4083,
47804E40,
19905040,
824F8022,
40002940,
78504019,
904E4000,
2340002A,
40834780,
4E401990,
4D40832F,
80234000,
2A40184D,
40199046,
40002240,
00294083,
47804640,
19904D40,
8347804D,
4019904B,
40834780,
4B401990,
4D408347,
804D4019,
90494083,
47804940,
19904B40,
824F8022,
40002940,
784B4019,
90494000,
21400028,
40834780,
49401990,
4840832F,
80214000,
28401848,
4019903A,
40004640,
00224000,
29408163,
80224000,
29400D90,
22410029,
41815780,
3A400046,
400C2240,
0029400D,
90414200,
4D420022,
42002942,
81638022,
40002940,
0D902244,
00294481,
57804140,
004D400C,
22400029,
400D903F,
45004B45,
00224500,
29458163,
80224000,
29400D90,
22460029,
46815780,
3F40004B,
400C2240,
0029400D,
90414800,
4D480022,
48002948,
81638022,
40002940,
0D902249,
00294981,
57804140,
004D400C,
22400029,
400D9042,
4A004E4A,
00224A00,
294A8163,
80224000,
29400D90,
224C0029,
4C815780,
4240004E,
400C2240,
0029400D,
90444D00,
504D0022,
4D00294D,
81638022,
40002940,
0D90224E,
00294E81,
57804440,
0050400C,
22400029,
400D9042,
50004E50,
00225000,
29508163,
80224000,
29400D90,
22510029,
51815780,
4240004E,
400C2240,
0029400D,
90415200,
4D520022,
52002952,
81638022,
40002940,
0D902254,
00295481,
57804140,
004D400C,
22400029,
400D903A,
55004655,
00225577,
80224001,
90235677,
80234001,
90245677,
80244001,
9025575F,
803A4000,
46401825,
40019041,
58004D58,
00265877,
80264001,
90275877,
80274001,
90285977,
80284001,
90295A5F,
80414000,
4D401829,
4001903F,
5A004B5A,
002A5A77,
802A4001,
902B5B77,
802B4001,
902C5C77,
802C4001,
902D5C5F,
803F4000,
4B40182D,
40019041,
5D004D5D,
002E5D77,
802E4001,
902F5E77,
802F4001,
90305E77,
80304001,
90315F5F,
80414000,
4D401831,
4001903D,
60004960,
00326077,
80324001,
90336077,
80334001,
90346077,
80344001,
9035605F,
803D4000,
49401835,
4001903F,
60004B60,
00366077,
80364001,
90376077,
80374001,
90386077,
80384001,
9039605F,
803F4000,
4B401839,
4001903D,
60004960,
003A7383,
47803D40,
00494000,
3A401990,
3C600048,
60003573,
8347803C,
40004840,
00354019,
90466400,
22738163,
8022400D,
902E4D00,
314D8157,
8046400C,
2E400031,
400D904D,
64002273,
81638022,
400D902E,
4D00314D,
8157804D,
400C2E40,
0031400D,
904B6400,
22738163,
804B4000,
22400D90,
4664002E,
4D00314D,
81638046,
40002E40,
0031400D,
904D6400,
22738163,
804D4000,
22400D90,
4E64002E,
4D00314D,
8163802E,
40003140,
0D902273,
8157804E,
400C2240,
0D905064,
002E4D00,
314D7180,
50400790,
4E646B80,
2E400031,
40064E40,
07904964,
00227381,
63804940,
0022400D,
90506400,
2E4D0031,
4D816380,
5040002E,
40003140,
0D904E64,
00227381,
63804E40,
0022400D,
90486400,
2E4D0031,
4D816380,
4840002E,
40003140,
0D904D64,
00227381,
63802240,
0D902E4D,
00314D81,
57804D40,
0C2E4000,
31400D90,
46640022,
73816380,
46400022,
400D9041,
64002E4D,
00314D81,
63804140,
002E4000,
31400D90,
4D640022,
73816380,
22400D90,
2E4D0031,
4D815780,
4D400C2E,
40003140,
0D904B64,
00227381,
63804B40,
0022400D,
904C6400,
2E4D0031,
4D816380,
4C40002E,
40003140,
0D904D64,
00227381,
63804D40,
0022400D,
90496400,
2E4D0031,
4D816380,
2E400031,
400D901E,
73815780,
49400C1E,
400D904B,
64002A4D,
002E4D71,
804B4007,
9049646B,
802A4000,
2E400649,
40079046,
64001E73,
81638046,
40001E40,
0D904B64,
002A4D00,
2E4D8163,
804B4000,
2A40002E,
400D9049,
64001D73,
81638049,
40001D40,
0D904164,
00294D00,
2D4D8163,
80414000,
2940002D,
400D9048,
64001D73,
81638048,
40001D40,
0D904564,
00294D00,
2D4D8163,
80454000,
2940002D,
400D9046,
64002273,
81638046,
40002240,
0D904164,
002E4D00,
314D8163,
80414000,
2E400031,
400D904D,
64002273,
81638022,
400D902E,
4D00314D,
8157804D,
400C2E40,
0031400D,
904B6400,
22738163,
804B4000,
22400D90,
4664002E,
4D00314D,
81638046,
40002E40,
0031400D,
904D6400,
22738163,
804D4000,
22400D90,
4E64002E,
4D00314D,
8163802E,
40003140,
0D902273,
8157804E,
400C2240,
0D905064,
002E4D00,
314D7180,
50400790,
4E646B80,
2E400031,
40064E40,
07904964,
00227381,
63804940,
0022400D,
90506400,
2E4D0031,
4D816380,
5040002E,
40003140,
0D904E64,
00227381,
63804E40,
0022400D,
90486400,
2E4D0031,
4D816380,
4840002E,
40003140,
0D904D64,
00227381,
63802240,
0D902E4D,
00314D81,
57804D40,
0C2E4000,
31400D90,
46640022,
73816380,
46400022,
400D9041,
64002E4D,
00314D81,
63804140,
002E4000,
31400D90,
4D640022,
73816380,
22400D90,
2E4D0031,
4D815780,
4D400C2E,
40003140,
0D904B64,
00227381,
63804B40,
0022400D,
904C6400,
2E4D0031,
4D816380,
4C40002E,
40003140,
0D904D64,
00227381,
63804D40,
0022400D,
90496400,
2E4D0031,
4D816380,
2E400031,
400D901E,
73815780,
49400C1E,
400D904B,
64002A4D,
002E4D71,
804B4007,
9049646B,
802A4000,
2E400649,
40079046,
64001E73,
81638046,
40001E40,
0D904B64,
002A4D00,
2E4D8163,
804B4000,
2A40002E,
400D903A,
64001D60,
00296083,
47803A40,
19903B64,
003B6401,
803B4036,
3B400490,
3C64003C,
6401803C,
40363C40,
05903E64,
003E6401,
803E4036,
3E400590,
40640040,
64018040,
40364040,
05904164,
00416401,
80414036,
41400590,
43640043,
64018043,
40364340,
05904564,
00456401,
80454036,
45400690,
46640B80,
1D400029,
402D4640,
04904164,
00466400,
22738163,
8022400D,
902E4D00,
314D8157,
80414000,
46400C2E,
40003140,
0D904664,
004D6400,
22788163,
8022400D,
902E4D00,
314D8157,
80464000,
4D400C2E,
40003140,
0D904B64,
00227381,
63804B40,
0022400D,
90466400,
2E4D0031,
4D816380,
4640002E,
40003140,
0D904D64,
00227881,
63804D40,
0022400D,
90496400,
4E64002E,
4D00314D,
8163802E,
40003140,
0D902273,
81578049,
40004E40,
0C22400D,
90506400,
2E4D0031,
4D718050,
4007904E,
646B802E,
40003140,
064E4007,
90496400,
22788163,
80494000,
22400D90,
5064002E,
4D00314D,
81638050,
40002E40,
0031400D,
904E6400,
22738163,
804E4000,
22400D90,
4864002E,
4D00314D,
81638048,
40002E40,
0031400D,
90466400,
4D640022,
78816380,
22400D90,
2E4D0031,
4D815780,
4640004D,
400C2E40,
0031400D,
90466400,
22738163,
80464000,
22400D90,
4164002E,
4D00314D,
81638041,
40002E40,
0031400D,
90496400,
4D640022,
78816380,
22400D90,
2E4D0031,
4D815780,
4940004D,
400C2E40,
0031400D,
904B6400,
22738163,
804B4000,
22400D90,
4C64002E,
4D00314D,
8163804C,
40002E40,
0031400D,
904D6400,
22788163,
804D4000,
22400D90,
46640049,
64002E4D,
00314D81,
63802E40,
0031400D,
901E7381,
57804640,
0049400C,
1E400D90,
4B64002A,
4D002E4D,
71804B40,
07904964,
6B802A40,
002E4006,
49400790,
4664001E,
73816380,
4640001E,
400D904B,
64002A4D,
002E4D81,
63804B40,
002A4000,
2E400D90,
4964001D,
73816380,
4940001D,
400D9041,
6400294D,
002D4D81,
63804140,
00294000,
2D400D90,
4864001D,
73816380,
4840001D,
400D9045,
6400294D,
002D4D81,
63804540,
00294000,
2D400D90,
46640022,
73816380,
46400022,
400D9041,
64002E4D,
00314D81,
63804140,
002E4000,
31400D90,
4964004D,
64002278,
81638022,
400D902E,
4D00314D,
81578049,
40004D40,
0C2E4000,
31400D90,
4B640022,
73816380,
4B400022,
400D9046,
64002E4D,
00314D81,
63804640,
002E4000,
31400D90,
4D640022,
78816380,
4D400022,
400D9049,
64004E64,
002E4D00,
314D8163,
802E4000,
31400D90,
22738157,
80494000,
4E400C22,
400D9050,
64002E4D,
00314D71,
80504007,
904E646B,
802E4000,
3140064E,
40079049,
64002278,
81638049,
40002240,
0D905064,
002E4D00,
314D8163,
80504000,
2E400031,
400D904E,
64002273,
8163804E,
40002240,
0D904864,
002E4D00,
314D8163,
80484000,
2E400031,
400D9046,
64004D64,
00227881,
63802240,
0D902E4D,
00314D81,
57804640,
004D400C,
2E400031,
400D9046,
64002273,
81638046,
40002240,
0D904164,
002E6000,
31608163,
80414000,
2E400031,
400D9049,
64004D64,
00227381,
63802240,
0D902E60,
00316081,
57804940,
004D400C,
2E400031,
400D904B,
64002273,
8163804B,
40002240,
0D904C64,
002E6000,
31608163,
804C4000,
2E400031,
400D904D,
64002273,
8163804D,
40002240,
0D904664,
00496400,
2E600031,
60816380,
2E400031,
400D901E,
73815780,
46400049,
400C1E40,
0D904B64,
002A4D00,
2E4D7180,
4B400790,
49646B80,
2A40002E,
40064940,
07904664,
001E7381,
63804640,
001E400D,
904B6400,
2A4D002E,
4D816380,
4B40002A,
40002E40,
0D903A60,
71803A40,
07903960,
71803940,
07903860,
71803840,
07903760,
71803740,
07903660,
71803640,
07903560,
71803540,
07903460,
71803440,
07903360,
71803340,
07904144,
00464400,
22487180,
41400046,
4007903A,
446B8022,
40063A40,
07904144,
00464400,
22487180,
41400046,
4007903A,
446B8022,
40063A40,
07904144,
00464400,
22487180,
41400046,
4007903A,
446B8022,
40063A40,
07904144,
00464400,
22487180,
41400046,
4007903A,
446B8022,
40063A40,
07904644,
004D4400,
22487180,
4640004D,
40079041,
446B8022,
40064140,
07904644,
004D4400,
22487180,
4640004D,
40079041,
446B8022,
40064140,
07904644,
004D4400,
22487180,
4640004D,
40079041,
446B8022,
40064140,
07904644,
004D4400,
22487180,
4640004D,
40079041,
446B8022,
40064140,
07904E50,
00224881,
63804E40,
0022400D,
904D5000,
22488163,
804D4000,
22400D90,
4E500022,
48816380,
4E400022,
400D9050,
50002248,
81638050,
40002240,
0D904E50,
00225081,
63802240,
0D902550,
8157804E,
400C2540,
0D904D50,
00245081,
63802440,
0D902350,
8157804D,
400C2340,
0D904144,
00464400,
22487180,
41400046,
4007903A,
446B8022,
40063A40,
07904144,
00464400,
22487180,
41400046,
4007903A,
446B8022,
40063A40,
07904144,
00464400,
22487180,
41400046,
4007903A,
446B8022,
40063A40,
07904144,
00464400,
22487180,
41400046,
4007903A,
446B8022,
40063A40,
07904644,
004D4400,
22487180,
4640004D,
40079041,
446B8022,
40064140,
07904644,
004D4400,
22487180,
4640004D,
40079041,
446B8022,
40064140,
07904644,
004D4400,
22487180,
4640004D,
40079041,
446B8022,
40064140,
07904644,
004D4400,
22487180,
4640004D,
40079041,
446B8022,
40064140,
07904E50,
00224881,
63804E40,
0022400D,
904D5000,
22488163,
804D4000,
22400D90,
4E500022,
48816380,
4E400022,
400D9052,
50002248,
81638052,
40002240,
0D905150,
00224881,
63805140,
0022400D,
904E5000,
22488163,
804E4000,
22400D90,
4968004A,
68816F80,
4940004A,
40817190,
41600046,
60002269,
81638022,
400D902E,
4D00314D,
81578041,
40004640,
0C2E4000,
31400D90,
4660004D,
60002269,
81638022,
400D902E,
4D00314D,
81578046,
40004D40,
0C2E4000,
31400D90,
4B600022,
69816380,
4B400022,
400D9046,
60002E4D,
00314D81,
63804640,
002E4000,
31400D90,
4D600022,
69816380,
4D400022,
400D9049,
60004E60,
002E4D00,
314D8163,
802E4000,
31400D90,
22698157,
80494000,
4E400C22,
400D9050,
60002E4D,
00314D71,
80504007,
904E606B,
802E4000,
3140064E,
40079046,
60002269,
81638046,
40002240,
0D905260,
002E4D00,
314D8163,
80524000,
2E400031,
400D9051,
60002269,
81638051,
40002240,
0D904E60,
002E4D00,
314D8163,
804E4000,
2E400031,
400D904D,
60002269,
8163804D,
40002240,
0D904960,
002E4D00,
314D8163,
80494000,
2E400031,
400D9046,
60005260,
00226000,
2E608163,
80464000,
52400022,
40002E40,
0D904660,
00526000,
2260002E,
60816380,
46400052,
40002240,
002E400D,
90476000,
53600022,
60002E60,
81638047,
40005340,
00224000,
2E400D90,
47600053,
60002260,
002E6081,
63804740,
00534000,
2240002E,
400D9048,
60005460,
00226000,
2E608163,
80484000,
54400022,
40002E40,
0D904860,
00546000,
2260002E,
60816380,
48400054,
40002240,
002E400D,
90496000,
55600022,
60002E60,
81638049,
40005540,
00224000,
2E400D90,
49600055,
60002260,
002E6081,
63804940,
00554000,
2240002E,
400D904A,
60005660,
00226977,
80224001,
9023696B,
804A4000,
56400C23,
4001904A,
60005660,
00246977,
80244001,
9025696B,
804A4000,
56400C25,
4001904B,
60005760,
00266977,
80264001,
9027696B,
804B4000,
57400C27,
4001904B,
60005760,
00286977,
80284001,
9029696B,
804B4000,
57400C29,
4001904C,
60005860,
002A6977,
802A4001,
902B696B,
804C4000,
58400C2B,
4001904C,
60005860,
002C6977,
802C4001,
902D696B,
804C4000,
58400C2D,
4001904D,
60005960,
002E6977,
802E4001,
902F696B,
804D4000,
59400C2F,
4001904D,
60005960,
00306977,
80304001,
9031696B,
804D4000,
59400631,
4007904D,
31003528,
00382800,
3A28003D,
28870F80,
4D408411,
904D3181,
63804D40,
0D904C31,
8163804C,
400D904D,
31834780,
4D401990,
4E318347,
804E4019,
904D3183,
47804D40,
19904C31,
821F8035,
40003840,
003A4000,
3D408128,
4C401990,
4165004C,
7F004D7F,
001D7000,
2970870F,
80414000,
4C40004D,
40001D40,
00294031,
90466500,
517F0052,
7F002270,
002E7087,
0F804640,
00514000,
52400022,
40002E40,
31904565,
00507F00,
517F0021,
70002D70,
83478021,
40002D40,
19902170,
002D7083,
2F804540,
00504000,
51401821,
40002D40,
19904265,
004D7F00,
4E7F001E,
70002A70,
8347801E,
40002A40,
83484240,
004D4000,
4E403190,
44700049,
70004D70,
00257081,
63802540,
0D903170,
00357081,
63803140,
0035400D,
90257081,
63802540,
0D903170,
00357081,
63803140,
0035400D,
90257081,
63802540,
0D903170,
00357081,
27804440,
00494000,
4D403C31,
40003540,
0D904D70,
00257081,
63804D40,
0025400D,
904C7000,
31700035,
70816380,
4C400031,
40003540,
0D904970,
004D7000,
25708163,
8025400D,
90317000,
35708157,
80494000,
4D400C31,
40003540,
0D904970,
004E7000,
25708163,
8025400D,
90317000,
35708157,
80494000,
4E400C31,
40003540,
0D904970,
004D7000,
25708163,
8025400D,
90317000,
35708157,
80494000,
4D400C31,
40003540,
0D904670,
004A7000,
25708163,
8025400D,
90317000,
35708157,
80464000,
4A400C31,
40003540,
0D904B70,
00277071,
804B4007,
904D706B,
80274006,
4D400790,
4B700033,
70003770,
71804B40,
07904D70,
6B803340,
00374006,
4D400790,
4B700027,
7071804B,
4007904D,
706B8027,
40064D40,
07904B70,
00337000,
37707180,
4B400790,
4D706B80,
33400037,
40064D40,
07904B70,
00277071,
804B4007,
904D706B,
80274006,
4D400790,
4B700033,
70003770,
71804B40,
07904670,
6B803340,
00374006,
46400790,
4B700027,
7071804B,
4007904D,
706B8027,
40064D40,
07904B70,
00337000,
37707180,
4B400790,
46706B80,
33400037,
40064640,
07904B70,
00277000,
33708163,
80274000,
33400D90,
2E707180,
2E400790,
33705F80,
4B401233,
40079033,
70003770,
83478033,
40003740,
19902770,
00337082,
55802740,
00334013,
90277000,
3370783F,
70004670,
815D8027,
40003340,
13902770,
00337081,
57803F40,
0046400C,
27400033,
400D9042,
70004670,
004B7000,
24708163,
8024400D,
90307000,
33708163,
80304000,
33400D90,
24708163,
8024400D,
90307000,
33708163,
80304000,
33400D90,
24708163,
8024400D,
90307000,
33708127,
80424000,
4640004B,
403C3040,
0033400D,
904B7000,
24708163,
804B4000,
24400D90,
4D700030,
70003370,
8163804D,
40003040,
0033400D,
90467000,
4B70004E,
70002470,
81638024,
400D9030,
70003370,
81578046,
40004B40,
004E400C,
30400033,
400D9046,
70004B70,
00247081,
63802440,
0D903070,
00337081,
57804640,
004B400C,
30400033,
400D9046,
70004970,
00247081,
63802440,
0D903070,
00337081,
57804640,
0049400C,
30400033,
400D9046,
70004870,
00247081,
63802440,
0D903070,
00337081,
57804640,
0048400C,
30400033,
400D9046,
70004970,
00207081,
63802040,
0D902C70,
00317081,
63802C40,
0031400D,
90207081,
63802040,
0D902C70,
00317081,
3F804640,
00494024,
2C400031,
400D9049,
70004E70,
00207081,
63802040,
0D902C70,
00317081,
63802C40,
0031400D,
90207081,
63802040,
0D902C70,
00317081,
3F804940,
004E4024,
2C400031,
400D9049,
70004D70,
00207081,
63802040,
0D902C70,
00317081,
63802C40,
0031400D,
90207081,
63802040,
0D902C70,
00317081,
3F804940,
004D4024,
2C400031,
400D9044,
70004970,
00207081,
63802040,
0D902C70,
00317081,
63802C40,
0031400D,
90207081,
63802040,
0D902C70,
00317081,
3F804440,
00494024,
2C400031,
400D9043,
70004670,
00487000,
1F708163,
801F400D,
902B7000,
2E708163,
802B4000,
2E400D90,
1F708163,
801F400D,
902B7000,
2E708163,
802B4000,
2E400D90,
1F708163,
801F400D,
902B7000,
2E708127,
80434000,
46400048,
403C2B40,
002E400D,
90487081,
63804840,
0D904670,
81638046,
400D9046,
70004870,
001F7081,
63801F40,
0D902B70,
002E7081,
57804640,
0048400C,
2B40002E,
400D9046,
70004970,
001F7081,
63801F40,
0D902B70,
002E7081,
57804640,
0049400C,
2B40002E,
400D9046,
70004B70,
83478046,
40004B40,
19904670,
004D7083,
47804640,
004D4019,
90487000,
1D707180,
48400790,
49706B80,
1D400649,
40079048,
70002970,
002D7071,
80484007,
9049706B,
80294000,
2D400649,
40079048,
70001D70,
71804840,
07904970,
6B801D40,
06494007,
90487000,
2970002D,
70718048,
40079049,
706B8029,
40002D40,
06494007,
90487000,
1D707180,
48400790,
49706B80,
1D400649,
40079048,
70002970,
002D7071,
80484007,
9049706B,
80294000,
2D400649,
40079048,
70001D70,
71804840,
07904970,
6B801D40,
06494007,
90455A00,
2970002D,
70718045,
40079045,
5A6B8029,
40002D40,
06454007,
90455A00,
1D700029,
70811780,
4540001D,
40002940,
0990455A,
001D7000,
29708117,
80454000,
1D400029,
40099045,
5A001D70,
00297081,
17804540,
001D4000,
29400990,
455A001D,
70002970,
81178045,
40001D40,
00294009,
90455A00,
1D700029,
70811780,
4540001D,
40002940,
0990455A,
001D7000,
29708117,
80454000,
1D400029,
40099045,
5A001D70,
00297081,
17804540,
001D4000,
29408129,
90455A00,
1D700029,
70811780,
4540001D,
40002940,
81299045,
5A001D70,
00297081,
17804540,
001D4000,
29408129,
90497000,
4D700022,
70002E70,
8A578049,
40004D40,
49904D70,
8163804D,
400D904C,
70816380,
4C400D90,
4D708347,
804D4019,
904E7083,
47804E40,
19904D70,
8347804D,
4019904C,
70821F80,
2240002E,
4081284C,
40199041,
70004870,
004D7000,
2165002D,
65816380,
2140002D,
400D9021,
65002D65,
81638021,
40002D40,
0D902165,
002D6581,
63802140,
002D400D,
90216500,
2D65813F,
80414000,
4840004D,
40242140,
002D400D,
90467000,
4D700052,
70002165,
002D6581,
63802140,
002D400D,
90216500,
2D658163,
80214000,
2D400D90,
2165002D,
65816380,
2140002D,
400D9021,
65002D65,
813F8046,
40004D40,
00524024,
2140002D,
400D9045,
70004D70,
00517000,
2165002D,
65816380,
2140002D,
400D9021,
65002D65,
81638021,
40002D40,
0D902165,
002D6581,
63802140,
002D400D,
90216500,
2D65813F,
80454000,
4D400051,
40242140,
002D400D,
90487000,
51700054,
70002165,
002D6583,
47802140,
002D4083,
48484000,
51400054,
40319049,
70004D70,
00527000,
20708163,
8020400D,
902C7000,
31708163,
802C4000,
31400D90,
20708163,
8020400D,
902C7000,
31708163,
802C4000,
31400D90,
20708163,
8020400D,
902C7000,
31708127,
80494000,
4D400052,
403C2C40,
0031400D,
90207081,
63802040,
0D904D70,
002C7000,
31708163,
804D4000,
2C400031,
400D9049,
70004C70,
00207081,
63802040,
0D902C70,
00317081,
57804940,
004C400C,
2C400031,
400D9049,
70004D70,
00207081,
63802040,
0D902C70,
00317081,
57804940,
004D400C,
2C400031,
400D9046,
70004A70,
00207081,
63802040,
0D902C70,
00317081,
57804640,
004A400C,
2C400031,
400D9049,
70004D70,
00207081,
63802040,
0D902C70,
00317081,
57804940,
004D400C,
2C400031,
400D904B,
70002770,
71804B40,
07904D70,
6B802740,
064D4007,
904B7000,
33700037,
7071804B,
4007904D,
706B8033,
40003740,
064D4007,
904B7000,
27707180,
4B400790,
4D706B80,
2740064D,
4007904B,
70003370,
00377071,
804B4007,
904D706B,
80334000,
3740064D,
4007904B,
70002770,
71804B40,
07904D70,
6B802740,
064D4007,
904B7000,
33700037,
7071804B,
40079046,
706B8033,
40003740,
06464007,
904B7000,
27707180,
4B400790,
4D706B80,
2740064D,
4007904B,
70003370,
00377071,
804B4007,
9046706B,
80334000,
37400646,
4007904B,
70002770,
00337081,
63802740,
0033400D,
902E7071,
802E4007,
9033705F,
804B4012,
33400790,
33700037,
70816380,
33400037,
400D902E,
70816380,
2E400D90,
27700033,
70825580,
27400033,
40139027,
70003370,
783F7000,
4670815D,
80274000,
33401390,
27700033,
70815780,
3F400046,
400C2740,
0033400D,
90427000,
4670004B,
70002470,
00307081,
63802440,
0030400D,
90247000,
30708163,
80244000,
3040817D,
901E7000,
2A708347,
801E4000,
2A401990,
1E707180,
1E400790,
2A702F80,
42400046,
40004B40,
422A4007,
904B7000,
1E70002A,
70816380,
4B40001E,
40002A40,
0D904D70,
001E7000,
2A708163,
804D4000,
1E40002A,
400D9046,
70004E70,
001E7000,
2A708163,
801E4000,
2A400D90,
1E70002A,
70815780,
4640004E,
400C1E40,
002A400D,
90467000,
4B70001E,
70002A70,
8163801E,
40002A40,
0D901E70,
002A7081,
57804640,
004B400C,
1E40002A,
400D9046,
70004970,
001E7000,
2A708347,
80464000,
49401990,
46700048,
70832F80,
1E40002A,
40184640,
00484019,
90447000,
49700020,
70002C70,
81638020,
40002C40,
0D902070,
002C7081,
63802040,
002C4081,
7D902070,
002C7081,
3F804440,
00494031,
90497000,
4E708157,
80204000,
2C401990,
20707180,
20400790,
2C707180,
2C400790,
2070002C,
70816380,
2040002C,
400D9020,
70002C70,
813F8049,
40004E40,
24204000,
2C400D90,
4670004B,
70002070,
002C7081,
63802040,
002C400D,
90207071,
80204007,
902C7071,
802C4007,
90207000,
2C708163,
80204000,
2C400D90,
2070002C,
70813F80,
4640004B,
40242040,
002C400D,
90497000,
4E70002D,
7077802D,
4001902C,
7077802C,
4001902B,
7077802B,
4001902A,
7077802A,
40019029,
70778029,
40019028,
70778028,
40019027,
70778027,
40019026,
70478049,
40004E40,
2A264007,
90497000,
5270001F,
70816380,
1F400D90,
2B70002E,
70816380,
2B40002E,
400D901F,
70816380,
1F400D90,
2B70002E,
70816380,
2B40002E,
400D901F,
70816380,
1F400D90,
2B70002E,
70812780,
49400052,
403C2B40,
002E400D,
90527000,
1F708163,
80524000,
1F400D90,
5170002B,
70002E70,
81638051,
40002B40,
002E400D,
90497000,
5270001F,
70816380,
1F400D90,
2B70002E,
70815780,
49400052,
400C2B40,
002E400D,
90527000,
5570001F,
70816380,
1F400D90,
2B70002E,
70815780,
52400055,
400C2B40,
002E400D,
90527000,
5470001F,
70816380,
1F400D90,
2B70002E,
70815780,
52400054,
400C2B40,
002E400D,
904F7000,
5270001F,
70816380,
1F400D90,
2B70002E,
70815780,
4F400052,
400C2B40,
002E400D,
90547000,
21707180,
54400790,
55706B80,
21400655,
40079054,
70002D70,
00307071,
80544007,
9055706B,
802D4000,
30400655,
40079054,
70002170,
71805440,
07905570,
6B802140,
06554007,
90547000,
2D700030,
70718054,
40079055,
706B802D,
40003040,
06554007,
904E7000,
21707180,
4E400790,
50706B80,
21400650,
4007904E,
70002D70,
00307071,
804E4007,
9050706B,
802D4000,
30400650,
4007904E,
70002170,
71804E40,
07905070,
6B802140,
06504007,
904E7000,
2D700030,
7071804E,
40079050,
706B802D,
40003040,
06504007,
904D7000,
2170002D,
7071804D,
4007904E,
706B8021,
40002D40,
064E4007,
904D7000,
2170002D,
7071804D,
4007904E,
706B8021,
40002D40,
064E4007,
904D7000,
2170002D,
7071804D,
4007904E,
706B8021,
40002D40,
064E4007,
904D7000,
2170002D,
7071804D,
4007904E,
706B8021,
40002D40,
064E4007,
90517000,
2170002D,
70718051,
40079052,
706B8021,
40002D40,
06524007,
90517000,
2170002D,
70718051,
40079052,
706B8021,
40002D40,
06524007,
90517000,
2170002D,
70718051,
40079052,
706B8021,
40002D40,
06524007,
90517000,
2170002D,
70718051,
40079052,
706B8021,
40002D40,
06524007,
90527F00,
22708163,
8022400D,
90356000,
3A600022,
7C816380,
3540003A,
40002240,
817D9035,
60003A60,
00227C81,
63803540,
003A4000,
2240817D,
90356000,
3A600022,
7C816380,
3540003A,
40002240,
817D9035,
60003A60,
00227C81,
0F805240,
82383540,
003A4000,
22401990,
3560003A,
6000227C,
81638035,
40003A40,
0022400D,
90356000,
3A600022,
7C816380,
3540003A,
40002240,
817D9036,
60003B60,
00237C83,
47803640,
003B4000,
23401990,
3660003B,
6000237C,
83478036,
40003B40,
00234019,
90356000,
3A600022,
7C816380,
3540003A,
40002240,
0D903560,
003A6000,
227C8163,
80354000,
3A400022,
40817D90,
3560003A,
6000227C,
81638035,
40003A40,
00224081,
7D903560,
003A6000,
227C8163,
80354000,
3A400022,
40817D90,
3560003A,
6000227C,
83478035,
40003A40,
00224019,
90356000,
3A600022,
7C816380,
3540003A,
40002240,
0D903560,
003A6000,
227C8163,
80354000,
3A400022,
40817D90,
35600039,
6000217C,
83478035,
40003940,
00214019,
90356000,
39600021,
7C834780,
35400039,
40002140,
19903560,
003A6000,
227C8163,
80354000,
3A400022,
400D9035,
60003A60,
00227C81,
63803540,
003A4000,
22400D90,
31608163,
8031400D,
90356000,
3A600022,
7C816380,
3540003A,
40002240,
0D903160,
81638031,
400D9035,
60003A60,
00227C81,
63803540,
003A4000,
22400D90,
31608163,
8031400D,
90356000,
3A600022,
7C834780,
3540003A,
40002240,
19903560,
003A6000,
227C8163,
80354000,
3A400022,
400D9035,
60003A60,
00227C81,
63803540,
003A4000,
22400D90,
31608163,
8031400D,
90366000,
3B600023,
7C816380,
23400D90,
32608157,
80364000,
3B400C32,
400D9036,
60003B60,
00237C81,
63802340,
0D903260,
81578036,
40003B40,
0C32400D,
90356000,
3A600022,
7C816380,
3540003A,
40002240,
0D903560,
003A6000,
227C8163,
80354000,
3A400022,
400D9031,
60816380,
31400D90,
3560003A,
6000227C,
81638035,
40003A40,
0022400D,
90316081,
63803140,
0D903560,
003A6000,
227C8163,
80354000,
3A400022,
400D9031,
60816380,
31400D90,
3560003A,
6000227C,
83478035,
40003A40,
00224019,
90356000,
3A600022,
7C816380,
3540003A,
40002240,
0D903560,
003A6000,
227C8163,
80354000,
3A400022,
400D9031,
60816380,
31400D90,
35600039,
6000217C,
81638021,
400D9030,
60815780,
35400039,
400C3040,
0D903560,
00396000,
217C8163,
8021400D,
90306081,
57803540,
0039400C,
30400D90,
46600022,
60002960,
002E6083,
47804640,
19904D60,
8347804D,
4019904B,
60834780,
4B401990,
4D608347,
804D4019,
904E6083,
47804E40,
19905060,
824F8022,
40002940,
002E4078,
50401990,
4E600023,
60002F60,
8347804E,
4019904D,
60832F80,
2340002F,
40184D40,
19904660,
00226000,
2960002E,
60834780,
46401990,
4D608347,
804D4019,
904B6083,
47804B40,
19904D60,
8347804D,
40199049,
60834780,
49401990,
4B60824F,
80224000,
2940002E,
40784B40,
19904960,
00216000,
2D608347,
80494019,
90486083,
2F802140,
002D4018,
48401990,
41600046,
60002264,
002E6481,
63802240,
002E400D,
90226400,
2E648157,
80414000,
46400C22,
40002E40,
0D904961,
004D6100,
2265002E,
65816380,
2240002E,
400D9022,
66002E66,
81578049,
40004D40,
0C224000,
2E400D90,
4662004B,
62002266,
002E6681,
63802240,
002E400D,
90226700,
2E678157,
80464000,
4B400C22,
40002E40,
0D904964,
004D6400,
2269002E,
69816380,
2240002E,
400D9022,
69002E69,
81578049,
40004D40,
0C224000,
2E400D90,
4965004E,
6500226A,
002E6A81,
63802240,
002E400D,
90226B00,
2E6B8157,
80494000,
4E400C22,
40002E40,
0D904966,
00506600,
226B002E,
6B816380,
2240002E,
400D9022,
6C002E6C,
81578049,
40005040,
0C224000,
2E400D90,
4968004E,
6800226D,
002E6D81,
63802240,
002E400D,
90226D00,
2E6D8157,
80494000,
4E400C22,
40002E40,
0D904969,
004D6900,
226E002E,
6E816380,
2240002E,
400D9022,
6F002E6F,
81578049,
40004D40,
0C224000,
2E400D90,
416A0046,
6A00226F,
71802240,
07902E70,
71802E40,
07902270,
71802240,
07902E70,
5F804140,
00464012,
2E400790,
496C004D,
6C002271,
002E7181,
63802240,
002E400D,
90227171,
80224007,
902E725F,
80494000,
4D40122E,
40079046,
6D004B6D,
00227271,
80224007,
902E7271,
802E4007,
90227300,
2E738157,
80464000,
4B400C22,
40002E40,
0D90496E,
004D6E00,
22737180,
22400790,
2E747180,
2E400790,
2274002E,
74815780,
4940004D,
400C2240,
002E400D,
903A7000,
46700022,
70002E70,
8163803A,
40004640,
0D904270,
004E7071,
80424000,
4E400790,
4170004D,
705F8022,
40002E40,
12414000,
4D400790,
4270004E,
70816380,
4240004E,
400D9046,
70005270,
81638046,
40005240,
0D904570,
00517000,
1E70002A,
70825580,
45400051,
4013904D,
70005970,
5F801E40,
002A4019,
901D7000,
2970815D,
804D4000,
59401390,
45700051,
70815780,
1D400029,
400C4540,
0051400D,
90467B00,
527B0022,
75002E75,
78474F71,
80474007,
46400090,
464F7845,
4F718045,
40074640,
0090464F,
78474F71,
80474007,
46400090,
464F7845,
4F718045,
40074640,
0090464F,
78474F71,
80474007,
46400090,
464F7845,
5A718045,
40074640,
0090465A,
78475A71,
80474007,
90485A71,
80484007,
90495A17,
80524000,
46405A49,
4007904A,
6571804A,
4007904B,
6571804B,
4007904C,
6571804C,
40062240,
002E4001,
904D6571,
804D4007,
903D7B00,
317B8347,
803D4000,
31401990,
3C7B0030,
7B834780,
3C400030,
40199039,
7B002D7B,
83478039,
40002D40,
19903A7B,
00227B00,
2E7B8347,
803A4000,
2240002E,
4000FF2F,
00000000;