memory_initialization_radix=16;
memory_initialization_vector=
4D546864,
00000006,
00000001,
01E04D54,
726B0000,
529A00FF,
03045075,
726500FF,
58040603,
180800FF,
51030F42,
4000FF59,
02030000,
FF210100,
00C00000,
B0790000,
C00000B0,
0747000A,
40005B00,
005D0000,
90393100,
3D310040,
31004531,
00FF5902,
030000FF,
21010000,
902A3100,
363102B0,
407F8161,
80394000,
3D400040,
40004540,
0D904431,
65802A40,
00364013,
9036316B,
8044400D,
90403181,
5D803640,
0640400D,
90393100,
3D310040,
31004231,
00263100,
32318347,
80394000,
3D400040,
40004240,
19904231,
814B8026,
40003240,
1842400D,
90393100,
3D31002D,
31003431,
01B04000,
01407F81,
61803D40,
0D903E31,
65802D40,
00344013,
39400090,
39316B80,
3E400D90,
4031815D,
80394006,
40400D90,
3831003B,
31002831,
002F3100,
34317836,
31718036,
40073840,
00903831,
65802840,
002F4000,
34401390,
39317180,
39400790,
40317180,
4040073B,
4000903B,
31538038,
401E3B40,
07903931,
003D3100,
4531002A,
3101B040,
0001407F,
81618039,
40003D40,
0045400D,
90443165,
802A4013,
9031316B,
80444006,
31400790,
39310040,
31003631,
81638039,
40004040,
0036400D,
90393100,
3D310040,
31004231,
00263181,
63802640,
0D902D31,
71802D40,
07903231,
5F803940,
003D4000,
40400042,
4019903D,
31004031,
00423171,
803D4000,
40400042,
40079039,
31658032,
400C3940,
07903931,
003D3100,
2D3101B0,
40000140,
7F816180,
2D400D90,
34317180,
34400739,
40009039,
315F803D,
4019903D,
31815D80,
3940063D,
400D9038,
31003B31,
00283100,
34318163,
80284000,
34400D90,
2F317180,
2F400790,
34317180,
34400738,
40009038,
3178803B,
4000903B,
31538038,
401E3B40,
07903931,
003D3100,
4531002A,
3101B040,
0001407F,
81618039,
40003D40,
0045400D,
90443165,
802A4013,
9031316B,
80444006,
31400790,
3931003D,
31004031,
00363181,
63803940,
003D4000,
40400036,
400D9039,
31003D31,
00403100,
42310026,
31816380,
26400D90,
2D317180,
2D400790,
32315F80,
3940003D,
40004040,
00424019,
90393100,
3D310040,
31815D80,
32400639,
40003D40,
0040400D,
90383100,
3B310028,
3101B040,
0001407F,
81618028,
400D902F,
3171802F,
40079034,
315F8038,
40003B40,
19903831,
003B3100,
3E31815D,
80344006,
3840003B,
40003E40,
0D903931,
003D3100,
2D318163,
802D400D,
90343171,
80344007,
39400090,
39315F80,
3D401239,
4007903B,
31004031,
002C3181,
63803B40,
00404000,
2C400D90,
3931003D,
31004031,
002A3101,
B0400001,
407F8161,
80394000,
3D400040,
400D9038,
3165802A,
40139031,
316B8038,
400D9039,
31815D80,
31400639,
400D9036,
31002631,
3F393140,
40316480,
26400D90,
2D317180,
2D400790,
32317680,
39400040,
40013640,
01903631,
00393181,
5D803240,
06364000,
39400D90,
3931003B,
31004031,
00283101,
B0400001,
407F816E,
902F3178,
34317880,
39400090,
39317880,
3B400090,
3B315380,
40400039,
401E3B40,
07904031,
00453100,
4731813F,
8028407E,
2F407834,
40817640,
40004540,
00474025,
90493100,
363101B0,
40000140,
7F3D904C,
31405131,
6F804C40,
00514001,
49400190,
50318163,
8050400D,
904C3181,
4B803640,
184C400D,
90453100,
32313F49,
31404C31,
404E3181,
27804940,
004C4000,
4E400145,
40019045,
31718045,
40079049,
31004C31,
004E3181,
4B803240,
18494000,
4C40004E,
400D9040,
31003931,
01B04000,
01407F3D,
90453140,
49316F80,
45400049,
40014040,
01904A31,
71804A40,
07904531,
784C3181,
4B803940,
12454006,
4C400D90,
40310047,
31003431,
71803440,
07903631,
71803640,
07903831,
71803840,
07903931,
71803940,
07404000,
90403178,
3B315380,
47400040,
401E3B40,
07903D31,
00403100,
4531002A,
3101B040,
0001407F,
8161803D,
40004040,
0045400D,
903D3100,
44316580,
2A401390,
31316B80,
3D400044,
40063140,
07903D31,
00403100,
36317180,
36400790,
31316B80,
3D400040,
40063140,
07903D31,
00403100,
45310026,
31816380,
26400D90,
2D316580,
3D400040,
40004540,
13903B31,
0040316B,
802D400D,
9032316B,
803B4000,
40400D90,
3B310040,
316B8032,
40063B40,
00404007,
903B3100,
40310045,
31002831,
01B04000,
01407F82,
53802840,
13902F31,
5F803B40,
00404000,
4540122F,
4007903B,
31004031,
00343171,
803B4007,
9039316B,
80404006,
39400790,
3931003D,
31658034,
4013902D,
31003431,
6B803940,
003D400D,
903B3100,
3E31815D,
802D4000,
3440063B,
40003E40,
0D903B31,
00403100,
2C310034,
31816380,
3B400040,
40002C40,
0034400D,
90393100,
3D310040,
31004531,
002A3101,
B0400001,
407F8161,
80394000,
3D400040,
40004540,
0D904431,
65802A40,
13903131,
6B804440,
06314007,
90393100,
3D310040,
31003631,
81638039,
40003D40,
00404000,
36400D90,
3931003D,
31004031,
00263181,
63802640,
0D902D31,
71802D40,
07903231,
5F803940,
003D4000,
40401990,
3D310040,
3171803D,
40004040,
07903931,
65803240,
0C394007,
90393100,
3D310040,
31002831,
01B04000,
01407F82,
53802840,
13902F31,
5F803940,
003D4000,
4040122F,
40079039,
31003D31,
00343171,
80394000,
3D400790,
40317838,
31003B31,
65803440,
13903431,
65804040,
06384000,
3B400D90,
34310080,
34407890,
38317180,
38400790,
3B315F80,
34401990,
2F316B80,
3B40062F,
40079039,
31002A31,
01B04000,
01407F81,
61802A40,
0D903131,
65803940,
13903931,
0040316B,
8031400D,
9036316B,
80394000,
40400D90,
3D310040,
31004531,
6B803640,
063D4000,
40400045,
4007903D,
31004031,
00453100,
28318163,
803D4000,
40400045,
40002840,
0D903B31,
00443100,
31318163,
803B4000,
44400031,
400D903D,
31004031,
00453100,
34318163,
803D4000,
40400045,
40003440,
0D904031,
00263101,
B0400001,
407F3D90,
45314049,
31404C31,
24802640,
0D902D31,
8163802D,
400D9032,
31816380,
32400B45,
40004940,
004C4001,
40400190,
4C310034,
313F5131,
40583164,
8034400D,
90363181,
63803640,
0D903D31,
8163803D,
400B5140,
00584001,
4C400190,
58310039,
3101B040,
0001407F,
1B805840,
01905D31,
1D805D40,
02906131,
1D806140,
03905531,
897A8039,
40035540,
46FF5103,
0E31B900,
90513100,
2A3101B0,
40000140,
7F498051,
40059045,
314B8045,
40059049,
3143802A,
40084940,
05905131,
0031314B,
80514005,
9045314B,
80454005,
90493143,
80314008,
49400590,
50310036,
314B8050,
40059045,
314B8045,
40059049,
31438036,
40084940,
05904E31,
0026314B,
804E4005,
9042314B,
80424005,
90453143,
80264008,
45400590,
4E31002D,
314B804E,
40059042,
314B8042,
40059045,
3143802D,
40084540,
05904C31,
0032314B,
804C4005,
9040314B,
80404005,
90453143,
80324008,
45400590,
4931002D,
3101B040,
0001407F,
49804940,
05904031,
4B804040,
05904531,
43802D40,
08454005,
904C3100,
34314B80,
4C400590,
40314B80,
40400590,
45314380,
34400845,
40059049,
31003931,
4B804940,
05904031,
4B804040,
05904531,
43803940,
08454005,
90473100,
28314B80,
47400590,
40314B80,
40400590,
42314380,
28400842,
40059044,
31002F31,
4B804440,
05904531,
4B804540,
05904731,
43802F40,
08474005,
90493100,
34314B80,
49400590,
4A314B80,
4A400590,
4C314380,
3440084C,
40059051,
31002A31,
01B04000,
01407F49,
80514005,
9045314B,
80454005,
90493143,
802A4008,
49400590,
51310031,
314B8051,
40059045,
314B8045,
40059049,
31438031,
40084940,
05905031,
0036314B,
80504005,
9045314B,
80454005,
90493143,
80364008,
49400590,
4E310026,
314B804E,
40059042,
314B8042,
40059045,
31438026,
40084540,
05904E31,
002D314B,
804E4005,
9042314B,
80424005,
90453143,
802D4008,
45400590,
4C310032,
314B804C,
40059040,
314B8040,
40059045,
31438032,
40084540,
05904931,
002D3101,
B0400001,
407F4980,
49400590,
40314B80,
40400590,
45314380,
2D400845,
4005904C,
31003431,
4B804C40,
05904031,
4B804040,
05904531,
43803440,
08454005,
90493100,
39314B80,
49400590,
40314B80,
40400590,
45314380,
39400845,
40059047,
31002831,
4B804740,
05904031,
4B804040,
05904431,
43802840,
08444005,
90473100,
2F314B80,
47400590,
44314B80,
44400590,
4C314380,
2F40084C,
40059047,
31003431,
4B804740,
05905031,
4B805040,
05904C31,
43803440,
084C4005,
90513100,
2A3101B0,
40000140,
7F498051,
40059045,
314B8045,
40059049,
3143802A,
40084940,
05905131,
0031314B,
80514005,
9045314B,
80454005,
90493143,
80314008,
49400590,
50310036,
314B8050,
40059045,
314B8045,
40059049,
31438036,
40084940,
05904E31,
0026314B,
804E4005,
9042314B,
80424005,
90453143,
80264008,
45400590,
4E31002D,
314B804E,
40059042,
314B8042,
40059045,
3143802D,
40084540,
05904C31,
0032314B,
804C4005,
9040314B,
80404005,
90453143,
80324008,
45400590,
4931002D,
3101B040,
0001407F,
49804940,
05904031,
4B804040,
05904531,
43802D40,
08454005,
904C3100,
34314B80,
4C400590,
40314B80,
40400590,
45314380,
34400845,
40059049,
31003931,
4B804940,
05904031,
4B804040,
05904531,
43803940,
08454005,
90473100,
28314B80,
47400590,
40314B80,
40400590,
44314380,
28400844,
4005904A,
31002F31,
4B804A40,
05904031,
4B804040,
05904431,
43802F40,
08444005,
90493100,
29314F80,
49400190,
3D314B80,
3D400590,
44314B80,
44400429,
40019047,
31002A31,
01B04000,
01407F49,
80474005,
903D314B,
803D4005,
90423143,
802A4008,
42400590,
45310031,
314B8045,
4005903D,
314B803D,
40059042,
31438031,
40084240,
05904431,
0036314B,
80444005,
903D314B,
803D4005,
90423143,
80364008,
42400590,
4531002F,
314B8045,
4005903F,
314B803F,
40059042,
3143802F,
40084240,
05904931,
0036314B,
80494005,
903F314B,
803F4005,
90423143,
80364008,
42400590,
4E310039,
314B804E,
40059045,
314B8045,
40059049,
31438039,
40084940,
05905131,
002C3101,
B0400001,
407F4980,
51400590,
48314B80,
48400590,
4B314380,
2C40084B,
40059050,
31003331,
4B805040,
05904831,
4B804840,
05904B31,
43803340,
084B4005,
904E3100,
38314B80,
4E400590,
48314B80,
48400590,
4B314380,
3840084B,
4005904E,
31003131,
4B804E40,
05904431,
4B804440,
05904931,
43803140,
08494005,
904E3100,
38314B80,
4E400590,
44314B80,
44400590,
49314380,
38400849,
4005904D,
31003D31,
4B804D40,
05904431,
4B804440,
05904931,
43803D40,
08494005,
90503100,
353101B0,
40000140,
7F498050,
40059049,
314B8049,
4005904D,
31438035,
40084D40,
05905031,
0038314B,
80504005,
904D314B,
804D4005,
90503143,
80384008,
50400590,
5531003D,
314B8055,
40059050,
314B8050,
40059055,
3143803D,
40085540,
05905931,
0041314B,
80594005,
9055314B,
80554005,
90593143,
80414008,
59400590,
5C310044,
314B805C,
40059059,
314B8059,
4005905C,
31438044,
40085C40,
05906131,
00493181,
63806140,
0049400D,
90514000,
2A4001B0,
40000140,
7F498051,
40059045,
404B8045,
40059049,
4043802A,
40084940,
05905140,
0031404B,
80514005,
9045404B,
80454005,
90494043,
80314008,
49400590,
50400036,
404B8050,
40059045,
404B8045,
40059049,
40438036,
40084940,
05904E40,
0026404B,
804E4005,
9042404B,
80424005,
90454043,
80264008,
45400590,
4E40002D,
404B804E,
40059042,
404B8042,
40059045,
4043802D,
40084540,
05904C40,
0032404B,
804C4005,
9040404B,
80404005,
90454043,
80324008,
45400590,
4940002D,
4001B040,
0001407F,
49804940,
05904040,
4B804040,
05904540,
43802D40,
08454005,
904C4000,
34404B80,
4C400590,
40404B80,
40400590,
45404380,
34400845,
40059049,
40003940,
4B804940,
05904040,
4B804040,
05904540,
43803940,
08454005,
90474000,
28404B80,
47400590,
40404B80,
40400590,
42404380,
28400842,
40059044,
40002F40,
4B804440,
05904540,
4B804540,
05904740,
43802F40,
08474005,
90494000,
34404B80,
49400590,
4A404B80,
4A400590,
4C404380,
3440084C,
40059051,
40002A40,
01B04000,
01407F49,
80514005,
9045404B,
80454005,
90494043,
802A4008,
49400590,
51400031,
404B8051,
40059045,
404B8045,
40059049,
40438031,
40084940,
05905040,
0036404B,
80504005,
9045404B,
80454005,
90494043,
80364008,
49400590,
4E400026,
404B804E,
40059042,
404B8042,
40059045,
40438026,
40084540,
05904E40,
002D404B,
804E4005,
9042404B,
80424005,
90454043,
802D4008,
45400590,
4C400032,
404B804C,
40059040,
404B8040,
40059045,
40438032,
40084540,
05904940,
002D4001,
B0400001,
407F4980,
49400590,
40404B80,
40400590,
45404380,
2D400845,
4005904C,
40003440,
4B804C40,
05904040,
4B804040,
05904540,
43803440,
08454005,
90494000,
39404B80,
49400590,
40404B80,
40400590,
45404380,
39400845,
40059047,
40002840,
4B804740,
05904040,
4B804040,
05904440,
43802840,
08444005,
90474000,
2F404B80,
47400590,
44404B80,
44400590,
4C404380,
2F40084C,
40059047,
40003440,
4B804740,
05905040,
4B805040,
05904C40,
43803440,
084C4005,
90514000,
2A4001B0,
40000140,
7F498051,
40059045,
404B8045,
40059049,
4043802A,
40084940,
05905140,
0031404B,
80514005,
9045404B,
80454005,
90494043,
80314008,
49400590,
50400036,
404B8050,
40059045,
404B8045,
40059049,
40438036,
40084940,
05905140,
002C404B,
80514005,
9047404B,
80474005,
904C4043,
802C4008,
4C400590,
53400034,
404B8053,
4005904C,
404B804C,
40059047,
40438034,
40084740,
05904C40,
0038404B,
804C4005,
9047404B,
80474005,
90534043,
80384008,
53400590,
5650002D,
5001B040,
0001407F,
49805640,
05904C50,
4B804C40,
05905150,
43802D40,
08514005,
90555000,
34504B80,
55400590,
4C504B80,
4C400590,
51504380,
34400851,
40059053,
50003950,
4B805340,
05905150,
4B805140,
05904C50,
43803940,
084C4005,
90555000,
31504B80,
55400590,
504D4B80,
50400590,
4E4A4380,
3140084E,
40059049,
46003846,
4B804940,
05905043,
4B805040,
05904E3F,
43803840,
084E4005,
90493C00,
3D3C4B80,
49400590,
4E384B80,
4E400590,
50354380,
3D400850,
4005FF51,
030F4240,
00905131,
00323101,
B0400001,
407F4980,
51400590,
45314B80,
45400590,
49314380,
32400849,
40059051,
31003931,
4B805140,
05904531,
4B804540,
05904931,
43803940,
08494005,
90503100,
3D314B80,
50400590,
45314B80,
45400590,
49314380,
3D400849,
40059051,
31003431,
4B805140,
05904731,
4B804740,
05904931,
43803440,
08494005,
90503100,
3B314B80,
50400590,
47314B80,
47400590,
49314380,
3B400849,
4005904C,
31003D31,
4B804C40,
05904731,
4B804740,
05904931,
43803D40,
08494005,
FF510310,
7EF90090,
4E310036,
3101B040,
0001407F,
49804E40,
05904731,
4B804740,
05904931,
43803640,
08494005,
904E3100,
3D314B80,
4E400590,
47314B80,
47400590,
49314380,
3D400849,
4005904E,
31004231,
4B804E40,
05904731,
4B804740,
05904931,
43804240,
08494005,
904E3100,
36314B80,
4E400590,
46314B80,
46400590,
49314380,
36400849,
4005904E,
31003D31,
4B804E40,
05904631,
4B804640,
05904931,
43803D40,
08494005,
904E3100,
42317780,
4E400190,
4C316B80,
42400C4C,
4001FF51,
030F4240,
00904A31,
002F3101,
B0400001,
407F6F80,
2F400790,
36317180,
36400790,
39316580,
4A400C39,
40079049,
31003B31,
71804940,
003B4007,
904A3100,
42317180,
4A400790,
4E316B80,
4240064E,
40079047,
31002831,
3F4C3132,
80284007,
902F3107,
50316A80,
2F400790,
34317180,
34400790,
36317180,
3640054C,
40005040,
01474001,
904A3100,
38317180,
4A400790,
47316B80,
38400647,
40079049,
31002D31,
01B04000,
01407F6F,
802D4007,
90343171,
80344007,
90393165,
8049400C,
39400790,
4731003B,
31718047,
40003B40,
07904931,
003D3171,
80494007,
9050316B,
803D4006,
50400790,
45310026,
313F4931,
32802640,
07902D31,
074E316A,
802D4007,
90323171,
80324007,
90343171,
80344007,
90363171,
80364007,
90393171,
80394005,
4940004E,
40014540,
01904731,
002B3101,
B0400001,
407F6F80,
2B400790,
32316B80,
47400632,
40079049,
31003731,
71803740,
07903B31,
6B804940,
063B4007,
904A3100,
3E317180,
4A400790,
4E316B80,
3E40064E,
40079044,
31002531,
3F493132,
80254007,
902C3107,
4D316A80,
2C400549,
40004D40,
01444001,
90443100,
4E310031,
31718031,
40079035,
316B8044,
40004E40,
06354007,
90503100,
38317180,
50400790,
49316B80,
38400649,
40079049,
31002A31,
01B04000,
01407F3D,
904E3132,
802A4007,
90313107,
53316A80,
3140054E,
40005340,
01494001,
90513100,
36317180,
36400790,
39316B80,
51400639,
40079050,
31003D31,
71805040,
003D4007,
904E3100,
42317180,
4E400042,
4007904D,
31003131,
71804D40,
00314007,
90493100,
38317180,
49400038,
4007FF51,
03107EF9,
00905631,
003D3171,
803D4007,
9041316B,
8056400D,
90553181,
5D804140,
0655400D,
FF51030F,
42400090,
4A310051,
31002F31,
01B04000,
01407F6F,
802F4007,
9036316B,
804A4000,
51400636,
4007904A,
31005131,
00393171,
80394007,
903B316B,
804A4000,
5140063B,
4007904A,
31005031,
00423171,
804A4000,
50400790,
4E316B80,
4240064E,
40079047,
31002831,
1B4C311C,
50313A80,
2840054C,
40005040,
01474001,
90513100,
2F317180,
5140002F,
40079053,
31003431,
71803440,
07903631,
71803640,
07903831,
71803840,
07903B31,
5F805340,
123B4007,
90493100,
2D3101B0,
40000140,
7F3D904C,
3132802D,
40079034,
31075031,
6A803440,
054C4000,
50400149,
40019049,
31005031,
00383171,
80384007,
9039316B,
80494000,
50400639,
40079049,
31005531,
003D3171,
80494000,
55400790,
4C316B80,
3D40064C,
4007904E,
31003231,
003D3171,
804E4000,
3240003D,
40079050,
31003931,
71805040,
00394007,
904E3100,
3D317180,
3D400790,
3E317180,
3E400790,
42317180,
42400790,
45315F80,
4E401245,
4007904F,
40005340,
002B4001,
B0400001,
407F6F80,
4F400053,
40002B40,
07904E40,
00514000,
32407180,
4E400051,
40003240,
07904740,
004F4000,
37407180,
37400790,
39407180,
39400790,
3B407180,
3B400790,
3E405F80,
4740004F,
40123E40,
07904740,
004A4000,
43407180,
4740004A,
40004340,
07904540,
00494000,
3E407180,
45400049,
40003E40,
07904340,
00474000,
3B407180,
3B400790,
37406B80,
43400047,
40063740,
07904740,
004A4000,
32407180,
32400790,
2B406B80,
4740004A,
40062B40,
07904240,
00474000,
2A4001B0,
40000140,
7F6F8042,
40004740,
002A4007,
90424000,
49400031,
40718042,
40004940,
00314007,
90474000,
4E400036,
40718047,
40004E40,
00364007,
90424000,
4940003B,
40718042,
40004940,
003B4007,
90474000,
4E40003D,
40718047,
40004E40,
003D4007,
904E4000,
53400042,
4071804E,
40005340,
00424007,
FF510311,
70490090,
4E400055,
40004740,
71804E40,
00554000,
47400790,
4E400053,
40004940,
71804E40,
00534000,
49400790,
5540004E,
40718055,
40004E40,
07905A40,
00494071,
805A4000,
49400790,
5A40005F,
40004740,
71805A40,
005F4000,
47400790,
5A400061,
40004940,
71805A40,
00614000,
494007FF,
58040303,
18080090,
5A4C002A,
4C01B040,
0001407F,
3D905F4C,
40614C40,
664C840F,
805F4000,
61400066,
40015A40,
002A4001,
FF580406,
03180800,
FF510307,
A12000FF,
59020200,
00904740,
00FF5902,
02000090,
2B4001B0,
40000140,
7F3D904A,
40404E40,
64802B40,
0B4A4000,
4E400147,
40019047,
40004C40,
00324081,
63804740,
004C4000,
32400D90,
4A40004E,
40003740,
8163804A,
40004E40,
0037400D,
904C4000,
5340003B,
40816380,
3B400D90,
3E408157,
804C4000,
53401990,
4740004E,
40815780,
3E401990,
2D4001B0,
40000140,
7F815580,
4740004E,
400C2D40,
0D904C40,
00344081,
63804C40,
0034400D,
90474000,
4A40004E,
40003940,
81638047,
40004A40,
004E4000,
39400D90,
4C400055,
40003B40,
8163803B,
400D903D,
40815780,
4C400055,
4019904E,
40815780,
3D401990,
2F4001B0,
40000140,
7F815580,
4E400C2F,
400D904C,
40003640,
8163804C,
40003640,
0D904E40,
003B4081,
63804E40,
003B400D,
90564000,
3D408163,
80564000,
3D400D90,
5540003E,
40378055,
40059056,
40378056,
40059055,
40718055,
40079051,
40815780,
3E400C51,
400D904E,
40002D40,
01B04000,
01407F81,
61804E40,
002D400D,
904C4000,
36408163,
804C4000,
36400D90,
51400039,
40816380,
51400039,
400D904E,
40003B40,
8347804E,
40199047,
40004A40,
814B803B,
40259042,
40002B40,
01B04000,
01407F81,
55804740,
004A400C,
4240002B,
400D9049,
40003240,
81638049,
40003240,
0D904240,
004A4000,
37408163,
80424000,
4A400037,
400D9047,
40004E40,
00394081,
63803940,
0D903B40,
81578047,
40004E40,
19904240,
00474000,
4A408157,
803B400C,
47400D90,
4740002D,
4001B040,
0001407F,
81558042,
40004A40,
0C474000,
2D400D90,
49400034,
40816380,
49400034,
400D9042,
40004A40,
00394081,
63804240,
004A4000,
39400D90,
5140003B,
40816380,
3B400D90,
3D408157,
80514019,
904A4081,
57803D40,
0C4A400D,
90454000,
4940002A,
4001B040,
0001407F,
8161802A,
400D9036,
40815780,
45400049,
400C3640,
0D904540,
00394081,
63804540,
0039400D,
90424000,
3D408163,
803D400D,
90404081,
57804240,
19904E40,
81578040,
400C4E40,
0D904C40,
002F4001,
B0400001,
407F3580,
4C400590,
4E403780,
4E400590,
4C406B80,
2F40064C,
4007904A,
40003640,
8163804A,
40003640,
0D904940,
00394081,
63804940,
0039400D,
904A4000,
3B408163,
804A4000,
3B400D90,
4C400042,
40816380,
4C400D90,
4E408157,
80424019,
90474000,
2B4001B0,
40000140,
7F815580,
4E400C47,
40002B40,
0D904C40,
00324081,
63804C40,
0032400D,
90474000,
4A40004E,
40003740,
81638047,
40004A40,
004E4000,
37400D90,
4A400053,
40003B40,
8163803B,
400D903E,
40815780,
4A400053,
40199047,
40004E40,
8157803E,
4019902D,
4001B040,
0001407F,
81558047,
40004E40,
0C2D400D,
90474000,
4C400034,
40816380,
4740004C,
40003440,
0D904A40,
004E4000,
39408163,
804A4000,
4E400039,
400D904C,
40005540,
003B4081,
63803B40,
0D903D40,
8157804C,
40005540,
19904540,
00474000,
4E408157,
803D4019,
902F4001,
B0400001,
407F8155,
80454000,
4740004E,
400C2F40,
0D904C40,
00364081,
63804C40,
0036400D,
90474000,
4A40004E,
40003B40,
81638047,
40004A40,
004E4000,
3B400D90,
4E400056,
40003D40,
8163804E,
40005640,
003D400D,
90554000,
3E403780,
55400590,
56403780,
56400590,
55407180,
55400790,
51408157,
803E400C,
51400D90,
4E40002D,
4001B040,
0001407F,
8161804E,
40002D40,
0D904C40,
00364081,
63804C40,
0036400D,
90514000,
39408163,
80514000,
39400D90,
4E40003D,
403B804E,
40019051,
403B8051,
4001904E,
4071804E,
4007904C,
40816380,
4C400D90,
4A40814B,
803D4018,
4A400D90,
4940002B,
4001B040,
0001407F,
81618049,
40002B40,
0D904A40,
00324081,
63804A40,
0032400D,
90474000,
37408163,
8037400D,
903B4081,
57804740,
0C3B400D,
904E4000,
3E408163,
804E400D,
90474081,
57803E40,
0C47400D,
FF580404,
02180800,
90494000,
2D4001B0,
40000140,
7F816180,
4940002D,
400D904A,
40003440,
8163804A,
40003440,
0D904740,
00394081,
63803940,
0D903B40,
81578047,
400C3B40,
0D904E40,
003D4081,
63804E40,
0D904940,
81638049,
400D9040,
40816380,
40400D90,
4540813F,
803D4024,
45400DFF,
58040603,
18080090,
4940002F,
4001B040,
0001407F,
81618049,
400D9040,
40816380,
40400D90,
4940814B,
802F4018,
49400D90,
3E40003B,
40816380,
3E400D90,
42408163,
8042400D,
90494081,
63804940,
0D904740,
01B04000,
01407F85,
05803B40,
24474025,
90414000,
31403F49,
40846C80,
31402349,
40014140,
01FF5103,
0F424000,
FF590203,
0000903D,
4000FF59,
02030000,
902A4001,
B0400001,
407F3D90,
40404045,
4064802A,
400B4040,
00454001,
3D400190,
3D400044,
40003140,
71803140,
07903640,
6B803D40,
0044400D,
90404081,
5D803640,
0640400D,
90394000,
26403F3D,
40404040,
41424023,
8026400D,
902D4071,
802D4007,
90324076,
803D4000,
40400139,
40004240,
01903D40,
00404000,
4240815D,
80324006,
3D400040,
40004240,
0D903940,
003D4000,
2D400034,
4001B040,
0001407F,
8161803D,
400D903E,
4065802D,
40003440,
13903440,
6B803E40,
0D904040,
814B8039,
40123440,
0640400D,
90344000,
3840003B,
40002840,
71803440,
07903640,
71803640,
07384000,
90384065,
80284013,
90394000,
34407180,
39400790,
40406B80,
34400640,
4007903E,
4053803B,
40003840,
1E3E4007,
90394000,
2A4001B0,
40000140,
7F3D903D,
40404540,
6F803D40,
00454001,
39400190,
44406580,
2A401390,
31406B80,
44400631,
40079040,
40003640,
81638040,
40003640,
0D903940,
0026403F,
3D404040,
40414240,
23802640,
0D902D40,
71802D40,
07903240,
76803D40,
00404001,
39400042,
4001903D,
40004240,
815D8032,
40063D40,
0042400D,
90394000,
3D40002D,
4001B040,
0001407F,
8161802D,
400D9034,
40718034,
40073940,
00903940,
5F803D40,
19903D40,
815D8039,
40063D40,
0D903840,
003B4000,
28408163,
8028400D,
902F4071,
802F4007,
90344071,
80344007,
90364071,
80364007,
38400090,
38405380,
3B401E38,
40079039,
40002A40,
01B04000,
01407F3D,
903D4032,
802A4007,
90314007,
45406F80,
3D400045,
40013940,
01904440,
6B803140,
0D903640,
6B804440,
0D903940,
003D4000,
4040815D,
80364006,
3940003D,
40004040,
0D903940,
0026403F,
3D404040,
40414240,
23802640,
0D902D40,
71802D40,
07903240,
76803D40,
00404001,
39400042,
4001903D,
40004040,
00424081,
5D803240,
063D4000,
40400042,
400D9038,
40003B40,
00284001,
B0400001,
407F8161,
8028400D,
902F4071,
802F4007,
9034405F,
80384000,
3B401990,
3E40815D,
80344006,
3E400D90,
3940003D,
40002D40,
8163802D,
400D9034,
40658039,
40003D40,
13903D40,
6B803440,
063D4007,
903E4000,
2C407180,
3E400790,
40406B80,
2C400640,
40079039,
40002A40,
01B04000,
01407F81,
61803940,
0D903840,
65802A40,
13903140,
6B803840,
06314007,
90394000,
36408163,
80394000,
36400D90,
36400039,
40004040,
00264081,
63802640,
0D902D40,
71802D40,
07903240,
5F803640,
00394000,
40401990,
36400039,
40815D80,
32400636,
40003940,
0D903940,
001C4001,
B0400001,
407F6F80,
39400790,
38407180,
38400790,
39406580,
1C400C39,
40079040,
40002F40,
71804040,
07904440,
71804440,
07904540,
65802F40,
0C454007,
904C4000,
34407180,
4C400790,
50407180,
50400790,
51406580,
34400C51,
40079058,
40002F40,
71805840,
07905C40,
71805C40,
07905D40,
65802F40,
0C5D4007,
90644000,
284001B0,
40000140,
7F8A5580,
64400028,
40499049,
31004C31,
00363101,
B0400001,
407F3D90,
5131812F,
80514001,
4C400190,
50318163,
8050400D,
904C3181,
4B804940,
00364018,
4C400D90,
45310032,
313F4931,
404C3141,
4E312380,
32400D90,
39317180,
39400790,
3E317680,
4940004C,
40014540,
004E4001,
90493100,
4C31004E,
31815D80,
3E400649,
40004C40,
004E400D,
90453100,
49310039,
3101B040,
0001407F,
81618039,
400D9040,
31815780,
45400049,
4019904C,
31815780,
40400C4C,
400D9044,
31004731,
00343171,
80344007,
903B3171,
803B4007,
90403171,
80404007,
90423171,
80424007,
44400090,
44317880,
47400090,
47315380,
44401E47,
40079045,
31002A31,
01B04000,
01407F81,
61804540,
0D904031,
00443165,
802A4013,
9031316B,
80404000,
44400631,
40079039,
31004031,
00363181,
63803940,
00404000,
36400D90,
39310026,
313F3D31,
40403141,
42312380,
26400D90,
2D317180,
2D400790,
32317680,
3D400040,
40013940,
00424001,
903D3100,
40310042,
3171803D,
40004040,
00424007,
90393165,
8032400C,
39400790,
3931003D,
31002D31,
01B04000,
01407F81,
61803940,
003D400D,
903B3100,
3E316580,
2D401390,
34316B80,
3B40003E,
40063440,
07903D31,
00403100,
39318163,
803D4000,
40400039,
400D9038,
31003B31,
00283171,
80284007,
902F3171,
802F4007,
90343171,
80344007,
90363171,
80364007,
38400090,
3831783E,
3153803B,
40003840,
1E3E4007,
90393100,
2A3101B0,
40000140,
7F816180,
39400D90,
38316580,
2A401390,
31317180,
31400790,
36316580,
38401390,
39310040,
316B8036,
40063940,
00404007,
90393100,
40310028,
31816380,
28400D90,
31316580,
39400040,
400C3140,
07903B31,
00443100,
34318163,
803B4000,
44400D90,
45316580,
34400C45,
40079045,
31004C31,
00263101,
B0400001,
407F8161,
8026400D,
902D3171,
802D4007,
90323171,
80324007,
90343171,
80344007,
90393153,
80454000,
4C401E39,
40079045,
31004C31,
003E3181,
63803E40,
0D454000,
90453165,
804C400C,
45400790,
51310049,
31718051,
40079053,
31718053,
40079058,
31658049,
400C5840,
07905D31,
00643101,
B0400001,
407F8871,
805D4000,
64403D90,
49318163,
8049400D,
FF51030E,
31B90090,
5140002A,
4001B040,
0001407F,
49805140,
05904540,
4B804540,
05904940,
43802A40,
08494005,
90514000,
31404B80,
51400590,
45404B80,
45400590,
49404380,
31400849,
40059050,
40003640,
4B805040,
05904540,
4B804540,
05904940,
43803640,
08494005,
904E4000,
26404B80,
4E400590,
42404B80,
42400590,
45404380,
26400845,
4005904E,
40002D40,
4B804E40,
05904240,
4B804240,
05904540,
43802D40,
08454005,
904C4000,
32404B80,
4C400590,
40404B80,
40400590,
45404380,
32400845,
40059049,
40002D40,
01B04000,
01407F49,
80494005,
9040404B,
80404005,
90454043,
802D4008,
45400590,
4C400034,
404B804C,
40059040,
404B8040,
40059045,
40438034,
40084540,
05904940,
0039404B,
80494005,
9040404B,
80404005,
90454043,
80394008,
45400590,
47400028,
404B8047,
40059040,
404B8040,
40059042,
40438028,
40084240,
05904440,
002F404B,
80444005,
9045404B,
80454005,
90474043,
802F4008,
47400590,
49400034,
404B8049,
4005904A,
404B804A,
4005904C,
40438034,
40084C40,
05905140,
002A4001,
B0400001,
407F4980,
51400590,
45404B80,
45400590,
49404380,
2A400849,
40059051,
40003140,
4B805140,
05904540,
4B804540,
05904940,
43803140,
08494005,
90504000,
36404B80,
50400590,
45404B80,
45400590,
49404380,
36400849,
4005904E,
40002640,
4B804E40,
05904240,
4B804240,
05904540,
43802640,
08454005,
904E4000,
2D404B80,
4E400590,
42404B80,
42400590,
45404380,
2D400845,
4005904C,
40003240,
4B804C40,
05904040,
4B804040,
05904540,
43803240,
08454005,
90494000,
2D4001B0,
40000140,
7F498049,
40059040,
404B8040,
40059045,
4043802D,
40084540,
05904C40,
0034404B,
804C4005,
9040404B,
80404005,
90454043,
80344008,
45400590,
49400039,
404B8049,
40059040,
404B8040,
40059045,
40438039,
40084540,
05904740,
0028404B,
80474005,
9040414B,
80404005,
90444343,
80284008,
44400590,
4745002F,
454B8047,
40059044,
474B8044,
4005904C,
4843802F,
40084C40,
0590474A,
00344A4B,
80474005,
90504C4B,
80504005,
904C4E43,
80344008,
4C400590,
5150002A,
5001B040,
0001407F,
49805140,
05904550,
4B804540,
05904950,
43802A40,
08494005,
90515000,
31504B80,
51400590,
45504B80,
45400590,
49504380,
31400849,
40059050,
50003650,
4B805040,
05904550,
4B804540,
05904950,
43803640,
08494005,
904E5000,
26504B80,
4E400590,
42504B80,
42400590,
45504380,
26400845,
4005904E,
50002D50,
4B804E40,
05904250,
4B804240,
05904550,
43802D40,
08454005,
904C5000,
32504B80,
4C400590,
40504B80,
40400590,
45504380,
32400845,
40059049,
50002D50,
01B04000,
01407F49,
80494005,
9040504B,
80404005,
90455043,
802D4008,
45400590,
4C500034,
504B804C,
40059040,
504B8040,
40059045,
50438034,
40084540,
05904950,
0039504B,
80494005,
9040504B,
80404005,
90455043,
80394008,
45400590,
47500028,
504B8047,
40059040,
504B8040,
40059044,
50438028,
40084440,
05904A50,
002F504B,
804A4005,
9040504B,
80404005,
90445043,
802F4008,
44400590,
49500029,
504B8049,
4005903D,
504B803D,
40059044,
50438029,
40084440,
05904750,
002A5001,
B0400001,
407F4980,
47400590,
3D4F4B80,
3D400590,
424D4380,
2A400842,
40059045,
4B00314B,
4B804540,
05903D49,
4B803D40,
05904248,
43803140,
08424005,
90444600,
36464B80,
44400590,
3D444B80,
3D400590,
42424380,
36400842,
40059045,
40002F40,
4B804540,
05903F40,
4B803F40,
05904240,
43802F40,
08424005,
90494000,
36404B80,
49400590,
3F404B80,
3F400590,
42404380,
36400842,
4005904E,
40003940,
4B804E40,
05904540,
4B804540,
05904940,
43803940,
08494005,
FF51030F,
42400090,
5140002C,
4001B040,
0001407F,
49805140,
05904840,
4B804840,
05904B40,
43802C40,
084B4005,
90504000,
33404B80,
50400590,
48404B80,
48400590,
4B404380,
3340084B,
4005904E,
40003840,
4B804E40,
05904840,
4B804840,
05904B40,
43803840,
084B4005,
904E4000,
31404B80,
4E400590,
44404B80,
44400590,
49404380,
31400849,
4005904E,
40003840,
4B804E40,
05904440,
4B804440,
05904940,
43803840,
08494005,
904D4000,
3D404B80,
4D400590,
44404B80,
44400590,
49404380,
3D400849,
4005FF58,
04070318,
0800FF51,
03107EF9,
00905040,
00354001,
B0400001,
407F4980,
50400590,
49404B80,
49400590,
4D404380,
3540084D,
40059050,
40003840,
4B805040,
05904D40,
4B804D40,
05905040,
43803840,
08504005,
90554000,
3D404B80,
55400590,
50404B80,
50400590,
55404380,
3D400855,
40059059,
40004140,
4B805940,
05905540,
4B805540,
05905940,
43804140,
08594005,
905C4000,
44404B80,
5C400590,
59404B80,
59400590,
5C404380,
4440085C,
4005FF51,
0328B0AB,
00905540,
00494081,
63805540,
0DFF5103,
0E31B900,
90494000,
80494081,
6349400D,
FF580406,
03180800,
90514000,
2A4001B0,
40000140,
7F498051,
40059045,
404B8045,
40059049,
4043802A,
40084940,
05905140,
0031404B,
80514005,
9045404B,
80454005,
90494043,
80314008,
49400590,
50400036,
404B8050,
40059045,
404B8045,
40059049,
40438036,
40084940,
05904E40,
0026404B,
804E4005,
9042404B,
80424005,
90454043,
80264008,
45400590,
4E40002D,
404B804E,
40059042,
404B8042,
40059045,
4043802D,
40084540,
05904C40,
0032404B,
804C4005,
9040404B,
80404005,
90454043,
80324008,
45400590,
4940002D,
4001B040,
0001407F,
49804940,
05904040,
4B804040,
05904540,
43802D40,
08454005,
904C4000,
34404B80,
4C400590,
40404B80,
40400590,
45404380,
34400845,
40059049,
40003940,
4B804940,
05904040,
4B804040,
05904540,
43803940,
08454005,
90474000,
28404B80,
47400590,
40404B80,
40400590,
42404380,
28400842,
40059044,
40002F40,
4B804440,
05904540,
4B804540,
05904740,
43802F40,
08474005,
90494000,
34404B80,
49400590,
4A404B80,
4A400590,
4C404380,
3440084C,
40059051,
40002A40,
01B04000,
01407F49,
80514005,
9045404B,
80454005,
90494043,
802A4008,
49400590,
51400031,
404B8051,
40059045,
404B8045,
40059049,
40438031,
40084940,
05905040,
0036404B,
80504005,
9045404B,
80454005,
90494043,
80364008,
49400590,
4E400026,
404B804E,
40059045,
404B8045,
40059049,
40438026,
40084940,
05904E40,
002D404B,
804E4005,
9042404B,
80424005,
90454043,
802D4008,
45400590,
4C400032,
404B804C,
40059040,
404B8040,
40059045,
40438032,
40084540,
05904940,
002D4001,
B0400001,
407F4980,
49400590,
40404B80,
40400590,
45404380,
2D400845,
4005904C,
40003440,
4B804C40,
05904040,
4B804040,
05904540,
43803440,
08454005,
90494000,
39404B80,
49400590,
40404B80,
40400590,
45404380,
39400845,
40059047,
40002840,
4B804740,
05904040,
4B804040,
05904440,
43802840,
08444005,
90474000,
2F404B80,
47400590,
44404B80,
44400590,
4C404380,
2F40084C,
40059047,
40003440,
4B804740,
05905040,
4B805040,
05904C40,
43803440,
084C4005,
90514000,
2A4001B0,
40000140,
7F498051,
40059045,
414B8045,
40059049,
4343802A,
40084940,
05905145,
0031454B,
80514005,
9045474B,
80454005,
90494843,
80314008,
49400590,
504A0036,
4A4B8050,
40059045,
4C4B8045,
40059049,
4E438036,
40084940,
05905150,
002C504B,
80514005,
9047504B,
80474005,
904C5243,
802C4008,
4C400590,
53540034,
544B8053,
4005904C,
564B804C,
40059047,
58438034,
40084740,
05904C5A,
00385A4B,
804C4005,
90475C4B,
80474005,
90535E43,
80384008,
53400590,
5660002D,
6001B040,
0001407F,
17805640,
37904C60,
4B804C40,
05905160,
43802D40,
08514005,
90556000,
34604B80,
55400590,
4C604B80,
4C400590,
51604380,
34400851,
40059053,
60003960,
4B805340,
05905160,
4B805140,
05904C60,
43803940,
084C4005,
90556000,
31604B80,
55400590,
505F4B80,
50400590,
4E5D4380,
3140084E,
40059049,
5B00385B,
4B804940,
05905059,
4B805040,
05904E58,
43803840,
084E4005,
90495600,
3D564B80,
49400590,
4E544B80,
4E400590,
50524380,
3D400850,
40059051,
50003250,
01B04000,
01407F49,
80514005,
9045504B,
80454005,
90495043,
80324008,
49400590,
51500039,
504B8051,
40059045,
504B8045,
40059049,
50438039,
40084940,
05905050,
003D504B,
80504005,
9045504B,
80454005,
90495043,
803D4008,
49400590,
51500034,
504B8051,
40059047,
504B8047,
40059049,
50438034,
40084940,
05905050,
003B504B,
80504005,
9047504B,
80474005,
90495043,
803B4008,
49400590,
4C50003D,
504B804C,
40059047,
504B8047,
40059049,
5043803D,
40084940,
05904E50,
00365001,
B0400001,
407F4980,
4E400590,
47504B80,
47400590,
49504380,
36400849,
4005904E,
50003D50,
4B804E40,
05904750,
4B804740,
05904950,
43803D40,
08494005,
904E5000,
42504B80,
4E400590,
47504B80,
47400590,
49504380,
42400849,
4005904E,
50002A50,
4B802A40,
0590314F,
4B803140,
0590364D,
4B803640,
0590384B,
4B803840,
05903A49,
4B803A40,
05903D48,
37804E40,
143D4005,
90464600,
4E460042,
46718046,
40004E40,
07904C43,
6B804240,
064C4007,
90424000,
234001B0,
40000140,
7F3D9047,
400C8023,
4005902A,
402F4A40,
1C802A40,
05902F40,
4B802F40,
03474000,
4A400142,
4001904A,
40003240,
4B803240,
05903640,
4B803640,
05903B40,
43804A40,
083B4005,
904C4000,
36404B80,
36400590,
32402180,
4C400790,
4E402380,
32400590,
2F404980,
4E40022F,
40059047,
40002840,
3F4C400C,
80284005,
902F402F,
50401C80,
2F400590,
34404B80,
34400590,
38404B80,
38400590,
3B404B80,
3B400590,
40404B80,
40400590,
3B404B80,
3B400590,
38404B80,
38400590,
34404B80,
3440034C,
40005040,
01474001,
90444000,
4940002D,
4001B040,
0001407F,
49802D40,
05903440,
4B803440,
05903940,
43804440,
00494008,
39400590,
4940003D,
404B803D,
40059040,
404B8040,
40059045,
40438049,
40084540,
05904A40,
0040404B,
80404005,
903D4021,
804A4007,
904C4023,
803D4005,
90394049,
804C4002,
39400590,
45400026,
403F4940,
0C802640,
05902D40,
2F4E401C,
802D4005,
9032404B,
80324005,
9036404B,
80364005,
9039404B,
80394005,
9040404B,
80404005,
9039404B,
80394005,
9036404B,
80364005,
9032404B,
80324003,
4940004E,
40014540,
01904440,
00474000,
2C4001B0,
40000140,
7F49802C,
40059032,
404B8032,
40059038,
40438044,
40004740,
08384005,
90494000,
3B404B80,
3B400590,
3E404B80,
3E400590,
44404380,
49400844,
4005904A,
40003E40,
4B803E40,
05903B40,
21804A40,
07904E40,
23803B40,
05903840,
49804E40,
02384005,
90444000,
25403F49,
400C8025,
4005902C,
402F4D40,
1C802C40,
05903141,
4B803140,
03494000,
4D400144,
40019049,
41003541,
4B803540,
05903842,
4B803840,
05903D42,
43804940,
083D4005,
90474300,
38434B80,
38400590,
35442180,
47400790,
49442380,
35400590,
31444980,
49400231,
4005903D,
45002A45,
01B04000,
01407F3D,
9042450C,
802A4005,
9031452F,
47451C80,
31400590,
36464B80,
36400342,
40004740,
013D4001,
90454700,
39474B80,
39400590,
3D474B80,
3D400590,
42484380,
45400842,
40059045,
48003D48,
4B803D40,
05903949,
21804540,
07904749,
23803940,
0590364A,
49804740,
02364005,
90414A00,
254A3F44,
4A0C8025,
40059031,
4B2F494A,
1C803140,
0590354B,
4B803540,
03444000,
49400141,
4001FF51,
03107EF9,
0090564C,
00384C4B,
80384005,
903D4D4B,
803D4005,
90414D43,
80564008,
41400590,
554E0044,
4E816380,
55400044,
400DFF51,
030F4240,
00904A50,
002F5001,
B0400001,
407F3D90,
4E500C80,
2F400590,
36502F51,
501C8036,
40059039,
504B8039,
40034E40,
00514001,
4A400190,
5150003B,
504B803B,
40059042,
504B8042,
40059045,
50438051,
40084540,
05905050,
0042504B,
80424005,
903B5021,
80504007,
904E5023,
803B4005,
90365049,
804E4002,
36400590,
47500028,
501B4C50,
1C505014,
80284005,
902F5026,
804C4000,
50400147,
40019051,
5023802F,
40059034,
50498051,
40023440,
05905350,
0038504B,
80384005,
903B504B,
803B4005,
9040504B,
80404005,
903B504B,
803B4005,
9038504B,
80384005,
90345037,
80534014,
34400590,
4950002D,
5001B040,
0001407F,
3D904C50,
0C802D40,
05903450,
2F50501C,
80344005,
9039504B,
80394003,
4C400050,
40014940,
01905050,
003D504B,
803D4005,
9040504B,
80404005,
90455043,
80504008,
45400590,
55500040,
504B8040,
4005903D,
50218055,
4007904C,
5023803D,
40059039,
5049804C,
40023940,
05904A50,
004E5000,
26504B80,
26400590,
2D502180,
4A40004E,
40079050,
5023802D,
40059032,
50498050,
40023240,
05904E50,
0036501E,
804E4001,
9050501E,
80504001,
904E500D,
80364005,
9039504B,
80394005,
903E504B,
803E4005,
9039504B,
80394005,
9036504B,
80364005,
90325039,
804E4012,
324005FF,
58040903,
18080090,
4A600053,
60002B60,
01B04000,
01407F6F,
804A4000,
5340002B,
4007904A,
60005160,
00326071,
804A4000,
51400032,
40079047,
60004F60,
00376071,
80374007,
903B6071,
803B4007,
903E6071,
803E4007,
9043605F,
80474000,
4F401243,
40079048,
60004D60,
00516000,
29607180,
4840004D,
40005140,
00294007,
90486000,
4F600030,
60718048,
40004F40,
00304007,
90456000,
4D600035,
60718035,
40079039,
60718039,
4007903C,
60658045,
40004D40,
13904160,
00456000,
4860004D,
606B803C,
40064140,
00454000,
4840004D,
40079043,
60002760,
1B46601C,
4B601D4F,
601D8027,
40054640,
004B4001,
4340004F,
40019043,
60004D60,
002E6071,
80434000,
4D40002E,
40079043,
60004660,
004B6000,
33607180,
33400790,
37606B80,
43400046,
40004B40,
06374007,
90436000,
4660004B,
60004F60,
003A6071,
803A4007,
903F606B,
80434000,
4640004B,
40004F40,
063F4007,
FF580406,
03180800,
FF510307,
A1200090,
4573004A,
73004F73,
00266001,
B0400001,
407F8161,
8026400D,
902D6077,
80454000,
4A40004F,
40019039,
60003E60,
0043606B,
802D400D,
9032606B,
80394000,
3E400043,
400D9039,
60003E60,
0043606B,
80324006,
3940003E,
40004340,
07903973,
003E7300,
4373002D,
60816380,
2D400D90,
32607780,
3940003E,
40004340,
01903960,
003E6000,
43606B80,
32400D90,
2D606B80,
3940003E,
40004340,
0D903960,
003E6000,
43606B80,
2D400639,
40003E40,
00434007,
90397300,
3E730042,
73002660,
01B04000,
01407F81,
61802640,
0D902D60,
77803940,
003E4000,
42400190,
4560004A,
60004E60,
6B802D40,
0D903260,
6B804540,
004A4000,
4E400D90,
4560004A,
60005160,
6B803240,
06454000,
4A400051,
40079045,
73004A73,
00517300,
2D608163,
802D400C,
4540004A,
40005140,
01904573,
004A7300,
51730032,
60816380,
32400C45,
40004A40,
00514001,
90457300,
4A730051,
73002D60,
8163802D,
400C4540,
004A4000,
51400190,
4773004C,
73005173,
00286001,
B0400001,
407F8161,
8028400D,
902F6077,
80474000,
4C400051,
4001903B,
60004060,
0045606B,
802F400D,
9034606B,
803B4000,
40400045,
400D903B,
60004060,
0045606B,
80344006,
3B400040,
40004540,
07903B73,
00407300,
4573002F,
60816380,
2F400D90,
34607780,
3B400040,
40004540,
01903B60,
00406000,
42606B80,
34400D90,
2F606B80,
3B400040,
40004240,
0D903B60,
00406000,
42606B80,
2F40063B,
40004040,
00424007,
903B6000,
40600044,
60002860,
01B04000,
01407F81,
61802840,
0D903460,
38803440,
04903860,
38803840,
043B4000,
903B603C,
80404000,
9040603C,
80444000,
90446030,
47602C80,
47400490,
4C602C80,
4C400490,
50602C80,
50400490,
53602C80,
53400490,
58608507,
803B4000,
40400044,
40245840,
25FF5902,
00000090,
45500048,
50004C50,
00FF5902,
00000090,
295001B0,
40000140,
7F816180,
45400048,
40004C40,
0029400D,
90475000,
4A500030,
50816380,
4740004A,
40003040,
0D904550,
00485000,
4C500035,
50816380,
45400048,
40004C40,
0035400D,
90485000,
51500039,
50834780,
48400051,
40199048,
50004C50,
814B8039,
4025902B,
5001B040,
0001407F,
81558048,
40004C40,
0C2B400D,
90475000,
4A500032,
50816380,
4740004A,
40003240,
0D904850,
004C5000,
37508163,
80484000,
4C400037,
400D904A,
50005350,
003B5083,
47804A40,
00534019,
90485000,
4C50814B,
803B4025,
902D5001,
B0400001,
407F8155,
80484000,
4C400C2D,
400D9047,
50004A50,
00345081,
63804740,
004A4000,
34400D90,
4850004C,
50003950,
81638048,
40004C40,
0039400D,
904C5000,
5450003C,
50816380,
4C400054,
40003C40,
0D905350,
00405037,
80534005,
90545037,
80544005,
90535071,
80534007,
904F5081,
57804040,
0C4F400D,
904C5000,
2B5001B0,
40000140,
7F816180,
4C40002B,
400D904A,
50003450,
8163804A,
40003440,
0D904F50,
00375081,
63804F40,
0037400D,
904C5000,
3B503D80,
4C400190,
4F503D80,
4F400190,
4C508250,
804C4014,
90485081,
4B803B40,
25902950,
01B04000,
01407F81,
55804840,
0C29400D,
90475000,
30508163,
80474000,
30400D90,
48500035,
50816380,
48400035,
400D904F,
50003950,
81638039,
400D903C,
50815780,
4F401990,
48503780,
48400590,
4A503780,
4A400590,
48505F80,
3C401990,
2B5001B0,
40000140,
7F816180,
2B400D90,
47500032,
50815180,
48401247,
40003240,
0D904850,
00375081,
63804840,
0037400D,
904F5000,
3B508347,
804F4019,
90485037,
80484005,
904A5037,
804A4005,
90485053,
803B4025,
90285001,
B0400001,
407F8161,
8028400D,
90475000,
2F508151,
80484012,
4740002F,
400D9043,
50003450,
81638043,
40003440,
0D904050,
00375081,
63803740,
0D903B50,
81578040,
4019904C,
50815780,
3B400C4C,
400D904A,
50002D50,
01B04000,
01407F35,
804A4005,
904C5037,
804C4005,
904A506B,
802D4006,
4A400790,
48500034,
50816380,
48400034,
400D9047,
50003950,
81638047,
40003940,
0D904850,
81638048,
400D9047,
50004A50,
002B5081,
63804740,
004A400D,
90485000,
4C508157,
802B400C,
4840004C,
400D9045,
50004850,
004C5000,
295001B0,
40000140,
7F816180,
45400048,
40004C40,
0029400D,
90475000,
4A500030,
50816380,
4740004A,
40003040,
0D904550,
00485000,
4C500035,
50816380,
45400048,
40004C40,
0035400D,
90485000,
51500039,
50816380,
39400D90,
3C508157,
80484000,
51401990,
4850004C,
50815780,
3C401990,
2B5001B0,
40000140,
7F815580,
4840004C,
400C2B40,
0D904750,
004A5000,
32508163,
80474000,
4A400032,
400D9048,
50004C50,
00375081,
63804840,
004C4000,
37400D90,
4A500053,
50003B50,
8163803B,
400D903E,
50815780,
4A400053,
40199048,
50004C50,
8157803E,
4019902D,
5001B040,
0001407F,
40804840,
004C4081,
212D400D,
90475000,
4A500034,
50816380,
4740004A,
40003440,
0D904850,
004C5000,
39508163,
80484000,
4C400039,
400D904C,
50005450,
003C5081,
63804C40,
00544000,
3C400D90,
53500040,
50378053,
40059054,
50378054,
40059053,
50718053,
4007904F,
50815780,
40400C4F,
400D904C,
50002B50,
01B04000,
01407F81,
61804C40,
002B400D,
904A5000,
34508163,
804A4000,
34400D90,
4F500037,
50816380,
4F400037,
400D904C,
50003B50,
3D804C40,
01904F50,
3D804F40,
01904C50,
8250804C,
40149048,
50814B80,
3B402590,
295001B0,
40000140,
7F815580,
48400C29,
400D9047,
50003050,
81638047,
40003040,
0D904850,
00355081,
63804840,
0035400D,
904F5000,
39508163,
8039400D,
903C5081,
57804F40,
19904850,
37804840,
05904A50,
37804A40,
05904850,
5F803C40,
19902B50,
01B04000,
01407F81,
61802B40,
0D904750,
00325081,
51804840,
12474000,
32400D90,
48500037,
50816380,
48400037,
400D904F,
50003B50,
8163803B,
400D903E,
50815780,
4F401990,
43500047,
50815780,
3E400C43,
40004740,
0D904350,
00475000,
2D5001B0,
40000140,
7F816180,
43400047,
400D903E,
4B815780,
2D400C3E,
400D9043,
46003446,
81638043,
40003440,
0D904741,
00394181,
63804740,
0D903E3C,
8163803E,
400D9043,
37814B80,
39401843,
400D903D,
31004531,
002D3101,
B0400001,
407F8161,
802D400D,
90393181,
63803940,
0D903B31,
8163803B,
400D3D40,
00903D31,
81704031,
81638040,
400D4540,
00904531,
8127803D,
403C4540,
0D905131,
00413101,
B0400001,
407F2480,
51400190,
54312680,
54400290,
56312680,
56400390,
58317180,
58400790,
56318163,
8056400D,
90583181,
63805840,
0D905D31,
8347805D,
40199058,
31812780,
41404990,
433101B0,
40000140,
7F8A4980,
58400C43,
4049904C,
40003940,
01B04000,
01407F24,
804C4001,
904A4026,
804A4002,
90484026,
80484003,
90434000,
47407180,
43400047,
40079045,
40004840,
81638045,
40004840,
0D904340,
00474081,
63804340,
0047400D,
90454000,
48408163,
80454000,
48400D90,
4740004A,
40816380,
4740004A,
400D9048,
40004C40,
81278039,
403C4840,
004C400D,
904A4000,
53400037,
4001B040,
0001407F,
81618037,
400D9040,
40815780,
4A400053,
400C4040,
0D904C40,
004F4000,
4340870F,
804C4000,
4F400043,
40319058,
31004131,
01B04000,
01407F81,
61805840,
0D905631,
81638056,
400D9058,
31816380,
58400D90,
5D318347,
805D4019,
90583181,
27804140,
49904331,
01B04000,
01407F8A,
49805840,
0C434049,
905F5000,
215001B0,
40000140,
7F35805F,
4005906C,
5037806C,
4005905F,
5071805F,
4007905B,
50815780,
21400C5B,
400D9056,
50003450,
81638056,
40003440,
0D905450,
00395081,
63805440,
0039400D,
90535000,
3C508163,
8053400D,
904F5081,
57803C40,
0C4F400D,
904A5000,
2B500032,
50003750,
01B04000,
01407F81,
61804A40,
0D904850,
8157802B,
40003240,
0037400C,
48400D90,
47500034,
50816380,
47400034,
400D903B,
50001C50,
00285038,
803B4004,
903C5038,
803C4004,
903E5038,
803E4004,
90405038,
80404004,
90415038,
80414004,
90435038,
80434004,
90455038,
80454004,
90475038,
80474004,
90485038,
80484004,
904A5038,
804A4004,
904C5038,
804C4004,
904D5017,
801C4000,
2840214D,
4004FF59,
02FB0000,
904D5000,
52500059,
5000FF59,
02FB0000,
902A5001,
B0400001,
407F8161,
804D4000,
52400059,
40002A40,
0D904B50,
00315081,
63804B40,
0031400D,
904D5000,
36508163,
804D4000,
36400D90,
5250003A,
50816380,
3A400D90,
3D508157,
80524019,
904D503B,
804D4001,
9052503B,
80524001,
904D505F,
803D4019,
90525000,
54500059,
50002C50,
01B04000,
01407F81,
5B804D40,
06524000,
54400059,
40002C40,
0D904B50,
00335081,
63804B40,
0033400D,
904D5000,
38508163,
804D4000,
38400D90,
5450003C,
50816380,
3C400D90,
3F508157,
80544019,
904D503B,
804D4001,
9054503B,
80544001,
904D505F,
803F4012,
4D400790,
4D500052,
50005550,
00595000,
2E5001B0,
40000140,
7F816180,
4D400052,
40005540,
00594000,
2E400D90,
4B500035,
50816380,
4B400035,
400D904D,
50003A50,
8163804D,
40003A40,
0D905550,
003C5081,
63805540,
003C400D,
90545000,
3D503780,
54400590,
55503780,
55400590,
54507180,
54400790,
50508157,
803D400C,
50400D90,
4D50002C,
5001B040,
0001407F,
8161804D,
40002C40,
0D904B50,
00335081,
63804B40,
0033400D,
90505000,
38508163,
80504000,
38400D90,
4D50003C,
503D804D,
40019050,
503D8050,
4001904D,
5067803C,
400D903F,
50815C80,
4D401490,
49503780,
49400590,
4B503780,
4B400590,
49505F80,
3F401990,
2A5001B0,
40000140,
7F816180,
2A400D90,
48500031,
50815180,
49401248,
40003140,
0D904950,
00365081,
63804940,
0036400D,
90505000,
3A508163,
803A400D,
903D5081,
57805040,
19904950,
37804940,
05904B50,
37804B40,
05904950,
5F803D40,
19902C50,
01B04000,
01407F81,
61802C40,
0D904850,
00335071,
80484007,
49400090,
49507180,
49400790,
50508157,
8033400C,
50400D90,
50500038,
50816380,
50400038,
400D9049,
50003C50,
81638049,
400D9048,
50815780,
3C400C48,
400D9048,
50002950,
01B04000,
01407F81,
61804840,
0029400D,
90445000,
35508163,
80444000,
35400D90,
41500038,
50816380,
41400038,
400D9041,
50003F50,
81638041,
40003F40,
0D904D50,
003C5081,
63804D40,
0D904B50,
8157803C,
400C4B40,
0D904B50,
002E5001,
B0400001,
407F3580,
4B400590,
4D503780,
4D400590,
4B506B80,
2E40064B,
40079049,
50003550,
81638049,
400D9048,
50815780,
35400C48,
400D9046,
60002E60,
4F804640,
002E4029,
90486000,
30604F80,
48400030,
40299049,
60003160,
4F804940,
00314029,
904B6000,
33604F80,
4B400033,
4029904D,
50003550,
8163804D,
40003540,
0D904660,
00496000,
4D60002A,
6001B040,
0001407F,
81618046,
40004940,
004D4000,
2A400D90,
4B600031,
60816380,
4B400031,
400D9046,
60004D60,
00366081,
63804640,
004D4000,
36400D90,
49600052,
60003A60,
8163803A,
400D903D,
60815780,
49400052,
40199049,
60004D60,
8157803D,
4019902C,
73003373,
00387301,
B0400001,
407F8155,
80494000,
4D401990,
4860004B,
60816380,
4840004B,
400C2C40,
00334000,
38400190,
4960004D,
60816380,
4940004D,
400D904B,
60005460,
81702C73,
00337300,
38738157,
804B4000,
54401990,
4960004D,
60816F80,
2C400033,
40003840,
01902E73,
00357300,
3A7301B0,
40000140,
7F815580,
4940004D,
40199048,
60004B60,
81638048,
40004B40,
0C2E4000,
3540003A,
40019049,
60004D60,
002E6000,
35608163,
80494000,
4D40002E,
40003540,
0D905560,
003A6081,
63805540,
003A400D,
90546037,
80544005,
90556037,
80554005,
90546071,
80544007,
90506081,
63805040,
0D904D60,
002C6000,
33600038,
6001B040,
0001407F,
8161804D,
400D904B,
60816380,
4B400D90,
5060814B,
802C4000,
33400038,
40185040,
0D904D60,
0038603D,
804D4001,
9050603D,
80504001,
904D6067,
8038400D,
902C6081,
5C804D40,
14904960,
8157802C,
400C4940,
0D904D60,
002A6001,
B0400001,
407F6F80,
4D400790,
4B607180,
4B400790,
49607180,
49400790,
48607180,
48400790,
4660814B,
802A4025,
90316000,
36608157,
8046400C,
31400036,
400D904D,
60002A60,
8163804D,
400D9046,
60815780,
2A400C46,
400D904D,
60002C60,
00336000,
386001B0,
40000140,
7F6F804D,
4007904B,
5F71804B,
40079049,
5E718049,
40079048,
5C718048,
40079046,
5B814B80,
2C400033,
40003840,
25903358,
00385881,
57804640,
0C334000,
38400D90,
4856002C,
56003356,
00385681,
63804840,
0D904953,
8157802C,
40003340,
0038400C,
49400D90,
4850002E,
5001B040,
0001407F,
81618048,
40002E40,
0D903F50,
00355081,
63803F40,
0035400D,
90465000,
3A508163,
8046400D,
903C5081,
63803C40,
0D904150,
814B803A,
40184140,
0D904450,
00355081,
63804440,
0035400D,
903D5000,
3A5001B0,
40000140,
7F816180,
3D400D90,
46508157,
803A400C,
46400D90,
4150003C,
50816380,
4140003C,
400D9041,
50003D50,
81638041,
400D9048,
50816380,
48400D90,
4650814B,
803D4018,
46400D90,
46500036,
5001B040,
0001407F,
81618036,
400D903D,
50815780,
46400C3D,
400D904D,
50004250,
81638042,
400D9046,
50815780,
4D401990,
4B508163,
804B400D,
90495081,
4B804640,
1849400D,
904B5000,
385001B0,
40000140,
7F816180,
38400D90,
3F508157,
804B400C,
3F400D90,
50500044,
50816380,
44400D90,
48508157,
80504019,
904B5081,
63804B40,
0D904D50,
814B8048,
40259055,
50002E50,
01B04000,
01407F81,
61802E40,
0D903A50,
814B804D,
400C5540,
0C3A400D,
90545000,
3C508163,
803C400D,
903D5081,
57805440,
19905050,
81638050,
400D904B,
50814B80,
3D40184B,
400D904D,
50003550,
01B04000,
01407F3A,
804D4001,
9050503C,
80504003,
904D5067,
8035400D,
903C5081,
63803C40,
0D904150,
81638041,
400D9044,
50816380,
44400D90,
48508138,
804D4038,
90505081,
57804840,
19903650,
01B04000,
01407F81,
61803640,
0D903D50,
814B8050,
40183D40,
0D904950,
00425081,
63804240,
0D904650,
81578049,
40199048,
50816380,
48400D90,
4950814B,
80464018,
49400D90,
50500038,
5001B040,
0001407F,
81618038,
400D903F,
50815780,
50401990,
49508157,
803F4019,
90445081,
57804940,
19904850,
81638048,
400D9049,
50814B80,
44401849,
400D9048,
50003550,
01B04000,
01407F81,
61803540,
0D903C50,
81578048,
40199044,
50815780,
3C400C44,
400D9041,
50003F50,
81638041,
400D904D,
50816380,
4D400D90,
4B50814B,
803F4018,
4B400D90,
4B50003A,
5001B040,
0001407F,
8161803A,
400D903D,
50815780,
4B401990,
49508157,
803D4019,
90415081,
57804940,
19904850,
81638048,
400D9049,
50814B80,
41401849,
400D9041,
50004650,
002A5001,
B0400001,
407F8161,
802A400D,
90315081,
57804140,
0046400C,
31400D90,
4650004D,
50003650,
81638036,
400D903A,
50815780,
4640004D,
400C3A40,
0D904B50,
003D5081,
63804B40,
0D904950,
8157803D,
400C4940,
0D904850,
004B5000,
2C5001B0,
40000140,
7F816180,
4840004B,
40002C40,
0D905050,
00335081,
63805040,
0033400D,
90505000,
38508163,
8038400D,
903C5081,
57805040,
0C3C400D,
904B5000,
3F508163,
804B400D,
904D5081,
57803F40,
0C4D400D,
90555000,
2E5001B0,
40000140,
7F816180,
2E400D90,
35508157,
8055400C,
35400D90,
5450003A,
50816380,
3A400D90,
3C508157,
8054400C,
3C400D90,
5050003D,
50816380,
50400D90,
4B508157,
803D400C,
4B400D90,
4D500029,
5001B040,
0001407F,
3A804D40,
01905050,
3C805040,
03904D50,
67802940,
0D903550,
81638035,
400D9038,
50816380,
38400D90,
3C508144,
804D401F,
3C400D90,
5050003F,
50816380,
50400D90,
49508157,
803F400C,
49400D90,
5250002A,
5001B040,
0001407F,
8161802A,
400D9031,
50815780,
52400C31,
400D9049,
50005250,
00365081,
63803640,
0D903A50,
81578049,
40005240,
0C3A400D,
90495000,
5050003D,
50816380,
49400050,
400D904E,
50815780,
3D400C4E,
400D9044,
40003540,
01B04000,
01407F1D,
903D4020,
4940003F,
40404B40,
41504082,
1E804940,
004B4001,
44400050,
40019050,
40155540,
15574015,
5C408477,
80554000,
5740005C,
40015040,
19904640,
814A803D,
40003F40,
01354018,
46400D90,
4940004E,
40003340,
01B04000,
01407F81,
61803340,
0D903A40,
8163803A,
400D903D,
40816380,
3D400D90,
3F40813F,
80494031,
90494081,
63804940,
0D904640,
8127804E,
40243F40,
1846400D,
90484000,
4E400029,
4001B040,
0001407F,
81618029,
400D9035,
40816380,
35400D90,
3940814B,
80484000,
4E401839,
400D9045,
40004D40,
003F4081,
63803F40,
0D903C40,
81578045,
40004D40,
19904840,
8157803C,
400C4840,
0D904231,
00483100,
2A3101B0,
40000140,
7F816180,
42400048,
40002A40,
0D904131,
00463100,
36318163,
80414000,
46400036,
400D9048,
31003A31,
81638048,
400D904D,
31003D31,
8163804D,
400D9048,
31814B80,
3A400C3D,
400C4840,
0D905231,
003A3100,
41318163,
8052400D,
90493101,
B0400001,
407F8161,
8049400D,
90503181,
63805040,
0D904831,
81638048,
400D904E,
31816380,
4E400D90,
46318163,
8046400D,
904D3181,
1B803A40,
00414048,
4D400D90,
4B3101B0,
40000140,
7F816180,
4B400D90,
49318163,
8049400D,
90483181,
63804840,
0D903F31,
8163803F,
400D9041,
31816380,
41400D90,
44318171,
B040008A,
4A804440,
55FF5103,
11704900,
902E3102,
B0407F6F,
802E4007,
90353138,
80354004,
90383138,
80384004,
903C3138,
803C4004,
903D3138,
803D4004,
903F3138,
803F4004,
90443138,
80444004,
90413187,
0F804140,
31904431,
01B04000,
01407F6F,
80444007,
90493138,
80494004,
904D3138,
804D4004,
90523138,
80524004,
90573138,
80574004,
90603188,
01806040,
00FF2F00;