memory_initialization_radix=16;
memory_initialization_vector=
4D546864,
00000006,
00000001,
01E04D54,
726B0000,
2B6900FF,
03105769,
6E67735F,
6F665F50,
69616E6F,
5F3000FF,
58040402,
180800FF,
51030573,
1700FF59,
02030000,
C0000000,
00903B50,
00445000,
FF590203,
00009026,
5000B040,
7F020764,
020A4002,
5B1E025D,
1E835780,
3B400044,
40019039,
50816F80,
39400190,
3B50835F,
803B4001,
90395000,
4250835F,
80394000,
42400190,
3B50816F,
803B4000,
26400190,
3B500042,
50002650,
835F803B,
40004240,
01903950,
816F8039,
4001903B,
50835F80,
3B400190,
39500042,
50854F80,
39400042,
40002640,
00B04000,
01903B50,
00445000,
285000B0,
407F835F,
803B4000,
44400190,
3B50816F,
803B4001,
903D5083,
5F803D40,
01904450,
854F8044,
40002840,
01903B50,
00445000,
2850835F,
803B4000,
44400190,
3B50816F,
803B4001,
903D5000,
4450816F,
803D4000,
44400190,
4450816F,
80444001,
90445085,
4F804440,
00284000,
B0400001,
903D5000,
4550002A,
5000B040,
7F835F80,
3D400045,
4001903D,
50816F80,
3D400190,
3D500045,
50835F80,
3D400045,
4001903D,
50004550,
816F802A,
40019031,
50835F80,
3D400045,
40003140,
01903D50,
00455000,
2A50835F,
803D4000,
45400190,
3D50816F,
803D4001,
903D5000,
4550835F,
803D4000,
45400190,
3D500045,
50816F80,
2A400190,
3150835F,
803D4000,
45400031,
4000B040,
0001902A,
55003655,
003D4600,
B0407F83,
5F803D40,
01903D3C,
816F803D,
4001903D,
3C817039,
5A00455A,
816F803D,
4001903D,
3C835F80,
3D400190,
3D3C816F,
80394000,
4540003D,
4001903B,
5A00475A,
003D3C83,
5F803D40,
01903D3C,
816F803D,
4001903D,
3C816F80,
3B400047,
40019040,
5A004C5A,
816F803D,
4001903D,
3C835F80,
3D400190,
3D3C816F,
80404000,
4C40002A,
40003640,
003D4000,
B0400001,
90445A00,
505A0026,
5000B040,
7F835F80,
26400190,
2D50835F,
80444000,
5040002D,
40019032,
50835F80,
32400190,
425A004E,
5A003650,
816F8042,
40004E40,
0190425A,
004E5A81,
6F804240,
004E4083,
60364001,
90325083,
5F803240,
01902D50,
835F802D,
40019032,
50835F80,
324000B0,
40000190,
445A0050,
5A002850,
00B0407F,
835F8028,
4001902F,
50835F80,
44400050,
40002F40,
01903450,
835F8034,
40019045,
5A00515A,
00385081,
6F804540,
00514001,
90455A00,
515A816F,
80454000,
51408360,
38400190,
3450835F,
80344001,
902F5083,
5F802F40,
01903450,
835F8034,
4000B040,
00019044,
5A00505A,
002A5A00,
B0407F83,
5F804440,
00504000,
2A400190,
315A8170,
455A0051,
5A816F80,
31400190,
365A816F,
80454000,
51408170,
36400190,
475A0053,
5A00395A,
835F8047,
40005340,
00394001,
90445A00,
505A0040,
5A835F80,
44400050,
40004040,
01903D5A,
8170455A,
00515A81,
6F803D40,
0190395A,
816F8045,
40005140,
81703940,
0190405A,
004C5A00,
365A835F,
80404000,
4C400036,
4000B040,
00019044,
5A00505A,
002A5A00,
B0407F83,
5F804440,
00504000,
2A400190,
315A8170,
455A0051,
5A816F80,
31400190,
365A816F,
80454000,
51408170,
36400190,
405A004C,
5A00395A,
835F8040,
40004C40,
00394001,
90475A00,
535A0040,
5A835F80,
40400190,
3D5A835F,
80474000,
5340003D,
40019049,
5A00555A,
00395A83,
5F803940,
0190365A,
835F8049,
40005540,
00364000,
B0400001,
90455A00,
515A0026,
5A00B040,
7F835F80,
45400051,
40002640,
01902D5A,
81704C5A,
00585A81,
6F802D40,
0190325A,
835F8032,
40019034,
5A816F80,
4C400058,
40817034,
40019036,
5A835F80,
36400190,
395A835F,
80394001,
903E5A83,
5F803E40,
0190445A,
00505A00,
395A835F,
80444000,
50400039,
4000B040,
00019045,
5A00515A,
00285A00,
B0407F83,
5F804540,
00514000,
28400190,
2F5A8170,
4C5A0058,
5A816F80,
2F400190,
345A835F,
80344001,
90365A81,
6F804C40,
00584081,
70364001,
90385A83,
5F803840,
01903B5A,
835F803B,
40019040,
5A835F80,
40400190,
505A005C,
5A003B5A,
835F8050,
40005C40,
003B4000,
B0400001,
90515A00,
5D5A002A,
5A00B040,
7F835F80,
5140005D,
40002A40,
0190315A,
8170585A,
00645A81,
6F803140,
0190365A,
835F8036,
40019038,
5A816F80,
58400064,
40817038,
40019039,
5A835F80,
39400190,
3D5A835F,
803D4001,
90425A83,
5F804240,
01904560,
835F8045,
4001FF51,
030493E0,
0090495A,
002A508E,
7F804940,
002A4000,
B0400087,
41FF5103,
05731700,
90495A00,
555A0031,
5A00B040,
7F816F80,
49400055,
40003140,
0190475A,
00535A00,
2F5A816F,
80474000,
5340002F,
40019045,
5A00515A,
002D5A81,
6F804540,
00514000,
2D400190,
445A0050,
5A002C5A,
816F8044,
40005040,
002C4000,
B0400001,
904C5000,
51500026,
50003250,
00B0407F,
816F804C,
40005140,
01905050,
816F8050,
40002640,
00324001,
904C5000,
2650816F,
804C4001,
904C5000,
5150816F,
80264001,
902D5000,
3250816F,
804C4000,
51400190,
5050816F,
80504000,
2D400032,
4001904C,
50002650,
816F804C,
4001904C,
50005150,
816F8026,
4000B040,
00019026,
5000B040,
7F816F80,
4C400051,
40019050,
50816F80,
50400026,
4001904C,
50002650,
816F804C,
4001904C,
50005150,
816F8026,
4001902D,
50003250,
816F804C,
40005140,
01905050,
816F8050,
40002D40,
00324001,
904C5000,
2650816F,
804C4000,
26400190,
5150002D,
50003250,
816F8051,
40002D40,
00324000,
B0400001,
904C5000,
51500028,
50003450,
00B0407F,
816F804C,
40005140,
01905050,
816F8050,
40002840,
00344001,
904C5000,
2850816F,
804C4001,
904C5000,
5150816F,
80284001,
902F5000,
3450816F,
804C4000,
51400190,
5050816F,
80504000,
2F400034,
4001904C,
50002850,
816F804C,
4001904C,
50005150,
816F8028,
4000B040,
00019028,
5000B040,
7F816F80,
4C400051,
40019050,
50816F80,
50400028,
4001904C,
50002850,
816F804C,
4001904C,
50005150,
816F8028,
4001902F,
50003450,
816F804C,
40005140,
01905050,
816F8050,
40002F40,
00344001,
904C5000,
2850816F,
804C4000,
28400190,
4A50002F,
50003450,
816F804A,
40002F40,
00344000,
B0400001,
903D5000,
4950002A,
50003650,
00B0407F,
835F803D,
40004940,
002A4000,
36400190,
44500050,
50002A50,
816F8044,
40005040,
01904450,
00505081,
6F802A40,
01903150,
00365081,
6F804440,
00504001,
90445000,
5050816F,
80314000,
36400190,
2A50816F,
80444000,
50400190,
44500050,
50816F80,
44400050,
40002A40,
00B04000,
01904450,
00505000,
2A5000B0,
407F835F,
80444000,
5040002A,
40019045,
50005150,
002A5081,
6F804540,
00514001,
90445000,
5050816F,
802A4001,
90315000,
3650816F,
80444000,
50400190,
45500051,
50816F80,
31400036,
4001902A,
50816F80,
2A400190,
31500036,
50816F80,
45400051,
40003140,
00364000,
B0400001,
904C5000,
5850002A,
5000B040,
7F835F80,
4C400058,
40002A40,
01904550,
00515000,
2A50816F,
80454000,
51400190,
44500050,
50816F80,
2A400190,
31500036,
50816F80,
44400050,
40019045,
50005150,
816F8031,
40003640,
01902A50,
835F8045,
40005140,
002A4000,
B0400001,
902A6400,
B0407F81,
6F802A40,
01904E60,
002A6481,
6F804E40,
002A4001,
90506000,
2C64816F,
80504000,
2C400190,
5160002D,
64816F80,
5140002D,
40019053,
60002F64,
816F8053,
40002F40,
01905560,
00316481,
6F805540,
00314001,
90516000,
2D64816F,
80514000,
2D400190,
5060002C,
64816F80,
5040002C,
4000B040,
00019026,
50003250,
00B0407F,
8170904C,
50005150,
816F804C,
40005140,
00264000,
32400190,
50500026,
50816F80,
50400190,
4C50816F,
804C4000,
26400190,
4C500051,
50002D50,
00325083,
5F804C40,
00514000,
2D400032,
40019050,
50002650,
816F8050,
4001904C,
50816F80,
4C400026,
4000B040,
00019026,
5000B040,
7F817090,
4C500051,
50816F80,
4C400051,
40002640,
01905050,
00265081,
6F805040,
01904C50,
816F804C,
40002640,
01904C50,
00515000,
2D500032,
50835F80,
4C400051,
40002D40,
00324001,
90505000,
2650816F,
80504000,
26400190,
4C50002D,
50003250,
816F804C,
40002D40,
00324000,
B0400001,
90285000,
345000B0,
407F8170,
904C5000,
5150816F,
804C4000,
51400028,
40003440,
01905050,
00285081,
6F805040,
01904C50,
816F804C,
40002840,
01904C50,
00515000,
2F500034,
50835F80,
4C400051,
40002F40,
00344001,
90505000,
2850816F,
80504001,
904C5081,
6F804C40,
00284000,
B0400001,
90285000,
B0407F81,
70904C50,
00515081,
6F804C40,
00514000,
28400190,
50500028,
50816F80,
50400190,
4C50816F,
804C4000,
28400190,
5050002F,
50003450,
816F8050,
40019051,
50816F80,
5140002F,
40003440,
01905850,
00285081,
6F805840,
00284001,
90505000,
2F500034,
50816F80,
5040002F,
40003440,
00B04000,
01902A50,
00365000,
B0407F81,
70905150,
816F802A,
40003640,
01902A50,
816F8051,
4001904C,
50816F80,
4C40002A,
4001904C,
50005050,
00315000,
3650835F,
804C4000,
50400031,
40003640,
01904C50,
002A5081,
6F804C40,
01904C50,
00515081,
6F804C40,
00514000,
2A4000B0,
40000190,
2A5000B0,
407F8170,
90505081,
6F805040,
002A4001,
904C5000,
2A50816F,
804C4001,
904C5000,
5150816F,
804C4000,
5140002A,
40019050,
50003150,
00365081,
6F805040,
01904C50,
816F804C,
40003140,
00364001,
904A5000,
2A50816F,
804A4000,
2A400190,
4C500051,
50003150,
00365081,
6F804C40,
00514000,
31400036,
4000B040,
0001902A,
5000B040,
7F817090,
5050816F,
802A4001,
902A5081,
6F805040,
01904C50,
816F804C,
40002A40,
01904C50,
00315000,
3650835F,
804C4000,
31400036,
40019049,
50002A50,
816F8049,
4001904C,
50816F80,
4C40002A,
4000B040,
0001902A,
6000B040,
7F816F80,
2A400190,
4260002A,
60816F80,
4240002A,
40019044,
60002C60,
816F8044,
40002C40,
01904560,
002D6081,
6F804540,
002D4001,
90476000,
2F60816F,
80474000,
2F400190,
49600031,
60816F80,
49400031,
40019045,
60002D60,
816F8045,
40002D40,
01904060,
00286081,
6F804040,
00284000,
B0400001,
90455000,
51500026,
50002D50,
00325000,
B0407F83,
5F802640,
002D4000,
32400190,
2650816F,
80454000,
51400190,
44500050,
50816F80,
26400190,
2D500032,
50835F80,
44400050,
40002D40,
00324001,
90455000,
51500026,
50835F80,
45400051,
40002640,
00B04000,
01904C50,
00585000,
265000B0,
407F835F,
80264001,
90265083,
5F802640,
01902D50,
00325083,
5F802D40,
00324001,
90265081,
6F802640,
01902D50,
00325081,
6F804C40,
00584000,
2D400032,
4000B040,
00019045,
50005150,
00285000,
2F500034,
5000B040,
7F835F80,
2840002F,
40003440,
01902850,
816F8045,
40005140,
01904450,
00505081,
6F802840,
01902F50,
00345083,
5F804440,
00504000,
2F400034,
40019045,
50005150,
00285083,
5F804540,
00514000,
284000B0,
40000190,
5050005C,
50002850,
00B0407F,
835F8028,
40019028,
50835F80,
5040005C,
40002840,
01904C50,
00585000,
2F500034,
50835F80,
2F400034,
40019028,
50816F80,
28400190,
2F500034,
50816F80,
4C400058,
40002F40,
00344000,
B0400001,
90515000,
5D50002A,
5000B040,
7F816F80,
5140005D,
40019051,
50005D50,
816F802A,
4001902A,
50816F80,
5140005D,
40019050,
50005C50,
816F8050,
40005C40,
002A4001,
90505000,
5C500031,
50003650,
835F8050,
40005C40,
01904C50,
00585081,
6F804C40,
00584001,
904C5000,
5850816F,
80314000,
364000B0,
40000190,
2A5000B0,
407F816F,
804C4000,
58400190,
49500055,
50816F80,
49400055,
40002A40,
01904950,
00555000,
2A50835F,
80494000,
5540002A,
40019047,
50005350,
00315000,
3650816F,
80474000,
53400190,
47500053,
50835F80,
47400053,
40019045,
50005150,
816F8045,
40005140,
00314000,
364000B0,
40000190,
45500051,
50002A50,
00B0407F,
835F8045,
40005140,
002A4001,
90445000,
5050002A,
50816F80,
44400050,
40019044,
50005050,
816F802A,
40019031,
50003650,
816F8044,
40005040,
01904050,
004C5083,
5F804040,
004C4001,
90405000,
4C50816F,
80404000,
4C400031,
40003640,
00B04000,
01904050,
004C5000,
B0407F81,
6F804040,
004C4001,
904A5000,
2A50816F,
804A4000,
2A400190,
4950002C,
50816F80,
4940002C,
40019047,
50002D50,
816F802D,
4001902F,
50816F80,
4740002F,
4001904A,
50003150,
816F8031,
4001902D,
50816F80,
2D400190,
2850816F,
804A4000,
284000B0,
40000190,
45500051,
50002650,
00B0407F,
835F8026,
40019026,
50816F80,
45400051,
40019044,
50005050,
816F8026,
4001902D,
50003250,
835F8044,
40005040,
002D4000,
32400190,
45500051,
50002650,
835F8045,
40005140,
00264000,
B0400001,
904C5000,
58500026,
5000B040,
7F835F80,
26400190,
2650835F,
80264001,
902D5000,
3250835F,
802D4000,
32400190,
2650816F,
80264001,
902D5000,
3250816F,
804C4000,
5840002D,
40003240,
00B04000,
01904550,
00515000,
286000B0,
407F835F,
80284001,
90286081,
6F804540,
00514001,
90445000,
5050816F,
80284001,
902F6000,
3460835F,
80444000,
5040002F,
40003440,
01904560,
00516000,
2860835F,
80454000,
51400028,
4000B040,
00019050,
60005C60,
00286000,
B0407F83,
5F802840,
01902860,
835F8050,
40005C40,
00284001,
904C6000,
5860002F,
60003460,
835F802F,
40003440,
01902860,
816F8028,
4001902F,
60003460,
816F804C,
40005840,
002F4000,
344000B0,
40000190,
565A002A,
6000B040,
7F811F80,
56400190,
5F5A811F,
805F4001,
90565A81,
1F805640,
002A4001,
90555A00,
2A60811F,
80554001,
905D5A81,
1F805D40,
0190555A,
811F8055,
40002A40,
0190535A,
00316000,
3650811F,
80534001,
905C5A81,
1F805C40,
0190535A,
811F8053,
40003140,
00364001,
90515A00,
2A60811F,
80514001,
905A5A81,
1F805A40,
0190515A,
811F8051,
40002A40,
00B04000,
0190505A,
00256000,
B0407F81,
1F805040,
0190585A,
811F8058,
40019050,
5A811F80,
50400025,
4001904E,
5A002560,
811F804E,
40019056,
5A811F80,
56400190,
4E5A811F,
804E4000,
25400190,
4C5A002C,
60003160,
811F804C,
40019055,
5A811F80,
55400190,
4C5A811F,
804C4000,
2C400031,
4001904A,
5A002560,
811F804A,
40019053,
5A811F80,
53400190,
4A5A811F,
804A4000,
254000B0,
40000190,
49500026,
6000B040,
7F835F80,
49400026,
40019049,
60005160,
00266081,
6F804940,
00514001,
90496000,
5160816F,
80264001,
902D6000,
3260835F,
802D4000,
32400190,
2660835F,
80264000,
B0400001,
90266000,
B0407F83,
5F804940,
00514000,
26400190,
4260004E,
50002660,
835F8042,
40004E40,
00264001,
90456000,
5150002D,
60003260,
835F8045,
40005140,
002D4000,
32400190,
47600053,
50002660,
816F8026,
4001902D,
60003260,
816F8047,
40005340,
002D4000,
324000B0,
40000190,
4C600058,
60002860,
002F6000,
346000B0,
407F873F,
804C4000,
58400190,
5160005D,
60873F80,
5140005D,
40002840,
002F4000,
34400190,
5360005F,
60001C60,
873F801C,
40019034,
50003B50,
00405087,
3F805340,
005F4000,
3440003B,
40004040,
00B04000,
01FF5902,
05000090,
535000FF,
59020500,
00902C50,
00B0407F,
816F8053,
4001904B,
50816F80,
4B40002C,
40019052,
50003350,
816F8052,
40019053,
50816F80,
33400190,
3850816F,
80534001,
904B5081,
6F804B40,
00384001,
90525000,
3350816F,
80524001,
90535081,
6F803340,
00B04000,
01902850,
00B0407F,
816F8053,
4001904C,
50816F80,
4C400028,
40019052,
50002F50,
816F8052,
40019053,
50816F80,
2F400190,
3450816F,
80534001,
904C5081,
6F804C40,
00344001,
90525000,
2F50816F,
80524001,
90535081,
6F805340,
002F4000,
B0400001,
90555000,
2A5000B0,
407F816F,
80554001,
904E5081,
6F804E40,
002A4001,
90535000,
3150816F,
80534001,
90555081,
6F803140,
01903650,
816F8055,
4001904E,
50816F80,
4E400036,
40019053,
50003150,
816F8053,
40019055,
50816F80,
55400031,
4000B040,
00019057,
50002F50,
00B0407F,
835F8057,
40002F40,
01905750,
00365081,
6F805740,
01905850,
816F8058,
40003640,
01905750,
002E504F,
80574001,
9058504F,
80584001,
9057504F,
80574001,
90555081,
6F805540,
002E4001,
90535000,
3650816F,
80534001,
90525081,
6F805240,
00364000,
B0400001,
90535000,
2C5000B0,
407F816F,
80534001,
904B5081,
6F804B40,
002C4001,
90525000,
3350816F,
80524001,
90535081,
6F803340,
01903850,
816F8053,
4001904B,
50816F80,
4B400038,
40019052,
50003350,
816F8052,
40019053,
50816F80,
334000B0,
40000190,
285000B0,
407F816F,
80534001,
904C5081,
6F804C40,
00284001,
90525000,
2F50816F,
80524001,
90535081,
6F802F40,
01903450,
816F8053,
4001904C,
50816F80,
4C400034,
40019052,
50002F50,
816F8052,
40019053,
50816F80,
5340002F,
4000B040,
00019052,
50002A50,
00B0407F,
816F8052,
40019049,
50816F80,
4940002A,
40019053,
50003150,
816F8053,
40019049,
50816F80,
49400031,
40019055,
50003650,
816F8055,
40019049,
50816F80,
49400036,
4001904B,
50005350,
002F5000,
3650003B,
50854F80,
4B400053,
4001904E,
50816F80,
4E400190,
5350816F,
80534001,
90575081,
6F805740,
002F4000,
3640003B,
40019055,
50002E50,
003A5081,
6F805540,
01904E50,
816F804E,
40019052,
50816F80,
52400190,
5550816F,
80554000,
2E40003A,
4000B040,
00019047,
50002C50,
00B0407F,
816F8047,
4001903F,
50816F80,
3F40002C,
40019046,
50003350,
816F8046,
40019047,
50816F80,
33400190,
3850816F,
80474001,
903F5081,
6F803F40,
00384001,
90465000,
3350816F,
80464001,
90475081,
6F803340,
00B04000,
01902850,
00B0407F,
816F8047,
40019040,
50816F80,
40400028,
40019046,
50002F50,
816F8046,
40019047,
50816F80,
2F400190,
3450816F,
80474001,
90405081,
6F804040,
00344001,
90465000,
2F50816F,
80464001,
90475081,
6F804740,
002F4000,
B0400001,
90495000,
2A5000B0,
407F816F,
80494001,
90425081,
6F804240,
002A4001,
90475000,
3150816F,
80474001,
90495081,
6F803140,
01903650,
816F8049,
40019042,
50816F80,
42400036,
40019047,
50003150,
816F8047,
40019049,
50816F80,
49400031,
4000B040,
0001904B,
50002F50,
00365000,
3B5000B0,
407F835F,
804B4001,
904B5081,
6F804B40,
01904C50,
816F804C,
40002F40,
00364000,
3B400190,
4B50002E,
50003650,
003A504F,
804B4001,
904C504F,
804C4001,
904B504F,
804B4001,
90495081,
6F804940,
01904750,
816F8047,
40019046,
50816F80,
4640002E,
40003640,
003A4000,
B0400001,
903F5500,
42550047,
55002C55,
00385583,
5F803F40,
00424000,
47400190,
3F550046,
55816F80,
2C400038,
40019033,
55003855,
816F803F,
40004640,
00334000,
38400190,
3F550042,
55004755,
002C5577,
803F4000,
42400047,
40002C40,
82699044,
60004760,
004E6000,
28600034,
6000B040,
7F854F80,
44400047,
40004E40,
01904760,
816F8047,
40019047,
60835F80,
28400034,
4001902F,
60003460,
816F8047,
40019047,
60816F80,
4740002F,
40003440,
01904760,
00286083,
5F804740,
00284000,
B0400001,
903D6000,
4260002A,
60003160,
00366000,
B0407F83,
5F803D40,
00424001,
90426000,
4760816F,
80424000,
47400190,
42600046,
60816F80,
2A400031,
40003640,
01903160,
00366081,
6F804240,
00464001,
90476081,
6F804740,
00314000,
36400190,
3F600042,
60004760,
002F6000,
3660003B,
608B1F80,
3F400042,
40004740,
002F4000,
3640003B,
4001903A,
60003E60,
00406000,
44600022,
60002E60,
873F803A,
40003E40,
00404000,
44400022,
40002E40,
00B04000,
01FF5902,
00000090,
51600054,
6000FF59,
02000000,
902D6000,
34600039,
60816F80,
51400054,
4081702D,
40003440,
00394001,
90516000,
5460816F,
80514000,
54400190,
4F600053,
60816F80,
4F400053,
40019051,
60005460,
816F8051,
40005440,
81719054,
60005B60,
816F8054,
40005B40,
81719051,
60005460,
00296000,
30600035,
60816F80,
51400054,
40817029,
40003040,
00354001,
90516000,
5460816F,
80514000,
54400190,
4F600053,
60816F80,
4F400053,
40019051,
60005460,
816F8051,
40005440,
8171904A,
60004F60,
816F804A,
40004F40,
8171904F,
60005460,
002B6000,
32600037,
60816F80,
4F400054,
4081702B,
40003240,
00374001,
90546081,
6F805440,
01905360,
816F8053,
40019054,
60816F80,
54400190,
4F60002B,
50003250,
00375081,
6F804F40,
01905460,
816F8054,
40019056,
60816F80,
5640002B,
40003240,
00374001,
904F6000,
58600030,
60003760,
003C6081,
6F804F40,
00584081,
71905860,
816F8058,
40019059,
60816F80,
59400030,
40003740,
003C4001,
90585000,
2F600037,
60003B60,
4F805840,
01905950,
4F805940,
01905850,
4F805840,
01905660,
816F8056,
40019054,
60816F80,
54400190,
5360816F,
80534000,
2F400037,
40003B40,
01905160,
00546000,
2D600034,
60003960,
816F8051,
40005440,
81702D40,
00344000,
39400190,
51600054,
60816F80,
51400054,
4001904F,
60005360,
816F804F,
40005340,
01905160,
00546081,
6F805140,
00544081,
71905460,
005B6081,
6F805440,
005B4001,
90296000,
30600035,
60817051,
60005460,
816F8051,
40005440,
81719051,
60005460,
816F8051,
40005440,
01904F60,
00536081,
6F804F40,
00534000,
29400030,
40003540,
01905160,
00546081,
6F805140,
00544081,
71904A60,
004F6081,
6F804A40,
004F4081,
71904F60,
00536000,
2B600032,
60003760,
835F804F,
40005340,
002B4000,
32400037,
40019051,
60005460,
816F8051,
40005440,
01902B60,
00326000,
37608170,
53600056,
60816F80,
53400056,
40002B40,
00324000,
37408171,
904C6000,
54600030,
60003760,
00B0407F,
854F804C,
40005440,
01904F60,
816F804F,
40019054,
60816F80,
54400190,
5860816F,
80584000,
30400037,
40019056,
60002F60,
00376081,
6F805640,
01904F60,
816F804F,
40019053,
60816F80,
53400190,
5660816F,
80564000,
2F400037,
4000B040,
00019048,
60002D50,
00B0407F,
816F802D,
40019034,
50816F80,
48400034,
40019048,
60003950,
816F8048,
40003940,
01904760,
003B5081,
6F804740,
003B4001,
90485000,
3C50816F,
803C4001,
90405081,
6F804840,
00404001,
904F6000,
4550816F,
804F4001,
90433C81,
6F804340,
00454000,
B0400001,
90486000,
295000B0,
407F816F,
80294001,
90305081,
6F804840,
00304001,
90486000,
3550816F,
80484000,
35400190,
47600037,
50816F80,
47400037,
40019048,
60003950,
816F8039,
4001903C,
50816F80,
4840003C,
40019043,
60004150,
816F8043,
4001904F,
3C816F80,
4F400041,
4000B040,
00019048,
60002B50,
00B0407F,
816F802B,
40019032,
50816F80,
48400032,
40019048,
60003750,
816F8048,
40003740,
01904760,
00395081,
6F804740,
00394001,
90486000,
3B50816F,
80484001,
90436081,
6F804340,
01904860,
816F8048,
4001904A,
60816F80,
4A40003B,
4000B040,
0001904C,
60003050,
00B0407F,
816F8030,
40019037,
50816F80,
4C400037,
4001904C,
60003C50,
816F804C,
4001904D,
60816F80,
4D40003C,
4001904C,
60002F50,
4F804C40,
01904D60,
4F804D40,
01904C60,
4F804C40,
002F4001,
904A6000,
3750816F,
804A4000,
37400190,
4860003B,
50816F80,
48400190,
4760816F,
80474000,
3B4000B0,
40000190,
4860002D,
60003460,
00396000,
B0407F83,
5F804840,
01904860,
00546081,
6F804840,
00544001,
90486000,
5460816F,
802D4000,
34400039,
40019034,
60003960,
816F8048,
40005440,
01904760,
00536081,
6F804740,
00534001,
90476000,
5360816F,
80344000,
39400190,
2D60816F,
80474000,
5340002D,
4000B040,
00019047,
60005360,
00296000,
B0407F83,
5F804740,
00534001,
90436000,
4F60816F,
80434000,
4F400190,
4360004F,
60816F80,
29400190,
30600035,
60816F80,
4340004F,
40019041,
60004D60,
816F8030,
40003540,
01902960,
816F8041,
40004D40,
01904060,
004C6081,
6F804040,
004C4000,
294000B0,
40000190,
3E60004A,
60002B60,
00326000,
376000B0,
407F835F,
803E4000,
4A400190,
4060004C,
60816F80,
4040004C,
40019041,
60004D60,
816F802B,
40003240,
00374001,
90326000,
3760816F,
80414000,
4D400190,
4360004F,
60816F80,
4340004F,
40003240,
00374000,
B0400001,
90406000,
4C600030,
60003760,
00B0407F,
8B1F8040,
40004C40,
00304000,
374000B0,
40000190,
3E50004A,
50002F50,
00375000,
B0407F87,
3F803E40,
004A4000,
2F400037,
4000B040,
00019048,
50002D50,
00B0407F,
816F8048,
40019040,
50816F80,
4040002D,
40019047,
50003450,
816F8047,
40019048,
50816F80,
34400190,
3950816F,
80484001,
90405081,
6F804040,
00394001,
90475000,
2D50816F,
80474001,
90485081,
6F804840,
002D4000,
B0400001,
90295000,
B0407F81,
70904150,
816F8041,
40002940,
01904750,
00305081,
6F804740,
01904850,
816F8030,
40019035,
50816F80,
48400190,
4150816F,
80414000,
35400190,
47500029,
50816F80,
47400190,
4850816F,
80484000,
294000B0,
40000190,
4A50002B,
5000B040,
7F816F80,
4A400190,
4350816F,
80434000,
2B400190,
48500032,
50816F80,
48400190,
4A50816F,
80324001,
90375081,
6F804A40,
01904350,
816F8043,
40003740,
01904850,
002B5081,
6F804840,
01904A50,
816F804A,
40002B40,
00B04000,
01904C60,
00306000,
376000B0,
407F835F,
804C4001,
904C6081,
6F804C40,
01904D60,
816F804D,
40003040,
00374001,
904C5081,
6F804C40,
01904A60,
002F5000,
3750816F,
804A4001,
90486081,
6F804840,
01904760,
816F8047,
40002F40,
00374000,
B0400001,
90456000,
4860002D,
60003460,
00396083,
5F804540,
00484001,
90436000,
4760816F,
802D4000,
34400039,
40019034,
60003960,
816F8043,
40004740,
00344000,
39400190,
45600048,
60002D60,
77804540,
00484000,
2D408269,
90456000,
4860004F,
60002960,
00305000,
356000B0,
407F854F,
80454000,
4840004F,
40019043,
50004860,
816F8043,
40004840,
01904350,
00485083,
5F802940,
00304000,
35400190,
30600035,
60816F80,
43400048,
40019048,
60816F80,
48400030,
40003540,
01904860,
00296083,
5F804840,
00294000,
B0400001,
903E6000,
4360002B,
60003260,
00376000,
B0407F83,
5F803E40,
00434001,
90486081,
6F804840,
01904760,
816F802B,
40003240,
00374001,
90326000,
3760816F,
80474001,
90486081,
6F804840,
00324000,
37400190,
40600043,
60004860,
00306000,
3760835F,
80304000,
37400190,
30600037,
60816F80,
40400048,
40817043,
40019048,
60816F80,
48400190,
4C60816F,
804C4000,
30400037,
4001904A,
60002F60,
00376081,
6F804A40,
01904360,
816F8043,
40019047,
60816F80,
47400190,
4A60816F,
804A4000,
2F400037,
4001FF51,
03061A80,
00904F60,
002E6000,
3760816F,
804F4001,
904A3C81,
6F804A40,
01904F60,
816F804F,
4001904A,
60005660,
816F804A,
40005640,
002E4000,
374001FF,
5103070A,
E200904A,
60005660,
002D6000,
3760816F,
804A4000,
56400190,
4F3C816F,
804F4001,
904A6000,
5660816F,
804A4000,
56400190,
5B60816F,
805B4000,
2D400037,
4001FF51,
03061A80,
00905460,
002C6000,
37603C59,
603C5B60,
3C60608D,
4B805440,
002C4000,
374000B0,
400001FF,
510307A1,
2000903C,
4600B040,
7F3B8059,
403C5B40,
3C60403C,
3C400190,
3F46816F,
803F4001,
FF510306,
1A800090,
4146816F,
80414001,
FF510306,
5B9B0090,
4346816F,
80434001,
FF510304,
D18D0090,
4646816F,
80464001,
90485081,
6F804840,
01FF5103,
03D09000,
904B5081,
6F804B40,
01904D50,
816F804D,
4001FF51,
03030D40,
00904F50,
816F804F,
4001FF51,
0307A120,
00905250,
816F8052,
4001FF51,
03061A80,
00904D50,
002B5000,
32500035,
503C5050,
3C565086,
47804D40,
002B4000,
32400035,
4000B040,
003C8050,
403C5640,
817BFF51,
0303D090,
00B0407F,
0090643C,
19806440,
0190623C,
19806240,
0190603C,
19806040,
01905F3C,
19805F40,
07FF5804,
02021808,
00FF5103,
03D09000,
905D3C19,
805D4001,
905B3C19,
805B4001,
90593C19,
80594001,
90583C19,
80584001,
90563C19,
80564001,
90543C19,
80544001,
90533C19,
80534001,
90513C19,
80514001,
904F3C19,
804F4007,
904D3C19,
804D4001,
904C3C19,
804C4001,
904A3C19,
804A4001,
90483C19,
80484001,
90473C19,
80474001,
90453C19,
80454001,
90433C19,
80434001,
90413C19,
80414001,
90403C19,
80404007,
903E3C19,
803E4001,
903C3C19,
803C4001,
903B3C19,
803B4001,
90393C19,
80394001,
90373C19,
80374001,
90353C19,
80354001,
90343C19,
80344001,
90323C19,
80324001,
90303C19,
80304007,
902F3C19,
802F4001,
902D3C19,
802D4001,
902B3C19,
802B4001,
90293C19,
80294001,
90283C19,
80284001,
90263C19,
80264001,
90243C19,
80244001,
90233C19,
80234001,
90213C19,
80214006,
B0400001,
FF580404,
02180800,
FF510305,
62AE0090,
306E0034,
6E00396E,
00216E00,
B0407F77,
80214001,
902D5A77,
802D4001,
90215A77,
80214001,
902D5A77,
802D4001,
90215A77,
80214001,
902D5A77,
80304000,
34400039,
40002D40,
0190346E,
00396E00,
3C6E0021,
5A778021,
4001902D,
5A77802D,
40019021,
5A778021,
4001902D,
5A77802D,
40019021,
5A778021,
4001902D,
5A778034,
40003940,
003C4000,
2D400190,
396E003C,
6E00406E,
00215A77,
80214001,
902D5A77,
802D4001,
90215A77,
80214001,
902D5A77,
802D4001,
90215A77,
80214001,
902D5A77,
80394000,
3C400040,
40002D40,
01903C6E,
00406E00,
456E0021,
5A778021,
4001902D,
5A77802D,
40019021,
5A778021,
4001902D,
5A77802D,
40019021,
5A778021,
4001902D,
5A77803C,
40004040,
00454000,
2D400190,
406E0045,
6E00486E,
00215A77,
80214001,
902D5A77,
802D4001,
90215A77,
80214001,
902D5A77,
80404000,
45400048,
40002D40,
0190456E,
00486E00,
4C6E0021,
5A778021,
4001902D,
5A77802D,
40019021,
5A778021,
4001902D,
5A778045,
40004840,
004C4000,
2D400190,
486E004C,
6E00516E,
00215A77,
80214001,
902D5A77,
802D4001,
90215A77,
80214001,
902D5A77,
802D4001,
90215A77,
80214001,
902D5A77,
80484000,
4C400051,
40002D40,
01904C6E,
00516E00,
546E0021,
5A778021,
4001902D,
5A77802D,
40019021,
5A778021,
4001902D,
5A77802D,
40019021,
5A778021,
4001902D,
5A77804C,
40005140,
00544000,
2D400190,
516E0054,
6E00586E,
00215A77,
80214001,
902D5A77,
802D4001,
90215A77,
80214001,
902D5A77,
802D4001,
90215A77,
80214001,
902D5A77,
80514000,
54400058,
40002D40,
0190546E,
00586E00,
5D6E0021,
5A778021,
4001902D,
5A77802D,
40019021,
5A778021,
4001902D,
5A77802D,
40019021,
5A778021,
4001902D,
5A778054,
40005840,
005D4000,
2D400190,
586E005D,
6E00606E,
00215A77,
80214001,
902D5A77,
802D4001,
90215A77,
80214001,
902D5A77,
80584000,
5D400060,
40002D40,
0190536E,
00586E00,
5C6E0021,
5A778021,
4001902D,
5A77802D,
40019021,
5A778021,
4001902D,
5A778053,
40005840,
005C4000,
2D4001FF,
510303D0,
9000905D,
70002170,
002D703C,
60703C64,
703C6970,
8D4B805D,
40002140,
002D4000,
B0400001,
FF510309,
27BF0090,
45700051,
70002D70,
00397000,
B0407F3B,
8060403C,
64403C69,
40810DFF,
5103065B,
9B009047,
70005370,
002F7000,
3B702780,
45400051,
40002D40,
00394082,
19904870,
00547000,
3070003C,
70278047,
40005340,
002F4000,
3B408219,
904A7000,
56700032,
70003E70,
27804840,
00544000,
3040003C,
4081484A,
40005640,
00324000,
3E4001FF,
510305CB,
6300904D,
70005970,
00357000,
4170816F,
804D4000,
59400035,
40004140,
01904C70,
00587000,
34700040,
70816F80,
4C400058,
40003440,
00404001,
90507000,
5C70002C,
70003870,
816F8050,
40005C40,
002C4000,
384000B0,
400001FF,
51030493,
E0009051,
73002D73,
00347300,
397300B0,
407F3C90,
54733C58,
733C5D73,
841B8051,
40002D40,
00344000,
394000B0,
40003C80,
54403C58,
403C5D40,
3D905378,
00287800,
2F780034,
7800B040,
7F3C9058,
783C5C78,
84578053,
40002840,
002F4000,
344000B0,
40003C80,
58403C5C,
4079FF51,
03030D40,
0090517D,
00217D00,
287D002D,
7D00B040,
7F3C9054,
7D3C587D,
3C5D7D8D,
4B805140,
00214000,
2840002D,
4000B040,
003C8054,
403C5840,
3C5D4000,
FF2F0000;